M48
;GenerationSoftware,Autodesk,EAGLE,8.7.0*%
;CreationDate,2018-07-10T16:53:23Z*%
FMAT,2
ICI,OFF
METRIC,TZ,000.000
T9C0.300
T8C0.350
T7C0.900
T6C1.473
T5C1.800
T4C1.905
T3C2.000
T2C2.200
T1C2.300
%
G90
M71
T1
X16289Y51892
X94139Y175892
X5089Y175892
X16289Y175892
X24989Y175892
X36139Y175892
X140989Y175892
X140989Y51892
X94139Y51892
X152139Y51892
X82989Y175892
X74289Y175892
X5089Y51892
X63089Y175892
X132289Y175892
X152139Y175892
X24989Y51892
X36139Y51892
X121089Y175892
X82989Y51892
X121089Y51892
X132289Y51892
X74289Y51892
X63089Y51892
T2
X12789Y25942
X28489Y25992
X144589Y136992
X128839Y136942
X128789Y149942
X144489Y149992
X70839Y12942
X70839Y136942
X86589Y136992
X70789Y149942
X86489Y149992
X86589Y12992
X70789Y25942
X86489Y25992
X28589Y136992
X12839Y136942
X28589Y12992
X12789Y149942
X28489Y149992
X144589Y12992
X128839Y12942
X128789Y25942
X144489Y25992
X12839Y12942
T3
X14439Y85992
X130439Y209992
X130439Y85992
X72439Y209992
X72439Y85992
X14439Y209992
T4
X34644Y128241
X1994Y147891
X64794Y4191
X95544Y102041
X3644Y102041
X39494Y147941
X153544Y226041
X39494Y23941
X1994Y23891
X37544Y226041
X34644Y4241
X6794Y4191
X61644Y102041
X155494Y23941
X3644Y226041
X6794Y128191
X119644Y226041
X59994Y23891
X117994Y147891
X155494Y147941
X122794Y4191
X119644Y102041
X117994Y23891
X153544Y102041
X97494Y23941
X150644Y128241
X122794Y128191
X37544Y102041
X59994Y147891
X97494Y147941
X92644Y128241
X64794Y128191
X95544Y226041
X61644Y226041
X150644Y4241
X92644Y4241
T5
X3189Y141392
X119189Y141392
X3189Y17392
X119189Y17392
X61189Y141392
X61189Y17392
T6
X68160Y183944
X68160Y59944
X10160Y183944
X10160Y59944
X126160Y59944
X126160Y183944
T7
X126160Y183944
X68160Y59944
X126160Y59944
X68160Y183944
X10160Y59944
X10160Y183944
T8
X32004Y79502
X889Y79883
X1778Y79883
X2540Y79883
X3302Y79883
X4064Y79883
X4826Y79883
X4826Y80645
X9398Y80137
X14453Y81839
X14605Y88011
X12509Y86360
X11684Y85598
X13716Y87630
X10668Y77089
X10668Y76327
X24193Y75248
X24574Y78867
X25705Y72136
X24892Y72136
X28321Y72009
X28448Y69850
X25527Y69850
X25654Y68072
X23749Y69088
X22111Y78892
X25971Y77407
X19939Y78994
X20320Y82931
X21209Y82931
X22098Y82931
X27940Y82804
X28702Y82804
X29591Y82804
X30353Y82804
X26543Y87503
X32258Y89154
X33020Y94234
X20955Y95631
X29108Y92773
X28346Y92773
X27584Y92773
X26822Y92773
X27305Y96583
X27178Y95758
X29083Y96583
X29083Y95821
X29908Y95821
X25527Y100330
X27051Y100330
X26289Y100330
X37592Y100203
X34671Y100203
X33909Y100203
X33147Y100203
X32385Y100203
X31623Y100203
X30861Y100203
X30099Y100203
X29337Y100203
X28575Y100203
X27813Y100330
X24765Y100330
X19558Y100203
X18796Y100203
X18034Y100203
X17272Y100203
X16510Y100203
X15748Y100203
X14986Y100203
X14224Y100203
X13462Y100203
X12700Y100203
X11938Y100203
X11176Y100203
X10414Y100203
X9652Y100203
X8890Y100203
X8128Y100203
X7366Y100203
X6604Y100203
X5842Y100203
X5080Y100203
X4318Y100203
X3556Y100203
X2794Y100203
X2032Y100076
X20320Y96139
X23876Y85598
X16764Y85725
X16256Y84963
X15748Y90805
X17399Y94742
X34290Y72263
X38735Y72136
X38862Y64008
X36068Y54864
X33782Y56007
X27178Y57023
X32258Y50419
X34544Y50292
X38381Y53994
X26289Y54864
X26162Y58166
X28448Y61214
X28448Y64262
X25527Y70612
X25654Y63754
X25654Y66040
X889Y43561
X15113Y26035
X10846Y37846
X14986Y32131
X14605Y22987
X23876Y29083
X22352Y29083
X23749Y20447
X16764Y16129
X29083Y22987
X27432Y22987
X29891Y14532
X36068Y23114
X38862Y22098
X37592Y26289
X5410Y40284
X889Y40005
X889Y32004
X2286Y21717
X16764Y11811
X8763Y3048
X18161Y2540
X21463Y4699
X21590Y2540
X33528Y1651
X36449Y5842
X29945Y38327
X33223Y30988
X35814Y40386
X25908Y37287
X25527Y35433
X21463Y36576
X12954Y37643
X18669Y39370
X10414Y39370
X17907Y41275
X18161Y43180
X26772Y39497
X26797Y40767
X38989Y43688
X39116Y48514
X35687Y48387
X35814Y41910
X37211Y40386
X39116Y33147
X20828Y20701
X17018Y19177
X11303Y18034
X16891Y22733
X11430Y24511
X10541Y23114
X10668Y28702
X1424Y25808
X8611Y42697
X33147Y13970
X27432Y19050
X36195Y29083
X39243Y16383
X29464Y11049
X38989Y14351
X24536Y13716
X24384Y8001
X22987Y3302
X22733Y11684
X11938Y10795
X13970Y17780
X14097Y16129
X9271Y13970
X10160Y6858
X8890Y5207
X4445Y22098
X28067Y40767
X27686Y38100
X30480Y39751
X31242Y41402
X32004Y31877
X24105Y33350
X17780Y28956
X14605Y24765
X11176Y15367
X17399Y26035
X29337Y19050
X17272Y14097
X5715Y30099
X5080Y37719
X5461Y28956
X10033Y32512
X10668Y34417
X5080Y42799
X5461Y84074
X14859Y90805
X4445Y82169
X6731Y84074
X14148Y84150
X21844Y80391
X38735Y79375
X30683Y81458
X34163Y79883
X34290Y74168
X34925Y85979
X32893Y87630
X39878Y89662
X38481Y84201
X20320Y92710
X37885Y96482
X33020Y94996
X4191Y27686
X889Y30099
X4445Y20320
X4445Y21209
X4445Y22987
X4445Y23876
X26060Y92773
X29870Y92773
X35497Y86868
X26441Y92075
X27203Y92075
X27965Y92075
X28727Y92075
X29489Y92075
X30251Y92075
X30632Y92799
X28384Y94488
X29908Y96583
X26479Y95377
X26035Y96012
X26543Y96596
X29908Y95059
X29400Y94488
X28918Y95059
X33020Y91821
X33020Y91059
X38481Y92075
X33782Y94234
X35585Y94653
X35687Y92011
X39243Y96520
X39815Y93408
X10668Y84455
X34290Y89789
X39341Y28973
X29400Y24320
X35370Y21717
X30543Y12700
X23749Y26543
X30480Y50952
X30226Y54864
X32004Y54864
X29896Y58903
X28956Y59563
X28321Y54864
X31166Y64516
X31242Y74422
X29083Y74676
X28448Y67818
X29083Y76073
X34163Y77343
X32004Y77216
X26924Y78105
X14173Y82575
X21717Y95453
X22479Y95428
X23241Y95504
X3048Y14986
X12446Y84836
X14148Y83363
X38354Y42291
X37973Y29083
X18466Y11811
X32893Y41529
X35687Y81026
X30861Y86233
X34036Y86741
X1778Y99187
X1270Y96520
X1143Y95758
X1016Y94996
X889Y94234
X889Y93472
X889Y92710
X35306Y99695
X4926Y5831
X4445Y11049
X9652Y15113
X4191Y16002
X1651Y20193
X30353Y16864
X30480Y7747
X32004Y4953
X18034Y37846
X11938Y9652
X10287Y5461
X19177Y3175
X28583Y47914
X26594Y50495
X26273Y48389
X28783Y46509
X26284Y44306
X33782Y94996
X37211Y97155
X33020Y93345
X33020Y92583
X10631Y88274
X8931Y86574
X8131Y86574
X7331Y86574
X6431Y86574
X6731Y90374
X9631Y90374
X32941Y29673
X29640Y29573
X28550Y50673
X38710Y58014
X29185Y21565
X24232Y31979
X23673Y90297
X154710Y182014
X145185Y145565
X28067Y89662
X33299Y96876
X32766Y60833
X30607Y98425
X33655Y62992
X31877Y97917
X28194Y98527
X29791Y89943
X24130Y94488
X17463Y90868
X23622Y43434
X29718Y43434
X29056Y40640
X29056Y35206
X30353Y32004
X23622Y34417
X5969Y14605
X4953Y13208
X140232Y155979
X35814Y90868
X27559Y14859
X18567Y12776
X16129Y15113
X13970Y15113
X139673Y214297
X144067Y213662
X149299Y220876
X148766Y184833
X146607Y222425
X149655Y186992
X147877Y221917
X25781Y40132
X36538Y44323
X37886Y32218
X144194Y222527
X145791Y213943
X140130Y218488
X133463Y214868
X139622Y167434
X145718Y167434
X145056Y164640
X145056Y159206
X146353Y156004
X139622Y158417
X121969Y138605
X120953Y137208
X151814Y214868
X143559Y138859
X134567Y136776
X132129Y139113
X11176Y16891
X22225Y20066
X129970Y139113
X141781Y164132
X152538Y168323
X153886Y156218
X127176Y140891
X138225Y144066
X121709Y130530
X5709Y6530
X134962Y200327
X155497Y159687
X152551Y223466
X155191Y183641
X155167Y174019
X18962Y76327
X39497Y35687
X36551Y99466
X39191Y59641
X39167Y50019
X25527Y49069
X24384Y80645
X18161Y81407
X22987Y27686
X30172Y27859
X141527Y173069
X140384Y204645
X134161Y205407
X138987Y151686
X146172Y151859
X150290Y212392
X155393Y160604
X34290Y88392
X39393Y36604
X39370Y40259
X155370Y164259
X154735Y222402
X38735Y98402
X38735Y99794
X154735Y223794
X154481Y161239
X154481Y164993
X38481Y37239
X38481Y40993
X14630Y53214
X22428Y52832
X19631Y53772
X27837Y51883
X130630Y177214
X138428Y176832
X135631Y177772
X143837Y175883
X147115Y180007
X140790Y173806
X31115Y56007
X24790Y49806
X24092Y42561
X24892Y37592
X140092Y166561
X25679Y56007
X14275Y46304
X10109Y42520
X11963Y34442
X90004Y79502
X58889Y79883
X59778Y79883
X60540Y79883
X61302Y79883
X62064Y79883
X62826Y79883
X62826Y80645
X67398Y80137
X72453Y81839
X72605Y88011
X70510Y86360
X69684Y85598
X71716Y87630
X68668Y77089
X68668Y76327
X82194Y75248
X82575Y78867
X83705Y72136
X82892Y72136
X86321Y72009
X86448Y69850
X83527Y69850
X83654Y68072
X81749Y69088
X80111Y78892
X83972Y77407
X77939Y78994
X78320Y82931
X79209Y82931
X80098Y82931
X85940Y82804
X86702Y82804
X87591Y82804
X88353Y82804
X84543Y87503
X90258Y89154
X91020Y94234
X78955Y95631
X87108Y92773
X86346Y92773
X85584Y92773
X84822Y92773
X85305Y96583
X85178Y95758
X87083Y96583
X87083Y95821
X87908Y95821
X83527Y100330
X85051Y100330
X84289Y100330
X95592Y100203
X92671Y100203
X91909Y100203
X91147Y100203
X90385Y100203
X89623Y100203
X88861Y100203
X88099Y100203
X87337Y100203
X86575Y100203
X85813Y100330
X82765Y100330
X77558Y100203
X76796Y100203
X76034Y100203
X75272Y100203
X74510Y100203
X73748Y100203
X72986Y100203
X72224Y100203
X71462Y100203
X70700Y100203
X69938Y100203
X69176Y100203
X68414Y100203
X67652Y100203
X66890Y100203
X66128Y100203
X65366Y100203
X64604Y100203
X63842Y100203
X63080Y100203
X62318Y100203
X61556Y100203
X60794Y100203
X60032Y100076
X78320Y96139
X81876Y85598
X74764Y85725
X74256Y84963
X73748Y90805
X75399Y94742
X92290Y72263
X96735Y72136
X96862Y64008
X94068Y54864
X91782Y56007
X85178Y57023
X90258Y50419
X92544Y50292
X96381Y53994
X84289Y54864
X84162Y58166
X86448Y61214
X86448Y64262
X83527Y70612
X83654Y63754
X83654Y66040
X58889Y43561
X73113Y26035
X68846Y37846
X72986Y32131
X72605Y22987
X81876Y29083
X80352Y29083
X81749Y20447
X74764Y16129
X87083Y22987
X85432Y22987
X87891Y14532
X94068Y23114
X96862Y22098
X95592Y26289
X63410Y40284
X58889Y40005
X58889Y32004
X60286Y21717
X74764Y11811
X66763Y3048
X76161Y2540
X79463Y4699
X79590Y2540
X91528Y1651
X94449Y5842
X87945Y38327
X91223Y30988
X93814Y40386
X83908Y37287
X83527Y35433
X79463Y36576
X70954Y37643
X76669Y39370
X68414Y39370
X75907Y41275
X76161Y43180
X84772Y39497
X84797Y40767
X96989Y43688
X97116Y48514
X93687Y48387
X93814Y41910
X95211Y40386
X97116Y33147
X78828Y20701
X75018Y19177
X69303Y18034
X74891Y22733
X69430Y24511
X68541Y23114
X68668Y28702
X59424Y25808
X66611Y42697
X91147Y13970
X85432Y19050
X94195Y29083
X97243Y16383
X87464Y11049
X96989Y14351
X82536Y13716
X82384Y8001
X80987Y3302
X80733Y11684
X69938Y10795
X71970Y17780
X72097Y16129
X67271Y13970
X68160Y6858
X66890Y5207
X62445Y22098
X86067Y40767
X85686Y38100
X88480Y39751
X89242Y41402
X90004Y31877
X82105Y33350
X75780Y28956
X72605Y24765
X69176Y15367
X75399Y26035
X87337Y19050
X75272Y14097
X63715Y30099
X63080Y37719
X63461Y28956
X68033Y32512
X68668Y34417
X63080Y42799
X63461Y84074
X72859Y90805
X62445Y82169
X64731Y84074
X72148Y84150
X79844Y80391
X96735Y79375
X88683Y81458
X92163Y79883
X92290Y74168
X92925Y85979
X90893Y87630
X97878Y89662
X96481Y84201
X78320Y92710
X95885Y96482
X91020Y94996
X62191Y27686
X58889Y30099
X62445Y20320
X62445Y21209
X62445Y22987
X62445Y23876
X84060Y92773
X87870Y92773
X93496Y86868
X84441Y92075
X85203Y92075
X85965Y92075
X86727Y92075
X87489Y92075
X88251Y92075
X88632Y92799
X86385Y94488
X87908Y96583
X84480Y95377
X84035Y96012
X84543Y96596
X87908Y95059
X87400Y94488
X86918Y95059
X91020Y91821
X91020Y91059
X96481Y92075
X91782Y94234
X93585Y94653
X93687Y92011
X97243Y96520
X97814Y93408
X68668Y84455
X92290Y89789
X97340Y28973
X87400Y24320
X93369Y21717
X88543Y12700
X81749Y26543
X88480Y50952
X88226Y54864
X90004Y54864
X87896Y58903
X86956Y59563
X86321Y54864
X89166Y64516
X89242Y74422
X87083Y74676
X86448Y67818
X87083Y76073
X92163Y77343
X90004Y77216
X84924Y78105
X72173Y82575
X79717Y95453
X80479Y95428
X81241Y95504
X61048Y14986
X70446Y84836
X72148Y83363
X96354Y42291
X95973Y29083
X76466Y11811
X90893Y41529
X93687Y81026
X88861Y86233
X92036Y86741
X59778Y99187
X59270Y96520
X59143Y95758
X59016Y94996
X58889Y94234
X58889Y93472
X58889Y92710
X93306Y99695
X62926Y5831
X62445Y11049
X67652Y15113
X62191Y16002
X59651Y20193
X88353Y16864
X88480Y7747
X90004Y4953
X76034Y37846
X69938Y9652
X68287Y5461
X77177Y3175
X86583Y47914
X84594Y50495
X84273Y48389
X86783Y46509
X84284Y44306
X91782Y94996
X95211Y97155
X91020Y93345
X91020Y92583
X68631Y88274
X66931Y86574
X66131Y86574
X65331Y86574
X64431Y86574
X64731Y90374
X67631Y90374
X90940Y29673
X87640Y29573
X86550Y50673
X96710Y58014
X87185Y21565
X82232Y31979
X81673Y90297
X140892Y161592
X141679Y180007
X86067Y89662
X91299Y96876
X90766Y60833
X88607Y98425
X91655Y62992
X89877Y97917
X86194Y98527
X87791Y89943
X82130Y94488
X75463Y90868
X81622Y43434
X87718Y43434
X87056Y40640
X87056Y35206
X88353Y32004
X81622Y34417
X63969Y14605
X62953Y13208
X130275Y170304
X93814Y90868
X85559Y14859
X76567Y12776
X74129Y15113
X71970Y15113
X126109Y166520
X127963Y158442
X154735Y203375
X83781Y40132
X94538Y44323
X95886Y32218
X69176Y16891
X80225Y20066
X63709Y6530
X76962Y76327
X97497Y35687
X94551Y99466
X97191Y59641
X97167Y50019
X83527Y49069
X82384Y80645
X76161Y81407
X80987Y27686
X88172Y27859
X92290Y88392
X97393Y36604
X97370Y40259
X96735Y98402
X96735Y99794
X96481Y37239
X96481Y40993
X72630Y53214
X80428Y52832
X77631Y53772
X85837Y51883
X89115Y56007
X82790Y49806
X82092Y42561
X82892Y37592
X83679Y56007
X72275Y46304
X68109Y42520
X69963Y34442
X148004Y79502
X116889Y79883
X117778Y79883
X118540Y79883
X119302Y79883
X120064Y79883
X120826Y79883
X120826Y80645
X125398Y80137
X130453Y81839
X130605Y88011
X128509Y86360
X127684Y85598
X129716Y87630
X126668Y77089
X126668Y76327
X140194Y75248
X140575Y78867
X141705Y72136
X140892Y72136
X144321Y72009
X144448Y69850
X141527Y69850
X141654Y68072
X139749Y69088
X138111Y78892
X141972Y77407
X135939Y78994
X136320Y82931
X137209Y82931
X138098Y82931
X143940Y82804
X144702Y82804
X145591Y82804
X146353Y82804
X142543Y87503
X148258Y89154
X149020Y94234
X136955Y95631
X145108Y92773
X144346Y92773
X143584Y92773
X142822Y92773
X143305Y96583
X143178Y95758
X145083Y96583
X145083Y95821
X145909Y95821
X141527Y100330
X143051Y100330
X142289Y100330
X153592Y100203
X150671Y100203
X149909Y100203
X149147Y100203
X148385Y100203
X147623Y100203
X146861Y100203
X146099Y100203
X145337Y100203
X144575Y100203
X143813Y100330
X140765Y100330
X135558Y100203
X134796Y100203
X134034Y100203
X133272Y100203
X132510Y100203
X131748Y100203
X130986Y100203
X130224Y100203
X129462Y100203
X128700Y100203
X127938Y100203
X127176Y100203
X126414Y100203
X125652Y100203
X124890Y100203
X124128Y100203
X123366Y100203
X122604Y100203
X121842Y100203
X121080Y100203
X120318Y100203
X119556Y100203
X118794Y100203
X118032Y100076
X136320Y96139
X139876Y85598
X132764Y85725
X132256Y84963
X131748Y90805
X133399Y94742
X150290Y72263
X154735Y72136
X154862Y64008
X152068Y54864
X149782Y56007
X143178Y57023
X148258Y50419
X150544Y50292
X154381Y53994
X142289Y54864
X142162Y58166
X144448Y61214
X144448Y64262
X141527Y70612
X141654Y63754
X141654Y66040
X116889Y43561
X131113Y26035
X126846Y37846
X130986Y32131
X130605Y22987
X139876Y29083
X138352Y29083
X139749Y20447
X132764Y16129
X145083Y22987
X143432Y22987
X145891Y14532
X152068Y23114
X154862Y22098
X153592Y26289
X121410Y40284
X116889Y40005
X116889Y32004
X118286Y21717
X132764Y11811
X124763Y3048
X134161Y2540
X137463Y4699
X137590Y2540
X149528Y1651
X152449Y5842
X145945Y38327
X149223Y30988
X151814Y40386
X141908Y37287
X141527Y35433
X137463Y36576
X128954Y37643
X134669Y39370
X126414Y39370
X133907Y41275
X134161Y43180
X142772Y39497
X142797Y40767
X154989Y43688
X155116Y48514
X151687Y48387
X151814Y41910
X153211Y40386
X155116Y33147
X136828Y20701
X133018Y19177
X127303Y18034
X132891Y22733
X127430Y24511
X126541Y23114
X126668Y28702
X117424Y25808
X124611Y42697
X149147Y13970
X143432Y19050
X152195Y29083
X155243Y16383
X145464Y11049
X154989Y14351
X140536Y13716
X140384Y8001
X138987Y3302
X138733Y11684
X127938Y10795
X129970Y17780
X130097Y16129
X125271Y13970
X126160Y6858
X124890Y5207
X120445Y22098
X144067Y40767
X143686Y38100
X146480Y39751
X147242Y41402
X148004Y31877
X140105Y33350
X133780Y28956
X130605Y24765
X127176Y15367
X133399Y26035
X145337Y19050
X133272Y14097
X121715Y30099
X121080Y37719
X121461Y28956
X126033Y32512
X126668Y34417
X121080Y42799
X121461Y84074
X130859Y90805
X120445Y82169
X122731Y84074
X130148Y84150
X137844Y80391
X154735Y79375
X146683Y81458
X150163Y79883
X150290Y74168
X150925Y85979
X148893Y87630
X155878Y89662
X154481Y84201
X136320Y92710
X153885Y96482
X149020Y94996
X120191Y27686
X116889Y30099
X120445Y20320
X120445Y21209
X120445Y22987
X120445Y23876
X142060Y92773
X145870Y92773
X151497Y86868
X142441Y92075
X143203Y92075
X143965Y92075
X144727Y92075
X145489Y92075
X146251Y92075
X146632Y92799
X144385Y94488
X145909Y96583
X142480Y95377
X142035Y96012
X142543Y96596
X145909Y95059
X145401Y94488
X144918Y95059
X149020Y91821
X149020Y91059
X154481Y92075
X149782Y94234
X151585Y94653
X151687Y92011
X155243Y96520
X155815Y93408
X126668Y84455
X150290Y89789
X155341Y28973
X145401Y24320
X151370Y21717
X146544Y12700
X139749Y26543
X146480Y50952
X146226Y54864
X148004Y54864
X145896Y58903
X144956Y59563
X144321Y54864
X147166Y64516
X147242Y74422
X145083Y74676
X144448Y67818
X145083Y76073
X150163Y77343
X148004Y77216
X142924Y78105
X130173Y82575
X137717Y95453
X138479Y95428
X139241Y95504
X119048Y14986
X128446Y84836
X130148Y83363
X154354Y42291
X153973Y29083
X134466Y11811
X148893Y41529
X151687Y81026
X146861Y86233
X150036Y86741
X117778Y99187
X117270Y96520
X117143Y95758
X117016Y94996
X116889Y94234
X116889Y93472
X116889Y92710
X151306Y99695
X120926Y5831
X120445Y11049
X125652Y15113
X120191Y16002
X117651Y20193
X146353Y16864
X146480Y7747
X148004Y4953
X134034Y37846
X127938Y9652
X126287Y5461
X135177Y3175
X144583Y47914
X142594Y50495
X142273Y48389
X144783Y46509
X142284Y44306
X149782Y94996
X153211Y97155
X149020Y93345
X149020Y92583
X126631Y88274
X124931Y86574
X124131Y86574
X123331Y86574
X122431Y86574
X122731Y90374
X125631Y90374
X148941Y29673
X145641Y29573
X144550Y50673
X154710Y58014
X145185Y21565
X140232Y31979
X139673Y90297
X144067Y89662
X149299Y96876
X148766Y60833
X146607Y98425
X149655Y62992
X147877Y97917
X144194Y98527
X145791Y89943
X140130Y94488
X133463Y90868
X139622Y43434
X145718Y43434
X145056Y40640
X145056Y35206
X146353Y32004
X139622Y34417
X121969Y14605
X120953Y13208
X151814Y90868
X143559Y14859
X134567Y12776
X132129Y15113
X129970Y15113
X141781Y40132
X152538Y44323
X153886Y32218
X127176Y16891
X138225Y20066
X121709Y6530
X134962Y76327
X155497Y35687
X152551Y99466
X155191Y59641
X155167Y50019
X141527Y49069
X140384Y80645
X134161Y81407
X138987Y27686
X146172Y27859
X150290Y88392
X155393Y36604
X155370Y40259
X154735Y98402
X154735Y99794
X154481Y37239
X154481Y40993
X130630Y53214
X138428Y52832
X135631Y53772
X143837Y51883
X147115Y56007
X140790Y49806
X140092Y42561
X140892Y37592
X141679Y56007
X130275Y46304
X126109Y42520
X127963Y34442
X32004Y203502
X889Y203883
X1778Y203883
X2540Y203883
X3302Y203883
X4064Y203883
X4826Y203883
X4826Y204645
X9398Y204137
X14453Y205839
X14605Y212011
X12509Y210360
X11684Y209598
X13716Y211630
X10668Y201089
X10668Y200327
X24193Y199247
X24574Y202867
X25705Y196136
X24892Y196136
X28321Y196009
X28448Y193850
X25527Y193850
X25654Y192072
X23749Y193088
X22111Y202892
X25971Y201406
X19939Y202994
X20320Y206931
X21209Y206931
X22098Y206931
X27940Y206804
X28702Y206804
X29591Y206804
X30353Y206804
X26543Y211503
X32258Y213154
X33020Y218234
X20955Y219631
X29108Y216773
X28346Y216773
X27584Y216773
X26822Y216773
X27305Y220583
X27178Y219758
X29083Y220583
X29083Y219821
X29908Y219821
X25527Y224330
X27051Y224330
X26289Y224330
X37592Y224203
X34671Y224203
X33909Y224203
X33147Y224203
X32385Y224203
X31623Y224203
X30861Y224203
X30099Y224203
X29337Y224203
X28575Y224203
X27813Y224330
X24765Y224330
X19558Y224203
X18796Y224203
X18034Y224203
X17272Y224203
X16510Y224203
X15748Y224203
X14986Y224203
X14224Y224203
X13462Y224203
X12700Y224203
X11938Y224203
X11176Y224203
X10414Y224203
X9652Y224203
X8890Y224203
X8128Y224203
X7366Y224203
X6604Y224203
X5842Y224203
X5080Y224203
X4318Y224203
X3556Y224203
X2794Y224203
X2032Y224076
X20320Y220139
X23876Y209598
X16764Y209725
X16256Y208963
X15748Y214805
X17399Y218742
X34290Y196263
X38735Y196136
X38862Y188008
X36068Y178864
X33782Y180007
X27178Y181023
X32258Y174419
X34544Y174292
X38381Y177994
X26289Y178864
X26162Y182166
X28448Y185214
X28448Y188262
X25527Y194612
X25654Y187754
X25654Y190040
X889Y167561
X15113Y150035
X10846Y161846
X14986Y156131
X14605Y146987
X23876Y153083
X22352Y153083
X23749Y144447
X16764Y140129
X29083Y146987
X27432Y146987
X29891Y138532
X36068Y147114
X38862Y146098
X37592Y150289
X5410Y164284
X889Y164005
X889Y156004
X2286Y145717
X16764Y135811
X8763Y127048
X18161Y126540
X21463Y128699
X21590Y126540
X33528Y125651
X36449Y129842
X29945Y162327
X33223Y154988
X35814Y164386
X25908Y161287
X25527Y159433
X21463Y160576
X12954Y161643
X18669Y163370
X10414Y163370
X17907Y165275
X18161Y167180
X26772Y163497
X26797Y164767
X38989Y167688
X39116Y172514
X35687Y172387
X35814Y165910
X37211Y164386
X39116Y157147
X20828Y144701
X17018Y143177
X11303Y142034
X16891Y146733
X11430Y148511
X10541Y147114
X10668Y152702
X1424Y149808
X8611Y166697
X33147Y137970
X27432Y143050
X36195Y153083
X39243Y140383
X29464Y135049
X38989Y138351
X24536Y137716
X24384Y132001
X22987Y127302
X22733Y135684
X11938Y134795
X13970Y141780
X14097Y140129
X9271Y137970
X10160Y130858
X8890Y129207
X4445Y146098
X28067Y164767
X27686Y162100
X30480Y163751
X31242Y165402
X32004Y155877
X24105Y157350
X17780Y152956
X14605Y148765
X11176Y139367
X17399Y150035
X29337Y143050
X17272Y138097
X5715Y154099
X5080Y161719
X5461Y152956
X10033Y156512
X10668Y158417
X5080Y166799
X5461Y208074
X14859Y214805
X4445Y206169
X6731Y208074
X14148Y208150
X21844Y204391
X38735Y203375
X30683Y205458
X34163Y203883
X34290Y198168
X34925Y209979
X32893Y211630
X39878Y213662
X38481Y208201
X20320Y216710
X37885Y220482
X33020Y218996
X4191Y151686
X889Y154099
X4445Y144320
X4445Y145209
X4445Y146987
X4445Y147876
X26060Y216773
X29870Y216773
X35497Y210868
X26441Y216075
X27203Y216075
X27965Y216075
X28727Y216075
X29489Y216075
X30251Y216075
X30632Y216799
X28384Y218488
X29908Y220583
X26479Y219377
X26035Y220012
X26543Y220596
X29908Y219059
X29400Y218488
X28918Y219059
X33020Y215821
X33020Y215059
X38481Y216075
X33782Y218234
X35585Y218653
X35687Y216011
X39243Y220520
X39815Y217408
X10668Y208455
X34290Y213789
X39341Y152974
X29400Y148321
X35370Y145717
X30543Y136700
X23749Y150543
X30480Y174952
X30226Y178864
X32004Y178864
X29896Y182903
X28956Y183563
X28321Y178864
X31166Y188516
X31242Y198422
X29083Y198676
X28448Y191818
X29083Y200073
X34163Y201343
X32004Y201216
X26924Y202105
X14173Y206575
X21717Y219453
X22479Y219428
X23241Y219504
X3048Y138986
X12446Y208836
X14148Y207363
X38354Y166291
X37973Y153083
X18466Y135811
X32893Y165529
X35687Y205026
X30861Y210233
X34036Y210741
X1778Y223187
X1270Y220520
X1143Y219758
X1016Y218996
X889Y218234
X889Y217472
X889Y216710
X35306Y223695
X4926Y129831
X4445Y135049
X9652Y139113
X4191Y140002
X1651Y144193
X30353Y140864
X30480Y131747
X32004Y128953
X18034Y161846
X11938Y133652
X10287Y129461
X19177Y127175
X28583Y171914
X26594Y174495
X26273Y172389
X28783Y170509
X26284Y168306
X33782Y218996
X37211Y221155
X33020Y217345
X33020Y216583
X10631Y212274
X8931Y210574
X8131Y210574
X7331Y210574
X6431Y210574
X6731Y214374
X9631Y214374
X32941Y153674
X29640Y153574
X28550Y174673
X38710Y182014
X29185Y145565
X24232Y155979
X23673Y214297
X28067Y213662
X33299Y220876
X32766Y184833
X30607Y222425
X33655Y186992
X31877Y221917
X28194Y222527
X29791Y213943
X24130Y218488
X17463Y214868
X23622Y167434
X29718Y167434
X29056Y164640
X29056Y159206
X30353Y156004
X23622Y158417
X5969Y138605
X4953Y137208
X35814Y214868
X27559Y138859
X18567Y136776
X16129Y139113
X13970Y139113
X25781Y164132
X36538Y168323
X37886Y156218
X11176Y140891
X22225Y144066
X5709Y130530
X18962Y200327
X39497Y159687
X36551Y223466
X39191Y183641
X39167Y174019
X25527Y173069
X24384Y204645
X18161Y205407
X22987Y151686
X30172Y151859
X34290Y212392
X39393Y160604
X39370Y164259
X38735Y222402
X38735Y223794
X38481Y161239
X38481Y164993
X14630Y177214
X22428Y176832
X19631Y177772
X27837Y175883
X31115Y180007
X24790Y173806
X24092Y166561
X24892Y161592
X25679Y180007
X14275Y170304
X10109Y166520
X11963Y158442
X90004Y203502
X58889Y203883
X59778Y203883
X60540Y203883
X61302Y203883
X62064Y203883
X62826Y203883
X62826Y204645
X67398Y204137
X72453Y205839
X72605Y212011
X70510Y210360
X69684Y209598
X71716Y211630
X68668Y201089
X68668Y200327
X82194Y199247
X82575Y202867
X83705Y196136
X82892Y196136
X86321Y196009
X86448Y193850
X83527Y193850
X83654Y192072
X81749Y193088
X80111Y202892
X83972Y201406
X77939Y202994
X78320Y206931
X79209Y206931
X80098Y206931
X85940Y206804
X86702Y206804
X87591Y206804
X88353Y206804
X84543Y211503
X90258Y213154
X91020Y218234
X78955Y219631
X87108Y216773
X86346Y216773
X85584Y216773
X84822Y216773
X85305Y220583
X85178Y219758
X87083Y220583
X87083Y219821
X87908Y219821
X83527Y224330
X85051Y224330
X84289Y224330
X95592Y224203
X92671Y224203
X91909Y224203
X91147Y224203
X90385Y224203
X89623Y224203
X88861Y224203
X88099Y224203
X87337Y224203
X86575Y224203
X85813Y224330
X82765Y224330
X77558Y224203
X76796Y224203
X76034Y224203
X75272Y224203
X74510Y224203
X73748Y224203
X72986Y224203
X72224Y224203
X71462Y224203
X70700Y224203
X69938Y224203
X69176Y224203
X68414Y224203
X67652Y224203
X66890Y224203
X66128Y224203
X65366Y224203
X64604Y224203
X63842Y224203
X63080Y224203
X62318Y224203
X61556Y224203
X60794Y224203
X60032Y224076
X78320Y220139
X81876Y209598
X74764Y209725
X74256Y208963
X73748Y214805
X75399Y218742
X92290Y196263
X96735Y196136
X96862Y188008
X94068Y178864
X91782Y180007
X85178Y181023
X90258Y174419
X92544Y174292
X96381Y177994
X84289Y178864
X84162Y182166
X86448Y185214
X86448Y188262
X83527Y194612
X83654Y187754
X83654Y190040
X58889Y167561
X73113Y150035
X68846Y161846
X72986Y156131
X72605Y146987
X81876Y153083
X80352Y153083
X81749Y144447
X74764Y140129
X87083Y146987
X85432Y146987
X87891Y138532
X94068Y147114
X96862Y146098
X95592Y150289
X63410Y164284
X58889Y164005
X58889Y156004
X60286Y145717
X74764Y135811
X66763Y127048
X76161Y126540
X79463Y128699
X79590Y126540
X91528Y125651
X94449Y129842
X87945Y162327
X91223Y154988
X93814Y164386
X83908Y161287
X83527Y159433
X79463Y160576
X70954Y161643
X76669Y163370
X68414Y163370
X75907Y165275
X76161Y167180
X84772Y163497
X84797Y164767
X96989Y167688
X97116Y172514
X93687Y172387
X93814Y165910
X95211Y164386
X97116Y157147
X78828Y144701
X75018Y143177
X69303Y142034
X74891Y146733
X69430Y148511
X68541Y147114
X68668Y152702
X59424Y149808
X66611Y166697
X91147Y137970
X85432Y143050
X94195Y153083
X97243Y140383
X87464Y135049
X96989Y138351
X82536Y137716
X82384Y132001
X80987Y127302
X80733Y135684
X69938Y134795
X71970Y141780
X72097Y140129
X67271Y137970
X68160Y130858
X66890Y129207
X62445Y146098
X86067Y164767
X85686Y162100
X88480Y163751
X89242Y165402
X90004Y155877
X82105Y157350
X75780Y152956
X72605Y148765
X69176Y139367
X75399Y150035
X87337Y143050
X75272Y138097
X63715Y154099
X63080Y161719
X63461Y152956
X68033Y156512
X68668Y158417
X63080Y166799
X63461Y208074
X72859Y214805
X62445Y206169
X64731Y208074
X72148Y208150
X79844Y204391
X96735Y203375
X88683Y205458
X92163Y203883
X92290Y198168
X92925Y209979
X90893Y211630
X97878Y213662
X96481Y208201
X78320Y216710
X95885Y220482
X91020Y218996
X62191Y151686
X58889Y154099
X62445Y144320
X62445Y145209
X62445Y146987
X62445Y147876
X84060Y216773
X87870Y216773
X93496Y210868
X84441Y216075
X85203Y216075
X85965Y216075
X86727Y216075
X87489Y216075
X88251Y216075
X88632Y216799
X86385Y218488
X87908Y220583
X84480Y219377
X84035Y220012
X84543Y220596
X87908Y219059
X87400Y218488
X86918Y219059
X91020Y215821
X91020Y215059
X96481Y216075
X91782Y218234
X93585Y218653
X93687Y216011
X97243Y220520
X97814Y217408
X68668Y208455
X92290Y213789
X97340Y152974
X87400Y148321
X93369Y145717
X88543Y136700
X81749Y150543
X88480Y174952
X88226Y178864
X90004Y178864
X87896Y182903
X86956Y183563
X86321Y178864
X89166Y188516
X89242Y198422
X87083Y198676
X86448Y191818
X87083Y200073
X92163Y201343
X90004Y201216
X84924Y202105
X72173Y206575
X79717Y219453
X80479Y219428
X81241Y219504
X61048Y138986
X70446Y208836
X72148Y207363
X96354Y166291
X95973Y153083
X76466Y135811
X90893Y165529
X93687Y205026
X88861Y210233
X92036Y210741
X59778Y223187
X59270Y220520
X59143Y219758
X59016Y218996
X58889Y218234
X58889Y217472
X58889Y216710
X93306Y223695
X62926Y129831
X62445Y135049
X67652Y139113
X62191Y140002
X59651Y144193
X88353Y140864
X88480Y131747
X90004Y128953
X76034Y161846
X69938Y133652
X68287Y129461
X86583Y171914
X84594Y174495
X84273Y172389
X86783Y170509
X84284Y168306
X91782Y218996
X95211Y221155
X91020Y217345
X91020Y216583
X68631Y212274
X66931Y210574
X66131Y210574
X65331Y210574
X64431Y210574
X64731Y214374
X67631Y214374
X90940Y153674
X87640Y153574
X86550Y174673
X96710Y182014
X87185Y145565
X82232Y155979
X81673Y214297
X86067Y213662
X91299Y220876
X90766Y184833
X88607Y222425
X91655Y186992
X89877Y221917
X86194Y222527
X87791Y213943
X82130Y218488
X75463Y214868
X81622Y167434
X87718Y167434
X87056Y164640
X87056Y159206
X88353Y156004
X81622Y158417
X63969Y138605
X62953Y137208
X93814Y214868
X85559Y138859
X76567Y136776
X74129Y139113
X71970Y139113
X83781Y164132
X94538Y168323
X95886Y156218
X69176Y140891
X80225Y144066
X63709Y130530
X76962Y200327
X97497Y159687
X94551Y223466
X97191Y183641
X97167Y174019
X83527Y173069
X82384Y204645
X76161Y205407
X80987Y151686
X88172Y151859
X92290Y212392
X97393Y160604
X97370Y164259
X96735Y222402
X96735Y223794
X96481Y161239
X96481Y164993
X72630Y177214
X80428Y176832
X77631Y177772
X85837Y175883
X89115Y180007
X82790Y173806
X82092Y166561
X82892Y161592
X83679Y180007
X72275Y170304
X68109Y166520
X69963Y158442
X148004Y203502
X116889Y203883
X117778Y203883
X118540Y203883
X119302Y203883
X120064Y203883
X120826Y203883
X120826Y204645
X125398Y204137
X130453Y205839
X130605Y212011
X128509Y210360
X127684Y209598
X129716Y211630
X126668Y201089
X126668Y200327
X140194Y199247
X140575Y202867
X141705Y196136
X140892Y196136
X144321Y196009
X144448Y193850
X141527Y193850
X141654Y192072
X139749Y193088
X138111Y202892
X141972Y201406
X135939Y202994
X136320Y206931
X137209Y206931
X138098Y206931
X143940Y206804
X144702Y206804
X145591Y206804
X146353Y206804
X142543Y211503
X148258Y213154
X149020Y218234
X136955Y219631
X145108Y216773
X144346Y216773
X143584Y216773
X142822Y216773
X143305Y220583
X143178Y219758
X145083Y220583
X145083Y219821
X145909Y219821
X141527Y224330
X143051Y224330
X142289Y224330
X153592Y224203
X150671Y224203
X149909Y224203
X149147Y224203
X148385Y224203
X147623Y224203
X146861Y224203
X146099Y224203
X145337Y224203
X144575Y224203
X143813Y224330
X140765Y224330
X135558Y224203
X134796Y224203
X134034Y224203
X133272Y224203
X132510Y224203
X131748Y224203
X130986Y224203
X130224Y224203
X129462Y224203
X128700Y224203
X127938Y224203
X127176Y224203
X126414Y224203
X125652Y224203
X124890Y224203
X124128Y224203
X123366Y224203
X122604Y224203
X121842Y224203
X121080Y224203
X120318Y224203
X119556Y224203
X118794Y224203
X118032Y224076
X136320Y220139
X139876Y209598
X132764Y209725
X132256Y208963
X131748Y214805
X133399Y218742
X150290Y196263
X154735Y196136
X154862Y188008
X152068Y178864
X149782Y180007
X143178Y181023
X148258Y174419
X150544Y174292
X154381Y177994
X142289Y178864
X142162Y182166
X144448Y185214
X144448Y188262
X141527Y194612
X141654Y187754
X141654Y190040
X116889Y167561
X131113Y150035
X126846Y161846
X130986Y156131
X130605Y146987
X139876Y153083
X138352Y153083
X139749Y144447
X132764Y140129
X145083Y146987
X143432Y146987
X145891Y138532
X152068Y147114
X154862Y146098
X153592Y150289
X121410Y164284
X116889Y164005
X116889Y156004
X118286Y145717
X132764Y135811
X124763Y127048
X134161Y126540
X137463Y128699
X137590Y126540
X149528Y125651
X152449Y129842
X145945Y162327
X149223Y154988
X151814Y164386
X141908Y161287
X141527Y159433
X137463Y160576
X128954Y161643
X134669Y163370
X126414Y163370
X133907Y165275
X134161Y167180
X142772Y163497
X142797Y164767
X154989Y167688
X155116Y172514
X151687Y172387
X151814Y165910
X153211Y164386
X155116Y157147
X136828Y144701
X133018Y143177
X127303Y142034
X132891Y146733
X127430Y148511
X126541Y147114
X126668Y152702
X117424Y149808
X124611Y166697
X149147Y137970
X143432Y143050
X152195Y153083
X155243Y140383
X145464Y135049
X154989Y138351
X140536Y137716
X140384Y132001
X138987Y127302
X138733Y135684
X127938Y134795
X129970Y141780
X130097Y140129
X125271Y137970
X126160Y130858
X124890Y129207
X120445Y146098
X144067Y164767
X143686Y162100
X146480Y163751
X147242Y165402
X148004Y155877
X140105Y157350
X133780Y152956
X130605Y148765
X127176Y139367
X133399Y150035
X145337Y143050
X133272Y138097
X121715Y154099
X121080Y161719
X121461Y152956
X126033Y156512
X126668Y158417
X121080Y166799
X121461Y208074
X130859Y214805
X120445Y206169
X122731Y208074
X130148Y208150
X137844Y204391
X77177Y127175
X146683Y205458
X150163Y203883
X150290Y198168
X150925Y209979
X148893Y211630
X155878Y213662
X154481Y208201
X136320Y216710
X153885Y220482
X149020Y218996
X120191Y151686
X116889Y154099
X120445Y144320
X120445Y145209
X120445Y146987
X120445Y147876
X142060Y216773
X145870Y216773
X151497Y210868
X142441Y216075
X143203Y216075
X143965Y216075
X144727Y216075
X145489Y216075
X146251Y216075
X146632Y216799
X144385Y218488
X145909Y220583
X142480Y219377
X142035Y220012
X142543Y220596
X145909Y219059
X145401Y218488
X144918Y219059
X149020Y215821
X149020Y215059
X154481Y216075
X149782Y218234
X151585Y218653
X151687Y216011
X155243Y220520
X155815Y217408
X126668Y208455
X150290Y213789
X155341Y152974
X145401Y148321
X151370Y145717
X146544Y136700
X139749Y150543
X146480Y174952
X146226Y178864
X148004Y178864
X145896Y182903
X144956Y183563
X144321Y178864
X147166Y188516
X147242Y198422
X145083Y198676
X144448Y191818
X145083Y200073
X150163Y201343
X148004Y201216
X142924Y202105
X130173Y206575
X137717Y219453
X138479Y219428
X139241Y219504
X119048Y138986
X128446Y208836
X130148Y207363
X154354Y166291
X153973Y153083
X134466Y135811
X148893Y165529
X151687Y205026
X146861Y210233
X150036Y210741
X117778Y223187
X117270Y220520
X117143Y219758
X117016Y218996
X116889Y218234
X116889Y217472
X116889Y216710
X151306Y223695
X120926Y129831
X120445Y135049
X125652Y139113
X120191Y140002
X117651Y144193
X146353Y140864
X146480Y131747
X148004Y128953
X134034Y161846
X127938Y133652
X126287Y129461
X135177Y127175
X144583Y171914
X142594Y174495
X142273Y172389
X144783Y170509
X142284Y168306
X149782Y218996
X153211Y221155
X149020Y217345
X149020Y216583
X126631Y212274
X124931Y210574
X124131Y210574
X123331Y210574
X122431Y210574
X122731Y214374
X125631Y214374
X148941Y153674
X145641Y153574
X144550Y174673
T9
X25019Y90297
X21209Y91313
X25416Y43761
X26213Y38202
X7239Y33528
X20574Y31369
X35560Y33528
X33274Y44323
X20701Y28448
X35560Y30353
X8763Y25908
X20066Y23749
X33528Y25019
X21082Y48133
X20955Y41910
X16664Y23749
X23647Y22225
X33655Y22225
X7620Y17145
X19812Y16383
X32893Y18288
X13589Y41148
X8849Y41275
X3556Y19558
X23800Y18288
X30099Y18288
X8255Y9271
X20574Y7493
X33274Y9144
X29464Y6985
X25146Y6985
X6350Y46101
X4064Y43815
X21971Y39116
X9398Y37719
X26924Y35179
X25908Y5588
X25400Y5334
X25400Y31115
X30913Y30861
X17907Y78613
X10668Y78994
X29487Y32258
X24481Y30449
X24130Y92710
X34544Y39497
X27432Y36830
X28067Y36124
X35433Y39497
X23774Y100482
X26035Y29083
X30607Y35687
X20193Y41275
X16002Y18923
X15113Y17653
X19177Y37846
X20701Y98679
X83019Y90297
X79209Y91313
X83416Y43761
X84213Y38202
X65239Y33528
X78574Y31369
X79082Y172133
X78955Y165910
X74664Y147749
X81647Y146225
X91655Y146225
X65620Y141145
X77812Y140383
X90893Y142288
X71589Y165148
X66849Y165275
X61556Y143558
X81800Y142288
X88099Y142288
X25400Y129334
X35560Y157528
X66255Y133271
X78574Y131493
X91274Y133144
X87464Y130985
X83146Y130985
X64350Y170101
X62064Y167815
X33274Y168323
X79971Y163116
X67398Y161719
X84924Y159179
X83908Y129588
X83400Y129334
X20701Y152448
X35560Y154353
X25416Y167761
X25019Y214297
X21209Y215313
X136701Y98679
X8763Y149908
X20066Y147749
X33528Y149019
X25400Y155115
X83400Y155115
X88913Y154861
X75907Y202613
X68668Y202994
X87487Y156258
X82481Y154449
X82130Y216710
X30913Y154861
X17907Y202613
X10668Y202994
X92544Y163497
X85432Y160830
X29487Y156258
X24481Y154449
X86067Y160124
X93433Y163497
X81774Y224482
X24130Y216710
X141019Y214297
X137209Y215313
X21082Y172133
X20955Y165910
X16664Y147749
X34544Y163497
X27432Y160830
X84035Y153083
X88607Y159687
X78193Y165275
X74002Y142923
X73113Y141653
X77177Y161846
X23647Y146225
X33655Y146225
X28067Y160124
X35433Y163497
X78701Y222679
X23774Y224482
X7620Y141145
X141416Y167761
X19812Y140383
X32893Y142288
X83019Y214297
X79209Y215313
X13589Y165148
X142213Y162202
X123239Y157528
X136574Y155369
X151560Y157528
X149274Y168323
X136701Y152448
X151560Y154353
X8849Y165275
X3556Y143558
X26035Y153083
X124763Y149908
X136066Y147749
X149528Y149019
X137082Y172133
X136955Y165910
X132664Y147749
X139647Y146225
X149655Y146225
X123620Y141145
X135812Y140383
X148893Y142288
X129589Y165148
X124849Y165275
X119556Y143558
X139800Y142288
X146099Y142288
X30607Y159687
X20193Y165275
X124255Y133271
X136574Y131493
X149274Y133144
X145464Y130985
X141146Y130985
X122350Y170101
X120064Y167815
X16002Y142923
X137971Y163116
X125398Y161719
X142924Y159179
X141908Y129588
X141400Y129334
X15113Y141653
X19177Y161846
X23800Y142288
X30099Y142288
X26213Y162202
X7239Y157528
X20701Y222679
X8255Y133271
X20574Y131493
X33274Y133144
X141400Y155115
X146913Y154861
X133907Y202613
X126668Y202994
X145487Y156258
X140481Y154449
X140130Y216710
X29464Y130985
X83416Y167761
X25146Y130985
X150544Y163497
X143432Y160830
X6350Y170101
X4064Y167815
X144067Y160124
X151433Y163497
X139774Y224482
X20574Y155369
X21971Y163116
X84213Y162202
X65239Y157528
X78574Y155369
X93560Y157528
X142035Y153083
X146607Y159687
X136193Y165275
X132002Y142923
X131113Y141653
X135177Y161846
X91274Y168323
X78701Y152448
X93560Y154353
X9398Y161719
X136701Y222679
X26924Y159179
X25908Y129588
X66763Y149908
X78066Y147749
X135177Y37846
X131113Y17653
X132002Y18923
X136193Y41275
X146607Y35687
X142035Y29083
X139774Y100482
X151433Y39497
X144067Y36124
X143432Y36830
X150544Y39497
X140130Y92710
X140481Y30449
X145487Y32258
X126668Y78994
X133907Y78613
X146913Y30861
X141400Y31115
X141400Y5334
X141908Y5588
X142924Y35179
X125398Y37719
X137971Y39116
X120064Y43815
X122350Y46101
X141146Y6985
X145464Y6985
X149274Y9144
X136574Y7493
X124255Y9271
X146099Y18288
X139800Y18288
X119556Y19558
X124849Y41275
X129589Y41148
X148893Y18288
X135812Y16383
X123620Y17145
X149655Y22225
X139647Y22225
X132664Y23749
X136955Y41910
X137082Y48133
X149528Y25019
X136066Y23749
X124763Y25908
X151560Y30353
X136701Y28448
X149274Y44323
X151560Y33528
X136574Y31369
X123239Y33528
X142213Y38202
X141416Y43761
X137209Y91313
X141019Y90297
X78701Y98679
X77177Y37846
X73113Y17653
X74002Y18923
X78193Y41275
X88607Y35687
X84035Y29083
X81774Y100482
X93433Y39497
X86067Y36124
X85432Y36830
X92544Y39497
X82130Y92710
X82481Y30449
X87487Y32258
X68668Y78994
X75907Y78613
X88913Y30861
X83400Y31115
X83400Y5334
X83908Y5588
X84924Y35179
X67398Y37719
X79971Y39116
X62064Y43815
X64350Y46101
X83146Y6985
X87464Y6985
X91274Y9144
X78574Y7493
X66255Y9271
X88099Y18288
X81800Y18288
X61556Y19558
X66849Y41275
X71589Y41148
X90893Y18288
X77812Y16383
X65620Y17145
X91655Y22225
X81647Y22225
X74664Y23749
X78955Y41910
X79082Y48133
X91528Y25019
X78066Y23749
X66763Y25908
X93560Y30353
X78701Y28448
X91274Y44323
X93560Y33528
X91528Y149019
M30