G04 EAGLE Gerber X2 export*
%TF.Part,Single*%
%TF.FileFunction,Legend,Bot,1*%
%TF.FilePolarity,Positive*%
%TF.GenerationSoftware,Autodesk,EAGLE,8.7.0*%
%TF.CreationDate,2018-07-10T16:53:39Z*%
G75*
%MOMM*%
%FSLAX34Y34*%
%LPD*%
%AMOC8*
5,1,8,0,0,1.08239X$1,22.5*%
G01*
%ADD10C,0.127000*%
%ADD11C,0.250000*%


D10*
X346350Y1004590D02*
X335965Y1004590D01*
X325965Y1004590D02*
X315581Y1004590D01*
X305581Y1004590D02*
X295196Y1004590D01*
X285196Y1004590D02*
X274812Y1004590D01*
X264812Y1004590D02*
X254427Y1004590D01*
X244427Y1004590D02*
X234042Y1004590D01*
X224042Y1004590D02*
X213658Y1004590D01*
X203658Y1004590D02*
X193273Y1004590D01*
X183273Y1004590D02*
X172888Y1004590D01*
X162888Y1004590D02*
X152504Y1004590D01*
X142504Y1004590D02*
X132119Y1004590D01*
X122119Y1004590D02*
X111735Y1004590D01*
X101735Y1004590D02*
X91350Y1004590D01*
D11*
X90950Y1051590D02*
X90950Y1073690D01*
X80950Y1073690D02*
X80950Y1061590D01*
X100950Y1061590D02*
X100950Y1073690D01*
X110950Y1073690D02*
X110950Y1061590D01*
X120950Y1061590D02*
X120950Y1073690D01*
X70950Y1073690D02*
X70950Y1061590D01*
D10*
X915965Y1004590D02*
X926350Y1004590D01*
X905965Y1004590D02*
X895581Y1004590D01*
X885581Y1004590D02*
X875196Y1004590D01*
X865196Y1004590D02*
X854812Y1004590D01*
X844812Y1004590D02*
X834427Y1004590D01*
X824427Y1004590D02*
X814042Y1004590D01*
X804042Y1004590D02*
X793658Y1004590D01*
X783658Y1004590D02*
X773273Y1004590D01*
X763273Y1004590D02*
X752888Y1004590D01*
X742888Y1004590D02*
X732504Y1004590D01*
X722504Y1004590D02*
X712119Y1004590D01*
X702119Y1004590D02*
X691735Y1004590D01*
X681735Y1004590D02*
X671350Y1004590D01*
D11*
X670950Y1051590D02*
X670950Y1073690D01*
X660950Y1073690D02*
X660950Y1061590D01*
X680950Y1061590D02*
X680950Y1073690D01*
X690950Y1073690D02*
X690950Y1061590D01*
X700950Y1061590D02*
X700950Y1073690D01*
X650950Y1073690D02*
X650950Y1061590D01*
D10*
X1495965Y1004590D02*
X1506350Y1004590D01*
X1485965Y1004590D02*
X1475581Y1004590D01*
X1465581Y1004590D02*
X1455196Y1004590D01*
X1445196Y1004590D02*
X1434812Y1004590D01*
X1424812Y1004590D02*
X1414427Y1004590D01*
X1404427Y1004590D02*
X1394042Y1004590D01*
X1384042Y1004590D02*
X1373658Y1004590D01*
X1363658Y1004590D02*
X1353273Y1004590D01*
X1343273Y1004590D02*
X1332888Y1004590D01*
X1322888Y1004590D02*
X1312504Y1004590D01*
X1302504Y1004590D02*
X1292119Y1004590D01*
X1282119Y1004590D02*
X1271735Y1004590D01*
X1261735Y1004590D02*
X1251350Y1004590D01*
D11*
X1250950Y1051590D02*
X1250950Y1073690D01*
X1240950Y1073690D02*
X1240950Y1061590D01*
X1260950Y1061590D02*
X1260950Y1073690D01*
X1270950Y1073690D02*
X1270950Y1061590D01*
X1280950Y1061590D02*
X1280950Y1073690D01*
X1230950Y1073690D02*
X1230950Y1061590D01*
D10*
X346350Y2244590D02*
X335965Y2244590D01*
X325965Y2244590D02*
X315581Y2244590D01*
X305581Y2244590D02*
X295196Y2244590D01*
X285196Y2244590D02*
X274812Y2244590D01*
X264812Y2244590D02*
X254427Y2244590D01*
X244427Y2244590D02*
X234042Y2244590D01*
X224042Y2244590D02*
X213658Y2244590D01*
X203658Y2244590D02*
X193273Y2244590D01*
X183273Y2244590D02*
X172888Y2244590D01*
X162888Y2244590D02*
X152504Y2244590D01*
X142504Y2244590D02*
X132119Y2244590D01*
X122119Y2244590D02*
X111735Y2244590D01*
X101735Y2244590D02*
X91350Y2244590D01*
D11*
X90950Y2291590D02*
X90950Y2313690D01*
X80950Y2313690D02*
X80950Y2301590D01*
X100950Y2301590D02*
X100950Y2313690D01*
X110950Y2313690D02*
X110950Y2301590D01*
X120950Y2301590D02*
X120950Y2313690D01*
X70950Y2313690D02*
X70950Y2301590D01*
D10*
X915965Y2244590D02*
X926350Y2244590D01*
X905965Y2244590D02*
X895581Y2244590D01*
X885581Y2244590D02*
X875196Y2244590D01*
X865196Y2244590D02*
X854812Y2244590D01*
X844812Y2244590D02*
X834427Y2244590D01*
X824427Y2244590D02*
X814042Y2244590D01*
X804042Y2244590D02*
X793658Y2244590D01*
X783658Y2244590D02*
X773273Y2244590D01*
X763273Y2244590D02*
X752888Y2244590D01*
X742888Y2244590D02*
X732504Y2244590D01*
X722504Y2244590D02*
X712119Y2244590D01*
X702119Y2244590D02*
X691735Y2244590D01*
X681735Y2244590D02*
X671350Y2244590D01*
D11*
X670950Y2291590D02*
X670950Y2313690D01*
X660950Y2313690D02*
X660950Y2301590D01*
X680950Y2301590D02*
X680950Y2313690D01*
X690950Y2313690D02*
X690950Y2301590D01*
X700950Y2301590D02*
X700950Y2313690D01*
X650950Y2313690D02*
X650950Y2301590D01*
D10*
X1495965Y2244590D02*
X1506350Y2244590D01*
X1485965Y2244590D02*
X1475581Y2244590D01*
X1465581Y2244590D02*
X1455196Y2244590D01*
X1445196Y2244590D02*
X1434812Y2244590D01*
X1424812Y2244590D02*
X1414427Y2244590D01*
X1404427Y2244590D02*
X1394042Y2244590D01*
X1384042Y2244590D02*
X1373658Y2244590D01*
X1363658Y2244590D02*
X1353273Y2244590D01*
X1343273Y2244590D02*
X1332888Y2244590D01*
X1322888Y2244590D02*
X1312504Y2244590D01*
X1302504Y2244590D02*
X1292119Y2244590D01*
X1282119Y2244590D02*
X1271735Y2244590D01*
X1261735Y2244590D02*
X1251350Y2244590D01*
D11*
X1250950Y2291590D02*
X1250950Y2313690D01*
X1240950Y2313690D02*
X1240950Y2301590D01*
X1260950Y2301590D02*
X1260950Y2313690D01*
X1270950Y2313690D02*
X1270950Y2301590D01*
X1280950Y2301590D02*
X1280950Y2313690D01*
X1230950Y2313690D02*
X1230950Y2301590D01*
M02*
