G04 EAGLE Gerber X2 export*
%TF.Part,Single*%
%TF.FileFunction,Paste,Top*%
%TF.FilePolarity,Positive*%
%TF.GenerationSoftware,Autodesk,EAGLE,8.7.0*%
%TF.CreationDate,2018-07-10T16:53:39Z*%
G75*
%MOMM*%
%FSLAX34Y34*%
%LPD*%
%AMOC8*
5,1,8,0,0,1.08239X$1,22.5*%
G01*
%ADD10C,0.222250*%
%ADD11R,2.150000X1.250000*%
%ADD12R,3.600000X1.200000*%
%ADD13R,0.279400X1.473200*%
%ADD14R,1.473200X0.279400*%
%ADD15R,1.016000X1.143000*%
%ADD16R,1.143000X1.016000*%
%ADD17R,0.550000X1.200000*%
%ADD18C,0.120000*%
%ADD19R,2.000000X2.000000*%
%ADD20R,1.100000X1.000000*%
%ADD21R,1.080000X1.050000*%
%ADD22R,1.000000X1.400000*%
%ADD23R,0.600000X1.550000*%
%ADD24R,1.200000X1.800000*%
%ADD25R,1.000000X1.100000*%
%ADD26R,1.270000X2.286000*%
%ADD27R,3.556000X2.159000*%
%ADD28R,1.143000X2.286000*%
%ADD29R,2.286000X1.143000*%
%ADD30R,1.397000X1.397000*%
%ADD31C,0.525000*%
%ADD32C,0.500000*%
%ADD33R,1.100000X1.900000*%
%ADD34R,0.350000X1.400000*%
%ADD35R,1.800000X1.900000*%
%ADD36R,1.900000X1.900000*%


D10*
X217964Y890746D02*
X211296Y890746D01*
X211296Y897414D01*
X217964Y897414D01*
X217964Y890746D01*
X217964Y892968D02*
X211296Y892968D01*
X211296Y895190D02*
X217964Y895190D01*
X217964Y897412D02*
X211296Y897412D01*
X226536Y890746D02*
X233204Y890746D01*
X226536Y890746D02*
X226536Y897414D01*
X233204Y897414D01*
X233204Y890746D01*
X233204Y892968D02*
X226536Y892968D01*
X226536Y895190D02*
X233204Y895190D01*
X233204Y897412D02*
X226536Y897412D01*
D11*
X301200Y1060610D03*
X301200Y1046150D03*
X249200Y1060610D03*
X249200Y1046150D03*
D12*
X363290Y570080D03*
X363290Y590080D03*
X213290Y570080D03*
X363290Y610080D03*
X363290Y630080D03*
X363290Y650080D03*
X363290Y670080D03*
X363290Y690080D03*
X363290Y710080D03*
X213290Y590080D03*
X213290Y610080D03*
X213290Y630080D03*
X213290Y650080D03*
X213290Y670080D03*
X213290Y690080D03*
X213290Y710080D03*
D13*
X304292Y420624D03*
X299466Y420624D03*
X294386Y420624D03*
X289306Y420624D03*
X284480Y420624D03*
X279400Y420624D03*
X274320Y420624D03*
X269240Y420624D03*
X264414Y420624D03*
X259334Y420624D03*
X254254Y420624D03*
X249428Y420624D03*
D14*
X234696Y405892D03*
X234696Y401066D03*
X234696Y395986D03*
X234696Y390906D03*
X234696Y386080D03*
X234696Y381000D03*
X234696Y375920D03*
X234696Y370840D03*
X234696Y366014D03*
X234696Y360934D03*
X234696Y355854D03*
X234696Y351028D03*
D13*
X249428Y336296D03*
X254254Y336296D03*
X259334Y336296D03*
X264414Y336296D03*
X269240Y336296D03*
X274320Y336296D03*
X279400Y336296D03*
X284480Y336296D03*
X289306Y336296D03*
X294386Y336296D03*
X299466Y336296D03*
X304292Y336296D03*
D14*
X319024Y351028D03*
X319024Y355854D03*
X319024Y360934D03*
X319024Y366014D03*
X319024Y370840D03*
X319024Y375920D03*
X319024Y381000D03*
X319024Y386080D03*
X319024Y390906D03*
X319024Y395986D03*
X319024Y401066D03*
X319024Y405892D03*
D10*
X281210Y88424D02*
X281210Y81756D01*
X274542Y81756D01*
X274542Y88424D01*
X281210Y88424D01*
X281210Y83978D02*
X274542Y83978D01*
X274542Y86200D02*
X281210Y86200D01*
X281210Y88422D02*
X274542Y88422D01*
X281210Y96996D02*
X281210Y103664D01*
X281210Y96996D02*
X274542Y96996D01*
X274542Y103664D01*
X281210Y103664D01*
X281210Y99218D02*
X274542Y99218D01*
X274542Y101440D02*
X281210Y101440D01*
X281210Y103662D02*
X274542Y103662D01*
X267240Y88424D02*
X267240Y81756D01*
X260572Y81756D01*
X260572Y88424D01*
X267240Y88424D01*
X267240Y83978D02*
X260572Y83978D01*
X260572Y86200D02*
X267240Y86200D01*
X267240Y88422D02*
X260572Y88422D01*
X267240Y96996D02*
X267240Y103664D01*
X267240Y96996D02*
X260572Y96996D01*
X260572Y103664D01*
X267240Y103664D01*
X267240Y99218D02*
X260572Y99218D01*
X260572Y101440D02*
X267240Y101440D01*
X267240Y103662D02*
X260572Y103662D01*
X277336Y304006D02*
X284004Y304006D01*
X277336Y304006D02*
X277336Y310674D01*
X284004Y310674D01*
X284004Y304006D01*
X284004Y306228D02*
X277336Y306228D01*
X277336Y308450D02*
X284004Y308450D01*
X284004Y310672D02*
X277336Y310672D01*
X292576Y304006D02*
X299244Y304006D01*
X292576Y304006D02*
X292576Y310674D01*
X299244Y310674D01*
X299244Y304006D01*
X299244Y306228D02*
X292576Y306228D01*
X292576Y308450D02*
X299244Y308450D01*
X299244Y310672D02*
X292576Y310672D01*
D15*
X316738Y219710D03*
X307848Y240030D03*
X325628Y240030D03*
D16*
X102870Y300990D03*
X123190Y309880D03*
X123190Y292100D03*
D17*
X208890Y801671D03*
X199390Y801671D03*
X189890Y801671D03*
X189890Y775669D03*
X208890Y775669D03*
D10*
X235680Y780574D02*
X242348Y780574D01*
X242348Y773906D01*
X235680Y773906D01*
X235680Y780574D01*
X235680Y776128D02*
X242348Y776128D01*
X242348Y778350D02*
X235680Y778350D01*
X235680Y780572D02*
X242348Y780572D01*
X227108Y780574D02*
X220440Y780574D01*
X227108Y780574D02*
X227108Y773906D01*
X220440Y773906D01*
X220440Y780574D01*
X220440Y776128D02*
X227108Y776128D01*
X227108Y778350D02*
X220440Y778350D01*
X220440Y780572D02*
X227108Y780572D01*
D15*
X160020Y805180D03*
X168910Y784860D03*
X151130Y784860D03*
D10*
X215106Y758984D02*
X221774Y758984D01*
X221774Y752316D01*
X215106Y752316D01*
X215106Y758984D01*
X215106Y754538D02*
X221774Y754538D01*
X221774Y756760D02*
X215106Y756760D01*
X215106Y758982D02*
X221774Y758982D01*
X206534Y758984D02*
X199866Y758984D01*
X206534Y758984D02*
X206534Y752316D01*
X199866Y752316D01*
X199866Y758984D01*
X199866Y754538D02*
X206534Y754538D01*
X206534Y756760D02*
X199866Y756760D01*
X199866Y758982D02*
X206534Y758982D01*
X132620Y757460D02*
X125952Y757460D01*
X132620Y757460D02*
X132620Y750792D01*
X125952Y750792D01*
X125952Y757460D01*
X125952Y753014D02*
X132620Y753014D01*
X132620Y755236D02*
X125952Y755236D01*
X125952Y757458D02*
X132620Y757458D01*
X117380Y757460D02*
X110712Y757460D01*
X117380Y757460D02*
X117380Y750792D01*
X110712Y750792D01*
X110712Y757460D01*
X110712Y753014D02*
X117380Y753014D01*
X117380Y755236D02*
X110712Y755236D01*
X110712Y757458D02*
X117380Y757458D01*
X132556Y805974D02*
X139224Y805974D01*
X139224Y799306D01*
X132556Y799306D01*
X132556Y805974D01*
X132556Y801528D02*
X139224Y801528D01*
X139224Y803750D02*
X132556Y803750D01*
X132556Y805972D02*
X139224Y805972D01*
X123984Y805974D02*
X117316Y805974D01*
X123984Y805974D02*
X123984Y799306D01*
X117316Y799306D01*
X117316Y805974D01*
X117316Y801528D02*
X123984Y801528D01*
X123984Y803750D02*
X117316Y803750D01*
X117316Y805972D02*
X123984Y805972D01*
X113506Y792004D02*
X113506Y785336D01*
X113506Y792004D02*
X120174Y792004D01*
X120174Y785336D01*
X113506Y785336D01*
X113506Y787558D02*
X120174Y787558D01*
X120174Y789780D02*
X113506Y789780D01*
X113506Y792002D02*
X120174Y792002D01*
X113506Y776764D02*
X113506Y770096D01*
X113506Y776764D02*
X120174Y776764D01*
X120174Y770096D01*
X113506Y770096D01*
X113506Y772318D02*
X120174Y772318D01*
X120174Y774540D02*
X113506Y774540D01*
X113506Y776762D02*
X120174Y776762D01*
X93186Y785336D02*
X93186Y792004D01*
X99854Y792004D01*
X99854Y785336D01*
X93186Y785336D01*
X93186Y787558D02*
X99854Y787558D01*
X99854Y789780D02*
X93186Y789780D01*
X93186Y792002D02*
X99854Y792002D01*
X93186Y776764D02*
X93186Y770096D01*
X93186Y776764D02*
X99854Y776764D01*
X99854Y770096D01*
X93186Y770096D01*
X93186Y772318D02*
X99854Y772318D01*
X99854Y774540D02*
X93186Y774540D01*
X93186Y776762D02*
X99854Y776762D01*
X83344Y804704D02*
X76676Y804704D01*
X83344Y804704D02*
X83344Y798036D01*
X76676Y798036D01*
X76676Y804704D01*
X76676Y800258D02*
X83344Y800258D01*
X83344Y802480D02*
X76676Y802480D01*
X76676Y804702D02*
X83344Y804702D01*
X68104Y804704D02*
X61436Y804704D01*
X68104Y804704D02*
X68104Y798036D01*
X61436Y798036D01*
X61436Y804704D01*
X61436Y800258D02*
X68104Y800258D01*
X68104Y802480D02*
X61436Y802480D01*
X61436Y804702D02*
X68104Y804702D01*
X170656Y890746D02*
X177324Y890746D01*
X170656Y890746D02*
X170656Y897414D01*
X177324Y897414D01*
X177324Y890746D01*
X177324Y892968D02*
X170656Y892968D01*
X170656Y895190D02*
X177324Y895190D01*
X177324Y897412D02*
X170656Y897412D01*
X185896Y890746D02*
X192564Y890746D01*
X185896Y890746D02*
X185896Y897414D01*
X192564Y897414D01*
X192564Y890746D01*
X192564Y892968D02*
X185896Y892968D01*
X185896Y895190D02*
X192564Y895190D01*
X192564Y897412D02*
X185896Y897412D01*
X272574Y739934D02*
X272574Y733266D01*
X265906Y733266D01*
X265906Y739934D01*
X272574Y739934D01*
X272574Y735488D02*
X265906Y735488D01*
X265906Y737710D02*
X272574Y737710D01*
X272574Y739932D02*
X265906Y739932D01*
X272574Y748506D02*
X272574Y755174D01*
X272574Y748506D02*
X265906Y748506D01*
X265906Y755174D01*
X272574Y755174D01*
X272574Y750728D02*
X265906Y750728D01*
X265906Y752950D02*
X272574Y752950D01*
X272574Y755172D02*
X265906Y755172D01*
X257334Y739934D02*
X257334Y733266D01*
X250666Y733266D01*
X250666Y739934D01*
X257334Y739934D01*
X257334Y735488D02*
X250666Y735488D01*
X250666Y737710D02*
X257334Y737710D01*
X257334Y739932D02*
X250666Y739932D01*
X257334Y748506D02*
X257334Y755174D01*
X257334Y748506D02*
X250666Y748506D01*
X250666Y755174D01*
X257334Y755174D01*
X257334Y750728D02*
X250666Y750728D01*
X250666Y752950D02*
X257334Y752950D01*
X257334Y755172D02*
X250666Y755172D01*
X319754Y442024D02*
X319754Y435356D01*
X313086Y435356D01*
X313086Y442024D01*
X319754Y442024D01*
X319754Y437578D02*
X313086Y437578D01*
X313086Y439800D02*
X319754Y439800D01*
X319754Y442022D02*
X313086Y442022D01*
X319754Y450596D02*
X319754Y457264D01*
X319754Y450596D02*
X313086Y450596D01*
X313086Y457264D01*
X319754Y457264D01*
X319754Y452818D02*
X313086Y452818D01*
X313086Y455040D02*
X319754Y455040D01*
X319754Y457262D02*
X313086Y457262D01*
X219234Y350044D02*
X212566Y350044D01*
X219234Y350044D02*
X219234Y343376D01*
X212566Y343376D01*
X212566Y350044D01*
X212566Y345598D02*
X219234Y345598D01*
X219234Y347820D02*
X212566Y347820D01*
X212566Y350042D02*
X219234Y350042D01*
X203994Y350044D02*
X197326Y350044D01*
X203994Y350044D02*
X203994Y343376D01*
X197326Y343376D01*
X197326Y350044D01*
X197326Y345598D02*
X203994Y345598D01*
X203994Y347820D02*
X197326Y347820D01*
X197326Y350042D02*
X203994Y350042D01*
D18*
X248943Y969194D02*
X252493Y969194D01*
X248943Y969194D02*
X248943Y970994D01*
X252493Y970994D01*
X252493Y969194D01*
X252493Y970393D02*
X248943Y970393D01*
X248943Y964194D02*
X252493Y964194D01*
X248943Y964194D02*
X248943Y965994D01*
X252493Y965994D01*
X252493Y964194D01*
X252493Y965393D02*
X248943Y965393D01*
X248943Y959194D02*
X252493Y959194D01*
X248943Y959194D02*
X248943Y960994D01*
X252493Y960994D01*
X252493Y959194D01*
X252493Y960393D02*
X248943Y960393D01*
X248943Y954194D02*
X252493Y954194D01*
X248943Y954194D02*
X248943Y955994D01*
X252493Y955994D01*
X252493Y954194D01*
X252493Y955393D02*
X248943Y955393D01*
X248943Y949194D02*
X252493Y949194D01*
X248943Y949194D02*
X248943Y950994D01*
X252493Y950994D01*
X252493Y949194D01*
X252493Y950393D02*
X248943Y950393D01*
X248943Y944194D02*
X252493Y944194D01*
X248943Y944194D02*
X248943Y945994D01*
X252493Y945994D01*
X252493Y944194D01*
X252493Y945393D02*
X248943Y945393D01*
X248943Y939194D02*
X252493Y939194D01*
X248943Y939194D02*
X248943Y940994D01*
X252493Y940994D01*
X252493Y939194D01*
X252493Y940393D02*
X248943Y940393D01*
X248943Y934194D02*
X252493Y934194D01*
X248943Y934194D02*
X248943Y935994D01*
X252493Y935994D01*
X252493Y934194D01*
X252493Y935393D02*
X248943Y935393D01*
X248943Y929194D02*
X252493Y929194D01*
X248943Y929194D02*
X248943Y930994D01*
X252493Y930994D01*
X252493Y929194D01*
X252493Y930393D02*
X248943Y930393D01*
X248943Y924194D02*
X252493Y924194D01*
X248943Y924194D02*
X248943Y925994D01*
X252493Y925994D01*
X252493Y924194D01*
X252493Y925393D02*
X248943Y925393D01*
X248943Y919194D02*
X252493Y919194D01*
X248943Y919194D02*
X248943Y920994D01*
X252493Y920994D01*
X252493Y919194D01*
X252493Y920393D02*
X248943Y920393D01*
X248943Y914194D02*
X252493Y914194D01*
X248943Y914194D02*
X248943Y915994D01*
X252493Y915994D01*
X252493Y914194D01*
X252493Y915393D02*
X248943Y915393D01*
X257118Y911369D02*
X257118Y907819D01*
X255318Y907819D01*
X255318Y911369D01*
X257118Y911369D01*
X257118Y909018D02*
X255318Y909018D01*
X255318Y910217D02*
X257118Y910217D01*
X262118Y911369D02*
X262118Y907819D01*
X260318Y907819D01*
X260318Y911369D01*
X262118Y911369D01*
X262118Y909018D02*
X260318Y909018D01*
X260318Y910217D02*
X262118Y910217D01*
X267118Y911369D02*
X267118Y907819D01*
X265318Y907819D01*
X265318Y911369D01*
X267118Y911369D01*
X267118Y909018D02*
X265318Y909018D01*
X265318Y910217D02*
X267118Y910217D01*
X272118Y911369D02*
X272118Y907819D01*
X270318Y907819D01*
X270318Y911369D01*
X272118Y911369D01*
X272118Y909018D02*
X270318Y909018D01*
X270318Y910217D02*
X272118Y910217D01*
X277118Y911369D02*
X277118Y907819D01*
X275318Y907819D01*
X275318Y911369D01*
X277118Y911369D01*
X277118Y909018D02*
X275318Y909018D01*
X275318Y910217D02*
X277118Y910217D01*
X282118Y911369D02*
X282118Y907819D01*
X280318Y907819D01*
X280318Y911369D01*
X282118Y911369D01*
X282118Y909018D02*
X280318Y909018D01*
X280318Y910217D02*
X282118Y910217D01*
X287118Y911369D02*
X287118Y907819D01*
X285318Y907819D01*
X285318Y911369D01*
X287118Y911369D01*
X287118Y909018D02*
X285318Y909018D01*
X285318Y910217D02*
X287118Y910217D01*
X292118Y911369D02*
X292118Y907819D01*
X290318Y907819D01*
X290318Y911369D01*
X292118Y911369D01*
X292118Y909018D02*
X290318Y909018D01*
X290318Y910217D02*
X292118Y910217D01*
X297118Y911369D02*
X297118Y907819D01*
X295318Y907819D01*
X295318Y911369D01*
X297118Y911369D01*
X297118Y909018D02*
X295318Y909018D01*
X295318Y910217D02*
X297118Y910217D01*
X302118Y911369D02*
X302118Y907819D01*
X300318Y907819D01*
X300318Y911369D01*
X302118Y911369D01*
X302118Y909018D02*
X300318Y909018D01*
X300318Y910217D02*
X302118Y910217D01*
X307118Y911369D02*
X307118Y907819D01*
X305318Y907819D01*
X305318Y911369D01*
X307118Y911369D01*
X307118Y909018D02*
X305318Y909018D01*
X305318Y910217D02*
X307118Y910217D01*
X312118Y911369D02*
X312118Y907819D01*
X310318Y907819D01*
X310318Y911369D01*
X312118Y911369D01*
X312118Y909018D02*
X310318Y909018D01*
X310318Y910217D02*
X312118Y910217D01*
X314943Y914194D02*
X318493Y914194D01*
X314943Y914194D02*
X314943Y915994D01*
X318493Y915994D01*
X318493Y914194D01*
X318493Y915393D02*
X314943Y915393D01*
X314943Y919194D02*
X318493Y919194D01*
X314943Y919194D02*
X314943Y920994D01*
X318493Y920994D01*
X318493Y919194D01*
X318493Y920393D02*
X314943Y920393D01*
X314943Y924194D02*
X318493Y924194D01*
X314943Y924194D02*
X314943Y925994D01*
X318493Y925994D01*
X318493Y924194D01*
X318493Y925393D02*
X314943Y925393D01*
X314943Y929194D02*
X318493Y929194D01*
X314943Y929194D02*
X314943Y930994D01*
X318493Y930994D01*
X318493Y929194D01*
X318493Y930393D02*
X314943Y930393D01*
X314943Y934194D02*
X318493Y934194D01*
X314943Y934194D02*
X314943Y935994D01*
X318493Y935994D01*
X318493Y934194D01*
X318493Y935393D02*
X314943Y935393D01*
X314943Y939194D02*
X318493Y939194D01*
X314943Y939194D02*
X314943Y940994D01*
X318493Y940994D01*
X318493Y939194D01*
X318493Y940393D02*
X314943Y940393D01*
X314943Y944194D02*
X318493Y944194D01*
X314943Y944194D02*
X314943Y945994D01*
X318493Y945994D01*
X318493Y944194D01*
X318493Y945393D02*
X314943Y945393D01*
X314943Y949194D02*
X318493Y949194D01*
X314943Y949194D02*
X314943Y950994D01*
X318493Y950994D01*
X318493Y949194D01*
X318493Y950393D02*
X314943Y950393D01*
X314943Y954194D02*
X318493Y954194D01*
X314943Y954194D02*
X314943Y955994D01*
X318493Y955994D01*
X318493Y954194D01*
X318493Y955393D02*
X314943Y955393D01*
X314943Y959194D02*
X318493Y959194D01*
X314943Y959194D02*
X314943Y960994D01*
X318493Y960994D01*
X318493Y959194D01*
X318493Y960393D02*
X314943Y960393D01*
X314943Y964194D02*
X318493Y964194D01*
X314943Y964194D02*
X314943Y965994D01*
X318493Y965994D01*
X318493Y964194D01*
X318493Y965393D02*
X314943Y965393D01*
X314943Y969194D02*
X318493Y969194D01*
X314943Y969194D02*
X314943Y970994D01*
X318493Y970994D01*
X318493Y969194D01*
X318493Y970393D02*
X314943Y970393D01*
X312118Y973819D02*
X312118Y977369D01*
X312118Y973819D02*
X310318Y973819D01*
X310318Y977369D01*
X312118Y977369D01*
X312118Y975018D02*
X310318Y975018D01*
X310318Y976217D02*
X312118Y976217D01*
X307118Y977369D02*
X307118Y973819D01*
X305318Y973819D01*
X305318Y977369D01*
X307118Y977369D01*
X307118Y975018D02*
X305318Y975018D01*
X305318Y976217D02*
X307118Y976217D01*
X302118Y977369D02*
X302118Y973819D01*
X300318Y973819D01*
X300318Y977369D01*
X302118Y977369D01*
X302118Y975018D02*
X300318Y975018D01*
X300318Y976217D02*
X302118Y976217D01*
X297118Y977369D02*
X297118Y973819D01*
X295318Y973819D01*
X295318Y977369D01*
X297118Y977369D01*
X297118Y975018D02*
X295318Y975018D01*
X295318Y976217D02*
X297118Y976217D01*
X292118Y977369D02*
X292118Y973819D01*
X290318Y973819D01*
X290318Y977369D01*
X292118Y977369D01*
X292118Y975018D02*
X290318Y975018D01*
X290318Y976217D02*
X292118Y976217D01*
X287118Y977369D02*
X287118Y973819D01*
X285318Y973819D01*
X285318Y977369D01*
X287118Y977369D01*
X287118Y975018D02*
X285318Y975018D01*
X285318Y976217D02*
X287118Y976217D01*
X282118Y977369D02*
X282118Y973819D01*
X280318Y973819D01*
X280318Y977369D01*
X282118Y977369D01*
X282118Y975018D02*
X280318Y975018D01*
X280318Y976217D02*
X282118Y976217D01*
X277118Y977369D02*
X277118Y973819D01*
X275318Y973819D01*
X275318Y977369D01*
X277118Y977369D01*
X277118Y975018D02*
X275318Y975018D01*
X275318Y976217D02*
X277118Y976217D01*
X272118Y977369D02*
X272118Y973819D01*
X270318Y973819D01*
X270318Y977369D01*
X272118Y977369D01*
X272118Y975018D02*
X270318Y975018D01*
X270318Y976217D02*
X272118Y976217D01*
X267118Y977369D02*
X267118Y973819D01*
X265318Y973819D01*
X265318Y977369D01*
X267118Y977369D01*
X267118Y975018D02*
X265318Y975018D01*
X265318Y976217D02*
X267118Y976217D01*
X262118Y977369D02*
X262118Y973819D01*
X260318Y973819D01*
X260318Y977369D01*
X262118Y977369D01*
X262118Y975018D02*
X260318Y975018D01*
X260318Y976217D02*
X262118Y976217D01*
X257118Y977369D02*
X257118Y973819D01*
X255318Y973819D01*
X255318Y977369D01*
X257118Y977369D01*
X257118Y975018D02*
X255318Y975018D01*
X255318Y976217D02*
X257118Y976217D01*
D19*
X270718Y955594D03*
X270718Y929594D03*
X296718Y929594D03*
X296718Y955594D03*
D10*
X231934Y944404D02*
X225266Y944404D01*
X231934Y944404D02*
X231934Y937736D01*
X225266Y937736D01*
X225266Y944404D01*
X225266Y939958D02*
X231934Y939958D01*
X231934Y942180D02*
X225266Y942180D01*
X225266Y944402D02*
X231934Y944402D01*
X216694Y944404D02*
X210026Y944404D01*
X216694Y944404D02*
X216694Y937736D01*
X210026Y937736D01*
X210026Y944404D01*
X210026Y939958D02*
X216694Y939958D01*
X216694Y942180D02*
X210026Y942180D01*
X210026Y944402D02*
X216694Y944402D01*
X225266Y930434D02*
X231934Y930434D01*
X231934Y923766D01*
X225266Y923766D01*
X225266Y930434D01*
X225266Y925988D02*
X231934Y925988D01*
X231934Y928210D02*
X225266Y928210D01*
X225266Y930432D02*
X231934Y930432D01*
X216694Y930434D02*
X210026Y930434D01*
X216694Y930434D02*
X216694Y923766D01*
X210026Y923766D01*
X210026Y930434D01*
X210026Y925988D02*
X216694Y925988D01*
X216694Y928210D02*
X210026Y928210D01*
X210026Y930432D02*
X216694Y930432D01*
D20*
X237862Y994664D03*
X220862Y994664D03*
D10*
X234664Y984536D02*
X234664Y977868D01*
X234664Y984536D02*
X241332Y984536D01*
X241332Y977868D01*
X234664Y977868D01*
X234664Y980090D02*
X241332Y980090D01*
X241332Y982312D02*
X234664Y982312D01*
X234664Y984534D02*
X241332Y984534D01*
X234664Y969296D02*
X234664Y962628D01*
X234664Y969296D02*
X241332Y969296D01*
X241332Y962628D01*
X234664Y962628D01*
X234664Y964850D02*
X241332Y964850D01*
X241332Y967072D02*
X234664Y967072D01*
X234664Y969294D02*
X241332Y969294D01*
D21*
X220980Y965340D03*
X220980Y982840D03*
D10*
X368776Y878046D02*
X375444Y878046D01*
X368776Y878046D02*
X368776Y884714D01*
X375444Y884714D01*
X375444Y878046D01*
X375444Y880268D02*
X368776Y880268D01*
X368776Y882490D02*
X375444Y882490D01*
X375444Y884712D02*
X368776Y884712D01*
X384016Y878046D02*
X390684Y878046D01*
X384016Y878046D02*
X384016Y884714D01*
X390684Y884714D01*
X390684Y878046D01*
X390684Y880268D02*
X384016Y880268D01*
X384016Y882490D02*
X390684Y882490D01*
X390684Y884712D02*
X384016Y884712D01*
D22*
X33900Y518830D03*
X67900Y518830D03*
X179860Y518830D03*
X145860Y518830D03*
X266890Y518930D03*
X232890Y518930D03*
X344450Y518830D03*
X378450Y518830D03*
D15*
X375920Y481330D03*
X384810Y461010D03*
X367030Y461010D03*
D10*
X186214Y498316D02*
X179546Y498316D01*
X179546Y504984D01*
X186214Y504984D01*
X186214Y498316D01*
X186214Y500538D02*
X179546Y500538D01*
X179546Y502760D02*
X186214Y502760D01*
X186214Y504982D02*
X179546Y504982D01*
X194786Y498316D02*
X201454Y498316D01*
X194786Y498316D02*
X194786Y504984D01*
X201454Y504984D01*
X201454Y498316D01*
X201454Y500538D02*
X194786Y500538D01*
X194786Y502760D02*
X201454Y502760D01*
X201454Y504982D02*
X194786Y504982D01*
D23*
X193990Y49020D03*
X183990Y49020D03*
X173990Y49020D03*
X163990Y49020D03*
X153990Y49020D03*
X143990Y49020D03*
D24*
X206990Y10270D03*
X100990Y10270D03*
D23*
X133990Y49020D03*
X123990Y49020D03*
X113990Y49020D03*
D10*
X198914Y420846D02*
X198914Y427514D01*
X198914Y420846D02*
X192246Y420846D01*
X192246Y427514D01*
X198914Y427514D01*
X198914Y423068D02*
X192246Y423068D01*
X192246Y425290D02*
X198914Y425290D01*
X198914Y427512D02*
X192246Y427512D01*
X198914Y436086D02*
X198914Y442754D01*
X198914Y436086D02*
X192246Y436086D01*
X192246Y442754D01*
X198914Y442754D01*
X198914Y438308D02*
X192246Y438308D01*
X192246Y440530D02*
X198914Y440530D01*
X198914Y442752D02*
X192246Y442752D01*
X342106Y424974D02*
X342106Y418306D01*
X342106Y424974D02*
X348774Y424974D01*
X348774Y418306D01*
X342106Y418306D01*
X342106Y420528D02*
X348774Y420528D01*
X348774Y422750D02*
X342106Y422750D01*
X342106Y424972D02*
X348774Y424972D01*
X342106Y409734D02*
X342106Y403066D01*
X342106Y409734D02*
X348774Y409734D01*
X348774Y403066D01*
X342106Y403066D01*
X342106Y405288D02*
X348774Y405288D01*
X348774Y407510D02*
X342106Y407510D01*
X342106Y409732D02*
X348774Y409732D01*
D25*
X121040Y709930D03*
X138040Y709930D03*
D10*
X293576Y887206D02*
X300244Y887206D01*
X293576Y887206D02*
X293576Y893874D01*
X300244Y893874D01*
X300244Y887206D01*
X300244Y889428D02*
X293576Y889428D01*
X293576Y891650D02*
X300244Y891650D01*
X300244Y893872D02*
X293576Y893872D01*
X308816Y887206D02*
X315484Y887206D01*
X308816Y887206D02*
X308816Y893874D01*
X315484Y893874D01*
X315484Y887206D01*
X315484Y889428D02*
X308816Y889428D01*
X308816Y891650D02*
X315484Y891650D01*
X315484Y893872D02*
X308816Y893872D01*
X276892Y995204D02*
X270224Y995204D01*
X276892Y995204D02*
X276892Y988536D01*
X270224Y988536D01*
X270224Y995204D01*
X270224Y990758D02*
X276892Y990758D01*
X276892Y992980D02*
X270224Y992980D01*
X270224Y995202D02*
X276892Y995202D01*
X261652Y995204D02*
X254984Y995204D01*
X261652Y995204D02*
X261652Y988536D01*
X254984Y988536D01*
X254984Y995204D01*
X254984Y990758D02*
X261652Y990758D01*
X261652Y992980D02*
X254984Y992980D01*
X254984Y995202D02*
X261652Y995202D01*
X343376Y972026D02*
X350044Y972026D01*
X343376Y972026D02*
X343376Y978694D01*
X350044Y978694D01*
X350044Y972026D01*
X350044Y974248D02*
X343376Y974248D01*
X343376Y976470D02*
X350044Y976470D01*
X350044Y978692D02*
X343376Y978692D01*
X358616Y972026D02*
X365284Y972026D01*
X358616Y972026D02*
X358616Y978694D01*
X365284Y978694D01*
X365284Y972026D01*
X365284Y974248D02*
X358616Y974248D01*
X358616Y976470D02*
X365284Y976470D01*
X365284Y978692D02*
X358616Y978692D01*
X368776Y895191D02*
X375444Y895191D01*
X368776Y895191D02*
X368776Y901859D01*
X375444Y901859D01*
X375444Y895191D01*
X375444Y897413D02*
X368776Y897413D01*
X368776Y899635D02*
X375444Y899635D01*
X375444Y901857D02*
X368776Y901857D01*
X384016Y895191D02*
X390684Y895191D01*
X384016Y895191D02*
X384016Y901859D01*
X390684Y901859D01*
X390684Y895191D01*
X390684Y897413D02*
X384016Y897413D01*
X384016Y899635D02*
X390684Y899635D01*
X390684Y901857D02*
X384016Y901857D01*
X272574Y809784D02*
X265906Y809784D01*
X272574Y809784D02*
X272574Y803116D01*
X265906Y803116D01*
X265906Y809784D01*
X265906Y805338D02*
X272574Y805338D01*
X272574Y807560D02*
X265906Y807560D01*
X265906Y809782D02*
X272574Y809782D01*
X257334Y809784D02*
X250666Y809784D01*
X257334Y809784D02*
X257334Y803116D01*
X250666Y803116D01*
X250666Y809784D01*
X250666Y805338D02*
X257334Y805338D01*
X257334Y807560D02*
X250666Y807560D01*
X250666Y809782D02*
X257334Y809782D01*
X295116Y809784D02*
X301784Y809784D01*
X301784Y803116D01*
X295116Y803116D01*
X295116Y809784D01*
X295116Y805338D02*
X301784Y805338D01*
X301784Y807560D02*
X295116Y807560D01*
X295116Y809782D02*
X301784Y809782D01*
X286544Y809784D02*
X279876Y809784D01*
X286544Y809784D02*
X286544Y803116D01*
X279876Y803116D01*
X279876Y809784D01*
X279876Y805338D02*
X286544Y805338D01*
X286544Y807560D02*
X279876Y807560D01*
X279876Y809782D02*
X286544Y809782D01*
X286544Y789146D02*
X279876Y789146D01*
X279876Y795814D01*
X286544Y795814D01*
X286544Y789146D01*
X286544Y791368D02*
X279876Y791368D01*
X279876Y793590D02*
X286544Y793590D01*
X286544Y795812D02*
X279876Y795812D01*
X295116Y789146D02*
X301784Y789146D01*
X295116Y789146D02*
X295116Y795814D01*
X301784Y795814D01*
X301784Y789146D01*
X301784Y791368D02*
X295116Y791368D01*
X295116Y793590D02*
X301784Y793590D01*
X301784Y795812D02*
X295116Y795812D01*
X349726Y353536D02*
X356394Y353536D01*
X349726Y353536D02*
X349726Y360204D01*
X356394Y360204D01*
X356394Y353536D01*
X356394Y355758D02*
X349726Y355758D01*
X349726Y357980D02*
X356394Y357980D01*
X356394Y360202D02*
X349726Y360202D01*
X364966Y353536D02*
X371634Y353536D01*
X364966Y353536D02*
X364966Y360204D01*
X371634Y360204D01*
X371634Y353536D01*
X371634Y355758D02*
X364966Y355758D01*
X364966Y357980D02*
X371634Y357980D01*
X371634Y360202D02*
X364966Y360202D01*
X341154Y344964D02*
X341154Y338296D01*
X334486Y338296D01*
X334486Y344964D01*
X341154Y344964D01*
X341154Y340518D02*
X334486Y340518D01*
X334486Y342740D02*
X341154Y342740D01*
X341154Y344962D02*
X334486Y344962D01*
X341154Y353536D02*
X341154Y360204D01*
X341154Y353536D02*
X334486Y353536D01*
X334486Y360204D01*
X341154Y360204D01*
X341154Y355758D02*
X334486Y355758D01*
X334486Y357980D02*
X341154Y357980D01*
X341154Y360202D02*
X334486Y360202D01*
D26*
X58420Y821690D03*
X81280Y821690D03*
X104140Y821690D03*
D27*
X81280Y885190D03*
D28*
X167005Y927100D03*
X137795Y927100D03*
X125095Y828040D03*
X154305Y828040D03*
D29*
X166370Y471805D03*
X166370Y442595D03*
D10*
X145256Y310674D02*
X145256Y304006D01*
X145256Y310674D02*
X151924Y310674D01*
X151924Y304006D01*
X145256Y304006D01*
X145256Y306228D02*
X151924Y306228D01*
X151924Y308450D02*
X145256Y308450D01*
X145256Y310672D02*
X151924Y310672D01*
X145256Y295434D02*
X145256Y288766D01*
X145256Y295434D02*
X151924Y295434D01*
X151924Y288766D01*
X145256Y288766D01*
X145256Y290988D02*
X151924Y290988D01*
X151924Y293210D02*
X145256Y293210D01*
X145256Y295432D02*
X151924Y295432D01*
X368776Y864076D02*
X375444Y864076D01*
X368776Y864076D02*
X368776Y870744D01*
X375444Y870744D01*
X375444Y864076D01*
X375444Y866298D02*
X368776Y866298D01*
X368776Y868520D02*
X375444Y868520D01*
X375444Y870742D02*
X368776Y870742D01*
X384016Y864076D02*
X390684Y864076D01*
X384016Y864076D02*
X384016Y870744D01*
X390684Y870744D01*
X390684Y864076D01*
X390684Y866298D02*
X384016Y866298D01*
X384016Y868520D02*
X390684Y868520D01*
X390684Y870742D02*
X384016Y870742D01*
X358934Y879316D02*
X358934Y885984D01*
X358934Y879316D02*
X352266Y879316D01*
X352266Y885984D01*
X358934Y885984D01*
X358934Y881538D02*
X352266Y881538D01*
X352266Y883760D02*
X358934Y883760D01*
X358934Y885982D02*
X352266Y885982D01*
X358934Y894556D02*
X358934Y901224D01*
X358934Y894556D02*
X352266Y894556D01*
X352266Y901224D01*
X358934Y901224D01*
X358934Y896778D02*
X352266Y896778D01*
X352266Y899000D02*
X358934Y899000D01*
X358934Y901222D02*
X352266Y901222D01*
D30*
X277114Y171450D03*
X277114Y204470D03*
X39116Y300990D03*
X72136Y300990D03*
X173990Y767080D03*
X140970Y767080D03*
D31*
X183571Y700017D02*
X183571Y683267D01*
X183571Y700017D02*
X188821Y700017D01*
X188821Y683267D01*
X183571Y683267D01*
X183571Y688516D02*
X188821Y688516D01*
X188821Y693765D02*
X183571Y693765D01*
X183571Y699014D02*
X188821Y699014D01*
X153571Y700017D02*
X153571Y683267D01*
X153571Y700017D02*
X158821Y700017D01*
X158821Y683267D01*
X153571Y683267D01*
X153571Y688516D02*
X158821Y688516D01*
X158821Y693765D02*
X153571Y693765D01*
X153571Y699014D02*
X158821Y699014D01*
D32*
X173696Y704132D02*
X173696Y709632D01*
X173696Y704132D02*
X168696Y704132D01*
X168696Y709632D01*
X173696Y709632D01*
X173696Y709131D02*
X168696Y709131D01*
D33*
X274320Y486800D03*
X297320Y449800D03*
X297320Y486800D03*
X274320Y449800D03*
D25*
X260604Y455558D03*
X260604Y472558D03*
X312564Y494446D03*
X312564Y477446D03*
D34*
X262590Y42756D03*
X288590Y42756D03*
X269090Y42756D03*
X275590Y42756D03*
X282090Y42756D03*
D35*
X235590Y16256D03*
X315590Y16256D03*
D36*
X262890Y16256D03*
X288290Y16256D03*
D10*
X355568Y271240D02*
X355568Y277908D01*
X362236Y277908D01*
X362236Y271240D01*
X355568Y271240D01*
X355568Y273462D02*
X362236Y273462D01*
X362236Y275684D02*
X355568Y275684D01*
X355568Y277906D02*
X362236Y277906D01*
X355568Y262668D02*
X355568Y256000D01*
X355568Y262668D02*
X362236Y262668D01*
X362236Y256000D01*
X355568Y256000D01*
X355568Y258222D02*
X362236Y258222D01*
X362236Y260444D02*
X355568Y260444D01*
X355568Y262666D02*
X362236Y262666D01*
X385540Y277908D02*
X392208Y277908D01*
X392208Y271240D01*
X385540Y271240D01*
X385540Y277908D01*
X385540Y273462D02*
X392208Y273462D01*
X392208Y275684D02*
X385540Y275684D01*
X385540Y277906D02*
X392208Y277906D01*
X376968Y277908D02*
X370300Y277908D01*
X376968Y277908D02*
X376968Y271240D01*
X370300Y271240D01*
X370300Y277908D01*
X370300Y273462D02*
X376968Y273462D01*
X376968Y275684D02*
X370300Y275684D01*
X370300Y277906D02*
X376968Y277906D01*
X149892Y348012D02*
X143224Y348012D01*
X149892Y348012D02*
X149892Y341344D01*
X143224Y341344D01*
X143224Y348012D01*
X143224Y343566D02*
X149892Y343566D01*
X149892Y345788D02*
X143224Y345788D01*
X143224Y348010D02*
X149892Y348010D01*
X134652Y348012D02*
X127984Y348012D01*
X134652Y348012D02*
X134652Y341344D01*
X127984Y341344D01*
X127984Y348012D01*
X127984Y343566D02*
X134652Y343566D01*
X134652Y345788D02*
X127984Y345788D01*
X127984Y348010D02*
X134652Y348010D01*
X791296Y890746D02*
X797964Y890746D01*
X791296Y890746D02*
X791296Y897414D01*
X797964Y897414D01*
X797964Y890746D01*
X797964Y892968D02*
X791296Y892968D01*
X791296Y895190D02*
X797964Y895190D01*
X797964Y897412D02*
X791296Y897412D01*
X806536Y890746D02*
X813204Y890746D01*
X806536Y890746D02*
X806536Y897414D01*
X813204Y897414D01*
X813204Y890746D01*
X813204Y892968D02*
X806536Y892968D01*
X806536Y895190D02*
X813204Y895190D01*
X813204Y897412D02*
X806536Y897412D01*
D11*
X881200Y1060610D03*
X881200Y1046150D03*
X829200Y1060610D03*
X829200Y1046150D03*
D12*
X943290Y570080D03*
X943290Y590080D03*
X793290Y570080D03*
X943290Y610080D03*
X943290Y630080D03*
X943290Y650080D03*
X943290Y670080D03*
X943290Y690080D03*
X943290Y710080D03*
X793290Y590080D03*
X793290Y610080D03*
X793290Y630080D03*
X793290Y650080D03*
X793290Y670080D03*
X793290Y690080D03*
X793290Y710080D03*
D13*
X884292Y420624D03*
X879466Y420624D03*
X874386Y420624D03*
X869306Y420624D03*
X864480Y420624D03*
X859400Y420624D03*
X854320Y420624D03*
X849240Y420624D03*
X844414Y420624D03*
X839334Y420624D03*
X834254Y420624D03*
X829428Y420624D03*
D14*
X814696Y405892D03*
X814696Y401066D03*
X814696Y395986D03*
X814696Y390906D03*
X814696Y386080D03*
X814696Y381000D03*
X814696Y375920D03*
X814696Y370840D03*
X814696Y366014D03*
X814696Y360934D03*
X814696Y355854D03*
X814696Y351028D03*
D13*
X829428Y336296D03*
X834254Y336296D03*
X839334Y336296D03*
X844414Y336296D03*
X849240Y336296D03*
X854320Y336296D03*
X859400Y336296D03*
X864480Y336296D03*
X869306Y336296D03*
X874386Y336296D03*
X879466Y336296D03*
X884292Y336296D03*
D14*
X899024Y351028D03*
X899024Y355854D03*
X899024Y360934D03*
X899024Y366014D03*
X899024Y370840D03*
X899024Y375920D03*
X899024Y381000D03*
X899024Y386080D03*
X899024Y390906D03*
X899024Y395986D03*
X899024Y401066D03*
X899024Y405892D03*
D10*
X861210Y88424D02*
X861210Y81756D01*
X854542Y81756D01*
X854542Y88424D01*
X861210Y88424D01*
X861210Y83978D02*
X854542Y83978D01*
X854542Y86200D02*
X861210Y86200D01*
X861210Y88422D02*
X854542Y88422D01*
X861210Y96996D02*
X861210Y103664D01*
X861210Y96996D02*
X854542Y96996D01*
X854542Y103664D01*
X861210Y103664D01*
X861210Y99218D02*
X854542Y99218D01*
X854542Y101440D02*
X861210Y101440D01*
X861210Y103662D02*
X854542Y103662D01*
X847240Y88424D02*
X847240Y81756D01*
X840572Y81756D01*
X840572Y88424D01*
X847240Y88424D01*
X847240Y83978D02*
X840572Y83978D01*
X840572Y86200D02*
X847240Y86200D01*
X847240Y88422D02*
X840572Y88422D01*
X847240Y96996D02*
X847240Y103664D01*
X847240Y96996D02*
X840572Y96996D01*
X840572Y103664D01*
X847240Y103664D01*
X847240Y99218D02*
X840572Y99218D01*
X840572Y101440D02*
X847240Y101440D01*
X847240Y103662D02*
X840572Y103662D01*
X857336Y304006D02*
X864004Y304006D01*
X857336Y304006D02*
X857336Y310674D01*
X864004Y310674D01*
X864004Y304006D01*
X864004Y306228D02*
X857336Y306228D01*
X857336Y308450D02*
X864004Y308450D01*
X864004Y310672D02*
X857336Y310672D01*
X872576Y304006D02*
X879244Y304006D01*
X872576Y304006D02*
X872576Y310674D01*
X879244Y310674D01*
X879244Y304006D01*
X879244Y306228D02*
X872576Y306228D01*
X872576Y308450D02*
X879244Y308450D01*
X879244Y310672D02*
X872576Y310672D01*
D15*
X896738Y219710D03*
X887848Y240030D03*
X905628Y240030D03*
D16*
X682870Y300990D03*
X703190Y309880D03*
X703190Y292100D03*
D17*
X788890Y801671D03*
X779390Y801671D03*
X769890Y801671D03*
X769890Y775669D03*
X788890Y775669D03*
D10*
X815680Y780574D02*
X822348Y780574D01*
X822348Y773906D01*
X815680Y773906D01*
X815680Y780574D01*
X815680Y776128D02*
X822348Y776128D01*
X822348Y778350D02*
X815680Y778350D01*
X815680Y780572D02*
X822348Y780572D01*
X807108Y780574D02*
X800440Y780574D01*
X807108Y780574D02*
X807108Y773906D01*
X800440Y773906D01*
X800440Y780574D01*
X800440Y776128D02*
X807108Y776128D01*
X807108Y778350D02*
X800440Y778350D01*
X800440Y780572D02*
X807108Y780572D01*
D15*
X740020Y805180D03*
X748910Y784860D03*
X731130Y784860D03*
D10*
X795106Y758984D02*
X801774Y758984D01*
X801774Y752316D01*
X795106Y752316D01*
X795106Y758984D01*
X795106Y754538D02*
X801774Y754538D01*
X801774Y756760D02*
X795106Y756760D01*
X795106Y758982D02*
X801774Y758982D01*
X786534Y758984D02*
X779866Y758984D01*
X786534Y758984D02*
X786534Y752316D01*
X779866Y752316D01*
X779866Y758984D01*
X779866Y754538D02*
X786534Y754538D01*
X786534Y756760D02*
X779866Y756760D01*
X779866Y758982D02*
X786534Y758982D01*
X712620Y757460D02*
X705952Y757460D01*
X712620Y757460D02*
X712620Y750792D01*
X705952Y750792D01*
X705952Y757460D01*
X705952Y753014D02*
X712620Y753014D01*
X712620Y755236D02*
X705952Y755236D01*
X705952Y757458D02*
X712620Y757458D01*
X697380Y757460D02*
X690712Y757460D01*
X697380Y757460D02*
X697380Y750792D01*
X690712Y750792D01*
X690712Y757460D01*
X690712Y753014D02*
X697380Y753014D01*
X697380Y755236D02*
X690712Y755236D01*
X690712Y757458D02*
X697380Y757458D01*
X712556Y805974D02*
X719224Y805974D01*
X719224Y799306D01*
X712556Y799306D01*
X712556Y805974D01*
X712556Y801528D02*
X719224Y801528D01*
X719224Y803750D02*
X712556Y803750D01*
X712556Y805972D02*
X719224Y805972D01*
X703984Y805974D02*
X697316Y805974D01*
X703984Y805974D02*
X703984Y799306D01*
X697316Y799306D01*
X697316Y805974D01*
X697316Y801528D02*
X703984Y801528D01*
X703984Y803750D02*
X697316Y803750D01*
X697316Y805972D02*
X703984Y805972D01*
X693506Y792004D02*
X693506Y785336D01*
X693506Y792004D02*
X700174Y792004D01*
X700174Y785336D01*
X693506Y785336D01*
X693506Y787558D02*
X700174Y787558D01*
X700174Y789780D02*
X693506Y789780D01*
X693506Y792002D02*
X700174Y792002D01*
X693506Y776764D02*
X693506Y770096D01*
X693506Y776764D02*
X700174Y776764D01*
X700174Y770096D01*
X693506Y770096D01*
X693506Y772318D02*
X700174Y772318D01*
X700174Y774540D02*
X693506Y774540D01*
X693506Y776762D02*
X700174Y776762D01*
X673186Y785336D02*
X673186Y792004D01*
X679854Y792004D01*
X679854Y785336D01*
X673186Y785336D01*
X673186Y787558D02*
X679854Y787558D01*
X679854Y789780D02*
X673186Y789780D01*
X673186Y792002D02*
X679854Y792002D01*
X673186Y776764D02*
X673186Y770096D01*
X673186Y776764D02*
X679854Y776764D01*
X679854Y770096D01*
X673186Y770096D01*
X673186Y772318D02*
X679854Y772318D01*
X679854Y774540D02*
X673186Y774540D01*
X673186Y776762D02*
X679854Y776762D01*
X663344Y804704D02*
X656676Y804704D01*
X663344Y804704D02*
X663344Y798036D01*
X656676Y798036D01*
X656676Y804704D01*
X656676Y800258D02*
X663344Y800258D01*
X663344Y802480D02*
X656676Y802480D01*
X656676Y804702D02*
X663344Y804702D01*
X648104Y804704D02*
X641436Y804704D01*
X648104Y804704D02*
X648104Y798036D01*
X641436Y798036D01*
X641436Y804704D01*
X641436Y800258D02*
X648104Y800258D01*
X648104Y802480D02*
X641436Y802480D01*
X641436Y804702D02*
X648104Y804702D01*
X750656Y890746D02*
X757324Y890746D01*
X750656Y890746D02*
X750656Y897414D01*
X757324Y897414D01*
X757324Y890746D01*
X757324Y892968D02*
X750656Y892968D01*
X750656Y895190D02*
X757324Y895190D01*
X757324Y897412D02*
X750656Y897412D01*
X765896Y890746D02*
X772564Y890746D01*
X765896Y890746D02*
X765896Y897414D01*
X772564Y897414D01*
X772564Y890746D01*
X772564Y892968D02*
X765896Y892968D01*
X765896Y895190D02*
X772564Y895190D01*
X772564Y897412D02*
X765896Y897412D01*
X852574Y739934D02*
X852574Y733266D01*
X845906Y733266D01*
X845906Y739934D01*
X852574Y739934D01*
X852574Y735488D02*
X845906Y735488D01*
X845906Y737710D02*
X852574Y737710D01*
X852574Y739932D02*
X845906Y739932D01*
X852574Y748506D02*
X852574Y755174D01*
X852574Y748506D02*
X845906Y748506D01*
X845906Y755174D01*
X852574Y755174D01*
X852574Y750728D02*
X845906Y750728D01*
X845906Y752950D02*
X852574Y752950D01*
X852574Y755172D02*
X845906Y755172D01*
X837334Y739934D02*
X837334Y733266D01*
X830666Y733266D01*
X830666Y739934D01*
X837334Y739934D01*
X837334Y735488D02*
X830666Y735488D01*
X830666Y737710D02*
X837334Y737710D01*
X837334Y739932D02*
X830666Y739932D01*
X837334Y748506D02*
X837334Y755174D01*
X837334Y748506D02*
X830666Y748506D01*
X830666Y755174D01*
X837334Y755174D01*
X837334Y750728D02*
X830666Y750728D01*
X830666Y752950D02*
X837334Y752950D01*
X837334Y755172D02*
X830666Y755172D01*
X899754Y442024D02*
X899754Y435356D01*
X893086Y435356D01*
X893086Y442024D01*
X899754Y442024D01*
X899754Y437578D02*
X893086Y437578D01*
X893086Y439800D02*
X899754Y439800D01*
X899754Y442022D02*
X893086Y442022D01*
X899754Y450596D02*
X899754Y457264D01*
X899754Y450596D02*
X893086Y450596D01*
X893086Y457264D01*
X899754Y457264D01*
X899754Y452818D02*
X893086Y452818D01*
X893086Y455040D02*
X899754Y455040D01*
X899754Y457262D02*
X893086Y457262D01*
X799234Y350044D02*
X792566Y350044D01*
X799234Y350044D02*
X799234Y343376D01*
X792566Y343376D01*
X792566Y350044D01*
X792566Y345598D02*
X799234Y345598D01*
X799234Y347820D02*
X792566Y347820D01*
X792566Y350042D02*
X799234Y350042D01*
X783994Y350044D02*
X777326Y350044D01*
X783994Y350044D02*
X783994Y343376D01*
X777326Y343376D01*
X777326Y350044D01*
X777326Y345598D02*
X783994Y345598D01*
X783994Y347820D02*
X777326Y347820D01*
X777326Y350042D02*
X783994Y350042D01*
D18*
X828943Y969194D02*
X832493Y969194D01*
X828943Y969194D02*
X828943Y970994D01*
X832493Y970994D01*
X832493Y969194D01*
X832493Y970393D02*
X828943Y970393D01*
X828943Y964194D02*
X832493Y964194D01*
X828943Y964194D02*
X828943Y965994D01*
X832493Y965994D01*
X832493Y964194D01*
X832493Y965393D02*
X828943Y965393D01*
X828943Y959194D02*
X832493Y959194D01*
X828943Y959194D02*
X828943Y960994D01*
X832493Y960994D01*
X832493Y959194D01*
X832493Y960393D02*
X828943Y960393D01*
X828943Y954194D02*
X832493Y954194D01*
X828943Y954194D02*
X828943Y955994D01*
X832493Y955994D01*
X832493Y954194D01*
X832493Y955393D02*
X828943Y955393D01*
X828943Y949194D02*
X832493Y949194D01*
X828943Y949194D02*
X828943Y950994D01*
X832493Y950994D01*
X832493Y949194D01*
X832493Y950393D02*
X828943Y950393D01*
X828943Y944194D02*
X832493Y944194D01*
X828943Y944194D02*
X828943Y945994D01*
X832493Y945994D01*
X832493Y944194D01*
X832493Y945393D02*
X828943Y945393D01*
X828943Y939194D02*
X832493Y939194D01*
X828943Y939194D02*
X828943Y940994D01*
X832493Y940994D01*
X832493Y939194D01*
X832493Y940393D02*
X828943Y940393D01*
X828943Y934194D02*
X832493Y934194D01*
X828943Y934194D02*
X828943Y935994D01*
X832493Y935994D01*
X832493Y934194D01*
X832493Y935393D02*
X828943Y935393D01*
X828943Y929194D02*
X832493Y929194D01*
X828943Y929194D02*
X828943Y930994D01*
X832493Y930994D01*
X832493Y929194D01*
X832493Y930393D02*
X828943Y930393D01*
X828943Y924194D02*
X832493Y924194D01*
X828943Y924194D02*
X828943Y925994D01*
X832493Y925994D01*
X832493Y924194D01*
X832493Y925393D02*
X828943Y925393D01*
X828943Y919194D02*
X832493Y919194D01*
X828943Y919194D02*
X828943Y920994D01*
X832493Y920994D01*
X832493Y919194D01*
X832493Y920393D02*
X828943Y920393D01*
X828943Y914194D02*
X832493Y914194D01*
X828943Y914194D02*
X828943Y915994D01*
X832493Y915994D01*
X832493Y914194D01*
X832493Y915393D02*
X828943Y915393D01*
X837118Y911369D02*
X837118Y907819D01*
X835318Y907819D01*
X835318Y911369D01*
X837118Y911369D01*
X837118Y909018D02*
X835318Y909018D01*
X835318Y910217D02*
X837118Y910217D01*
X842118Y911369D02*
X842118Y907819D01*
X840318Y907819D01*
X840318Y911369D01*
X842118Y911369D01*
X842118Y909018D02*
X840318Y909018D01*
X840318Y910217D02*
X842118Y910217D01*
X847118Y911369D02*
X847118Y907819D01*
X845318Y907819D01*
X845318Y911369D01*
X847118Y911369D01*
X847118Y909018D02*
X845318Y909018D01*
X845318Y910217D02*
X847118Y910217D01*
X852118Y911369D02*
X852118Y907819D01*
X850318Y907819D01*
X850318Y911369D01*
X852118Y911369D01*
X852118Y909018D02*
X850318Y909018D01*
X850318Y910217D02*
X852118Y910217D01*
X857118Y911369D02*
X857118Y907819D01*
X855318Y907819D01*
X855318Y911369D01*
X857118Y911369D01*
X857118Y909018D02*
X855318Y909018D01*
X855318Y910217D02*
X857118Y910217D01*
X862118Y911369D02*
X862118Y907819D01*
X860318Y907819D01*
X860318Y911369D01*
X862118Y911369D01*
X862118Y909018D02*
X860318Y909018D01*
X860318Y910217D02*
X862118Y910217D01*
X867118Y911369D02*
X867118Y907819D01*
X865318Y907819D01*
X865318Y911369D01*
X867118Y911369D01*
X867118Y909018D02*
X865318Y909018D01*
X865318Y910217D02*
X867118Y910217D01*
X872118Y911369D02*
X872118Y907819D01*
X870318Y907819D01*
X870318Y911369D01*
X872118Y911369D01*
X872118Y909018D02*
X870318Y909018D01*
X870318Y910217D02*
X872118Y910217D01*
X877118Y911369D02*
X877118Y907819D01*
X875318Y907819D01*
X875318Y911369D01*
X877118Y911369D01*
X877118Y909018D02*
X875318Y909018D01*
X875318Y910217D02*
X877118Y910217D01*
X882118Y911369D02*
X882118Y907819D01*
X880318Y907819D01*
X880318Y911369D01*
X882118Y911369D01*
X882118Y909018D02*
X880318Y909018D01*
X880318Y910217D02*
X882118Y910217D01*
X887118Y911369D02*
X887118Y907819D01*
X885318Y907819D01*
X885318Y911369D01*
X887118Y911369D01*
X887118Y909018D02*
X885318Y909018D01*
X885318Y910217D02*
X887118Y910217D01*
X892118Y911369D02*
X892118Y907819D01*
X890318Y907819D01*
X890318Y911369D01*
X892118Y911369D01*
X892118Y909018D02*
X890318Y909018D01*
X890318Y910217D02*
X892118Y910217D01*
X894943Y914194D02*
X898493Y914194D01*
X894943Y914194D02*
X894943Y915994D01*
X898493Y915994D01*
X898493Y914194D01*
X898493Y915393D02*
X894943Y915393D01*
X894943Y919194D02*
X898493Y919194D01*
X894943Y919194D02*
X894943Y920994D01*
X898493Y920994D01*
X898493Y919194D01*
X898493Y920393D02*
X894943Y920393D01*
X894943Y924194D02*
X898493Y924194D01*
X894943Y924194D02*
X894943Y925994D01*
X898493Y925994D01*
X898493Y924194D01*
X898493Y925393D02*
X894943Y925393D01*
X894943Y929194D02*
X898493Y929194D01*
X894943Y929194D02*
X894943Y930994D01*
X898493Y930994D01*
X898493Y929194D01*
X898493Y930393D02*
X894943Y930393D01*
X894943Y934194D02*
X898493Y934194D01*
X894943Y934194D02*
X894943Y935994D01*
X898493Y935994D01*
X898493Y934194D01*
X898493Y935393D02*
X894943Y935393D01*
X894943Y939194D02*
X898493Y939194D01*
X894943Y939194D02*
X894943Y940994D01*
X898493Y940994D01*
X898493Y939194D01*
X898493Y940393D02*
X894943Y940393D01*
X894943Y944194D02*
X898493Y944194D01*
X894943Y944194D02*
X894943Y945994D01*
X898493Y945994D01*
X898493Y944194D01*
X898493Y945393D02*
X894943Y945393D01*
X894943Y949194D02*
X898493Y949194D01*
X894943Y949194D02*
X894943Y950994D01*
X898493Y950994D01*
X898493Y949194D01*
X898493Y950393D02*
X894943Y950393D01*
X894943Y954194D02*
X898493Y954194D01*
X894943Y954194D02*
X894943Y955994D01*
X898493Y955994D01*
X898493Y954194D01*
X898493Y955393D02*
X894943Y955393D01*
X894943Y959194D02*
X898493Y959194D01*
X894943Y959194D02*
X894943Y960994D01*
X898493Y960994D01*
X898493Y959194D01*
X898493Y960393D02*
X894943Y960393D01*
X894943Y964194D02*
X898493Y964194D01*
X894943Y964194D02*
X894943Y965994D01*
X898493Y965994D01*
X898493Y964194D01*
X898493Y965393D02*
X894943Y965393D01*
X894943Y969194D02*
X898493Y969194D01*
X894943Y969194D02*
X894943Y970994D01*
X898493Y970994D01*
X898493Y969194D01*
X898493Y970393D02*
X894943Y970393D01*
X892118Y973819D02*
X892118Y977369D01*
X892118Y973819D02*
X890318Y973819D01*
X890318Y977369D01*
X892118Y977369D01*
X892118Y975018D02*
X890318Y975018D01*
X890318Y976217D02*
X892118Y976217D01*
X887118Y977369D02*
X887118Y973819D01*
X885318Y973819D01*
X885318Y977369D01*
X887118Y977369D01*
X887118Y975018D02*
X885318Y975018D01*
X885318Y976217D02*
X887118Y976217D01*
X882118Y977369D02*
X882118Y973819D01*
X880318Y973819D01*
X880318Y977369D01*
X882118Y977369D01*
X882118Y975018D02*
X880318Y975018D01*
X880318Y976217D02*
X882118Y976217D01*
X877118Y977369D02*
X877118Y973819D01*
X875318Y973819D01*
X875318Y977369D01*
X877118Y977369D01*
X877118Y975018D02*
X875318Y975018D01*
X875318Y976217D02*
X877118Y976217D01*
X872118Y977369D02*
X872118Y973819D01*
X870318Y973819D01*
X870318Y977369D01*
X872118Y977369D01*
X872118Y975018D02*
X870318Y975018D01*
X870318Y976217D02*
X872118Y976217D01*
X867118Y977369D02*
X867118Y973819D01*
X865318Y973819D01*
X865318Y977369D01*
X867118Y977369D01*
X867118Y975018D02*
X865318Y975018D01*
X865318Y976217D02*
X867118Y976217D01*
X862118Y977369D02*
X862118Y973819D01*
X860318Y973819D01*
X860318Y977369D01*
X862118Y977369D01*
X862118Y975018D02*
X860318Y975018D01*
X860318Y976217D02*
X862118Y976217D01*
X857118Y977369D02*
X857118Y973819D01*
X855318Y973819D01*
X855318Y977369D01*
X857118Y977369D01*
X857118Y975018D02*
X855318Y975018D01*
X855318Y976217D02*
X857118Y976217D01*
X852118Y977369D02*
X852118Y973819D01*
X850318Y973819D01*
X850318Y977369D01*
X852118Y977369D01*
X852118Y975018D02*
X850318Y975018D01*
X850318Y976217D02*
X852118Y976217D01*
X847118Y977369D02*
X847118Y973819D01*
X845318Y973819D01*
X845318Y977369D01*
X847118Y977369D01*
X847118Y975018D02*
X845318Y975018D01*
X845318Y976217D02*
X847118Y976217D01*
X842118Y977369D02*
X842118Y973819D01*
X840318Y973819D01*
X840318Y977369D01*
X842118Y977369D01*
X842118Y975018D02*
X840318Y975018D01*
X840318Y976217D02*
X842118Y976217D01*
X837118Y977369D02*
X837118Y973819D01*
X835318Y973819D01*
X835318Y977369D01*
X837118Y977369D01*
X837118Y975018D02*
X835318Y975018D01*
X835318Y976217D02*
X837118Y976217D01*
D19*
X850718Y955594D03*
X850718Y929594D03*
X876718Y929594D03*
X876718Y955594D03*
D10*
X811934Y944404D02*
X805266Y944404D01*
X811934Y944404D02*
X811934Y937736D01*
X805266Y937736D01*
X805266Y944404D01*
X805266Y939958D02*
X811934Y939958D01*
X811934Y942180D02*
X805266Y942180D01*
X805266Y944402D02*
X811934Y944402D01*
X796694Y944404D02*
X790026Y944404D01*
X796694Y944404D02*
X796694Y937736D01*
X790026Y937736D01*
X790026Y944404D01*
X790026Y939958D02*
X796694Y939958D01*
X796694Y942180D02*
X790026Y942180D01*
X790026Y944402D02*
X796694Y944402D01*
X805266Y930434D02*
X811934Y930434D01*
X811934Y923766D01*
X805266Y923766D01*
X805266Y930434D01*
X805266Y925988D02*
X811934Y925988D01*
X811934Y928210D02*
X805266Y928210D01*
X805266Y930432D02*
X811934Y930432D01*
X796694Y930434D02*
X790026Y930434D01*
X796694Y930434D02*
X796694Y923766D01*
X790026Y923766D01*
X790026Y930434D01*
X790026Y925988D02*
X796694Y925988D01*
X796694Y928210D02*
X790026Y928210D01*
X790026Y930432D02*
X796694Y930432D01*
D20*
X817862Y994664D03*
X800862Y994664D03*
D10*
X814664Y984536D02*
X814664Y977868D01*
X814664Y984536D02*
X821332Y984536D01*
X821332Y977868D01*
X814664Y977868D01*
X814664Y980090D02*
X821332Y980090D01*
X821332Y982312D02*
X814664Y982312D01*
X814664Y984534D02*
X821332Y984534D01*
X814664Y969296D02*
X814664Y962628D01*
X814664Y969296D02*
X821332Y969296D01*
X821332Y962628D01*
X814664Y962628D01*
X814664Y964850D02*
X821332Y964850D01*
X821332Y967072D02*
X814664Y967072D01*
X814664Y969294D02*
X821332Y969294D01*
D21*
X800980Y965340D03*
X800980Y982840D03*
D10*
X948776Y878046D02*
X955444Y878046D01*
X948776Y878046D02*
X948776Y884714D01*
X955444Y884714D01*
X955444Y878046D01*
X955444Y880268D02*
X948776Y880268D01*
X948776Y882490D02*
X955444Y882490D01*
X955444Y884712D02*
X948776Y884712D01*
X964016Y878046D02*
X970684Y878046D01*
X964016Y878046D02*
X964016Y884714D01*
X970684Y884714D01*
X970684Y878046D01*
X970684Y880268D02*
X964016Y880268D01*
X964016Y882490D02*
X970684Y882490D01*
X970684Y884712D02*
X964016Y884712D01*
D22*
X613900Y518830D03*
X647900Y518830D03*
X759860Y518830D03*
X725860Y518830D03*
X846890Y518930D03*
X812890Y518930D03*
X924450Y518830D03*
X958450Y518830D03*
D15*
X955920Y481330D03*
X964810Y461010D03*
X947030Y461010D03*
D10*
X766214Y498316D02*
X759546Y498316D01*
X759546Y504984D01*
X766214Y504984D01*
X766214Y498316D01*
X766214Y500538D02*
X759546Y500538D01*
X759546Y502760D02*
X766214Y502760D01*
X766214Y504982D02*
X759546Y504982D01*
X774786Y498316D02*
X781454Y498316D01*
X774786Y498316D02*
X774786Y504984D01*
X781454Y504984D01*
X781454Y498316D01*
X781454Y500538D02*
X774786Y500538D01*
X774786Y502760D02*
X781454Y502760D01*
X781454Y504982D02*
X774786Y504982D01*
D23*
X773990Y49020D03*
X763990Y49020D03*
X753990Y49020D03*
X743990Y49020D03*
X733990Y49020D03*
X723990Y49020D03*
D24*
X786990Y10270D03*
X680990Y10270D03*
D23*
X713990Y49020D03*
X703990Y49020D03*
X693990Y49020D03*
D10*
X778914Y420846D02*
X778914Y427514D01*
X778914Y420846D02*
X772246Y420846D01*
X772246Y427514D01*
X778914Y427514D01*
X778914Y423068D02*
X772246Y423068D01*
X772246Y425290D02*
X778914Y425290D01*
X778914Y427512D02*
X772246Y427512D01*
X778914Y436086D02*
X778914Y442754D01*
X778914Y436086D02*
X772246Y436086D01*
X772246Y442754D01*
X778914Y442754D01*
X778914Y438308D02*
X772246Y438308D01*
X772246Y440530D02*
X778914Y440530D01*
X778914Y442752D02*
X772246Y442752D01*
X922106Y424974D02*
X922106Y418306D01*
X922106Y424974D02*
X928774Y424974D01*
X928774Y418306D01*
X922106Y418306D01*
X922106Y420528D02*
X928774Y420528D01*
X928774Y422750D02*
X922106Y422750D01*
X922106Y424972D02*
X928774Y424972D01*
X922106Y409734D02*
X922106Y403066D01*
X922106Y409734D02*
X928774Y409734D01*
X928774Y403066D01*
X922106Y403066D01*
X922106Y405288D02*
X928774Y405288D01*
X928774Y407510D02*
X922106Y407510D01*
X922106Y409732D02*
X928774Y409732D01*
D25*
X701040Y709930D03*
X718040Y709930D03*
D10*
X873576Y887206D02*
X880244Y887206D01*
X873576Y887206D02*
X873576Y893874D01*
X880244Y893874D01*
X880244Y887206D01*
X880244Y889428D02*
X873576Y889428D01*
X873576Y891650D02*
X880244Y891650D01*
X880244Y893872D02*
X873576Y893872D01*
X888816Y887206D02*
X895484Y887206D01*
X888816Y887206D02*
X888816Y893874D01*
X895484Y893874D01*
X895484Y887206D01*
X895484Y889428D02*
X888816Y889428D01*
X888816Y891650D02*
X895484Y891650D01*
X895484Y893872D02*
X888816Y893872D01*
X856892Y995204D02*
X850224Y995204D01*
X856892Y995204D02*
X856892Y988536D01*
X850224Y988536D01*
X850224Y995204D01*
X850224Y990758D02*
X856892Y990758D01*
X856892Y992980D02*
X850224Y992980D01*
X850224Y995202D02*
X856892Y995202D01*
X841652Y995204D02*
X834984Y995204D01*
X841652Y995204D02*
X841652Y988536D01*
X834984Y988536D01*
X834984Y995204D01*
X834984Y990758D02*
X841652Y990758D01*
X841652Y992980D02*
X834984Y992980D01*
X834984Y995202D02*
X841652Y995202D01*
X923376Y972026D02*
X930044Y972026D01*
X923376Y972026D02*
X923376Y978694D01*
X930044Y978694D01*
X930044Y972026D01*
X930044Y974248D02*
X923376Y974248D01*
X923376Y976470D02*
X930044Y976470D01*
X930044Y978692D02*
X923376Y978692D01*
X938616Y972026D02*
X945284Y972026D01*
X938616Y972026D02*
X938616Y978694D01*
X945284Y978694D01*
X945284Y972026D01*
X945284Y974248D02*
X938616Y974248D01*
X938616Y976470D02*
X945284Y976470D01*
X945284Y978692D02*
X938616Y978692D01*
X948776Y895191D02*
X955444Y895191D01*
X948776Y895191D02*
X948776Y901859D01*
X955444Y901859D01*
X955444Y895191D01*
X955444Y897413D02*
X948776Y897413D01*
X948776Y899635D02*
X955444Y899635D01*
X955444Y901857D02*
X948776Y901857D01*
X964016Y895191D02*
X970684Y895191D01*
X964016Y895191D02*
X964016Y901859D01*
X970684Y901859D01*
X970684Y895191D01*
X970684Y897413D02*
X964016Y897413D01*
X964016Y899635D02*
X970684Y899635D01*
X970684Y901857D02*
X964016Y901857D01*
X852574Y809784D02*
X845906Y809784D01*
X852574Y809784D02*
X852574Y803116D01*
X845906Y803116D01*
X845906Y809784D01*
X845906Y805338D02*
X852574Y805338D01*
X852574Y807560D02*
X845906Y807560D01*
X845906Y809782D02*
X852574Y809782D01*
X837334Y809784D02*
X830666Y809784D01*
X837334Y809784D02*
X837334Y803116D01*
X830666Y803116D01*
X830666Y809784D01*
X830666Y805338D02*
X837334Y805338D01*
X837334Y807560D02*
X830666Y807560D01*
X830666Y809782D02*
X837334Y809782D01*
X875116Y809784D02*
X881784Y809784D01*
X881784Y803116D01*
X875116Y803116D01*
X875116Y809784D01*
X875116Y805338D02*
X881784Y805338D01*
X881784Y807560D02*
X875116Y807560D01*
X875116Y809782D02*
X881784Y809782D01*
X866544Y809784D02*
X859876Y809784D01*
X866544Y809784D02*
X866544Y803116D01*
X859876Y803116D01*
X859876Y809784D01*
X859876Y805338D02*
X866544Y805338D01*
X866544Y807560D02*
X859876Y807560D01*
X859876Y809782D02*
X866544Y809782D01*
X866544Y789146D02*
X859876Y789146D01*
X859876Y795814D01*
X866544Y795814D01*
X866544Y789146D01*
X866544Y791368D02*
X859876Y791368D01*
X859876Y793590D02*
X866544Y793590D01*
X866544Y795812D02*
X859876Y795812D01*
X875116Y789146D02*
X881784Y789146D01*
X875116Y789146D02*
X875116Y795814D01*
X881784Y795814D01*
X881784Y789146D01*
X881784Y791368D02*
X875116Y791368D01*
X875116Y793590D02*
X881784Y793590D01*
X881784Y795812D02*
X875116Y795812D01*
X929726Y353536D02*
X936394Y353536D01*
X929726Y353536D02*
X929726Y360204D01*
X936394Y360204D01*
X936394Y353536D01*
X936394Y355758D02*
X929726Y355758D01*
X929726Y357980D02*
X936394Y357980D01*
X936394Y360202D02*
X929726Y360202D01*
X944966Y353536D02*
X951634Y353536D01*
X944966Y353536D02*
X944966Y360204D01*
X951634Y360204D01*
X951634Y353536D01*
X951634Y355758D02*
X944966Y355758D01*
X944966Y357980D02*
X951634Y357980D01*
X951634Y360202D02*
X944966Y360202D01*
X921154Y344964D02*
X921154Y338296D01*
X914486Y338296D01*
X914486Y344964D01*
X921154Y344964D01*
X921154Y340518D02*
X914486Y340518D01*
X914486Y342740D02*
X921154Y342740D01*
X921154Y344962D02*
X914486Y344962D01*
X921154Y353536D02*
X921154Y360204D01*
X921154Y353536D02*
X914486Y353536D01*
X914486Y360204D01*
X921154Y360204D01*
X921154Y355758D02*
X914486Y355758D01*
X914486Y357980D02*
X921154Y357980D01*
X921154Y360202D02*
X914486Y360202D01*
D26*
X638420Y821690D03*
X661280Y821690D03*
X684140Y821690D03*
D27*
X661280Y885190D03*
D28*
X747005Y927100D03*
X717795Y927100D03*
X705095Y828040D03*
X734305Y828040D03*
D29*
X746370Y471805D03*
X746370Y442595D03*
D10*
X725256Y310674D02*
X725256Y304006D01*
X725256Y310674D02*
X731924Y310674D01*
X731924Y304006D01*
X725256Y304006D01*
X725256Y306228D02*
X731924Y306228D01*
X731924Y308450D02*
X725256Y308450D01*
X725256Y310672D02*
X731924Y310672D01*
X725256Y295434D02*
X725256Y288766D01*
X725256Y295434D02*
X731924Y295434D01*
X731924Y288766D01*
X725256Y288766D01*
X725256Y290988D02*
X731924Y290988D01*
X731924Y293210D02*
X725256Y293210D01*
X725256Y295432D02*
X731924Y295432D01*
X948776Y864076D02*
X955444Y864076D01*
X948776Y864076D02*
X948776Y870744D01*
X955444Y870744D01*
X955444Y864076D01*
X955444Y866298D02*
X948776Y866298D01*
X948776Y868520D02*
X955444Y868520D01*
X955444Y870742D02*
X948776Y870742D01*
X964016Y864076D02*
X970684Y864076D01*
X964016Y864076D02*
X964016Y870744D01*
X970684Y870744D01*
X970684Y864076D01*
X970684Y866298D02*
X964016Y866298D01*
X964016Y868520D02*
X970684Y868520D01*
X970684Y870742D02*
X964016Y870742D01*
X938934Y879316D02*
X938934Y885984D01*
X938934Y879316D02*
X932266Y879316D01*
X932266Y885984D01*
X938934Y885984D01*
X938934Y881538D02*
X932266Y881538D01*
X932266Y883760D02*
X938934Y883760D01*
X938934Y885982D02*
X932266Y885982D01*
X938934Y894556D02*
X938934Y901224D01*
X938934Y894556D02*
X932266Y894556D01*
X932266Y901224D01*
X938934Y901224D01*
X938934Y896778D02*
X932266Y896778D01*
X932266Y899000D02*
X938934Y899000D01*
X938934Y901222D02*
X932266Y901222D01*
D30*
X857114Y171450D03*
X857114Y204470D03*
X619116Y300990D03*
X652136Y300990D03*
X753990Y767080D03*
X720970Y767080D03*
D31*
X763571Y700017D02*
X763571Y683267D01*
X763571Y700017D02*
X768821Y700017D01*
X768821Y683267D01*
X763571Y683267D01*
X763571Y688516D02*
X768821Y688516D01*
X768821Y693765D02*
X763571Y693765D01*
X763571Y699014D02*
X768821Y699014D01*
X733571Y700017D02*
X733571Y683267D01*
X733571Y700017D02*
X738821Y700017D01*
X738821Y683267D01*
X733571Y683267D01*
X733571Y688516D02*
X738821Y688516D01*
X738821Y693765D02*
X733571Y693765D01*
X733571Y699014D02*
X738821Y699014D01*
D32*
X753696Y704132D02*
X753696Y709632D01*
X753696Y704132D02*
X748696Y704132D01*
X748696Y709632D01*
X753696Y709632D01*
X753696Y709131D02*
X748696Y709131D01*
D33*
X854320Y486800D03*
X877320Y449800D03*
X877320Y486800D03*
X854320Y449800D03*
D25*
X840604Y455558D03*
X840604Y472558D03*
X892564Y494446D03*
X892564Y477446D03*
D34*
X842590Y42756D03*
X868590Y42756D03*
X849090Y42756D03*
X855590Y42756D03*
X862090Y42756D03*
D35*
X815590Y16256D03*
X895590Y16256D03*
D36*
X842890Y16256D03*
X868290Y16256D03*
D10*
X935568Y271240D02*
X935568Y277908D01*
X942236Y277908D01*
X942236Y271240D01*
X935568Y271240D01*
X935568Y273462D02*
X942236Y273462D01*
X942236Y275684D02*
X935568Y275684D01*
X935568Y277906D02*
X942236Y277906D01*
X935568Y262668D02*
X935568Y256000D01*
X935568Y262668D02*
X942236Y262668D01*
X942236Y256000D01*
X935568Y256000D01*
X935568Y258222D02*
X942236Y258222D01*
X942236Y260444D02*
X935568Y260444D01*
X935568Y262666D02*
X942236Y262666D01*
X965540Y277908D02*
X972208Y277908D01*
X972208Y271240D01*
X965540Y271240D01*
X965540Y277908D01*
X965540Y273462D02*
X972208Y273462D01*
X972208Y275684D02*
X965540Y275684D01*
X965540Y277906D02*
X972208Y277906D01*
X956968Y277908D02*
X950300Y277908D01*
X956968Y277908D02*
X956968Y271240D01*
X950300Y271240D01*
X950300Y277908D01*
X950300Y273462D02*
X956968Y273462D01*
X956968Y275684D02*
X950300Y275684D01*
X950300Y277906D02*
X956968Y277906D01*
X729892Y348012D02*
X723224Y348012D01*
X729892Y348012D02*
X729892Y341344D01*
X723224Y341344D01*
X723224Y348012D01*
X723224Y343566D02*
X729892Y343566D01*
X729892Y345788D02*
X723224Y345788D01*
X723224Y348010D02*
X729892Y348010D01*
X714652Y348012D02*
X707984Y348012D01*
X714652Y348012D02*
X714652Y341344D01*
X707984Y341344D01*
X707984Y348012D01*
X707984Y343566D02*
X714652Y343566D01*
X714652Y345788D02*
X707984Y345788D01*
X707984Y348010D02*
X714652Y348010D01*
X1371296Y890746D02*
X1377964Y890746D01*
X1371296Y890746D02*
X1371296Y897414D01*
X1377964Y897414D01*
X1377964Y890746D01*
X1377964Y892968D02*
X1371296Y892968D01*
X1371296Y895190D02*
X1377964Y895190D01*
X1377964Y897412D02*
X1371296Y897412D01*
X1386536Y890746D02*
X1393204Y890746D01*
X1386536Y890746D02*
X1386536Y897414D01*
X1393204Y897414D01*
X1393204Y890746D01*
X1393204Y892968D02*
X1386536Y892968D01*
X1386536Y895190D02*
X1393204Y895190D01*
X1393204Y897412D02*
X1386536Y897412D01*
D11*
X1461200Y1060610D03*
X1461200Y1046150D03*
X1409200Y1060610D03*
X1409200Y1046150D03*
D12*
X1523290Y570080D03*
X1523290Y590080D03*
X1373290Y570080D03*
X1523290Y610080D03*
X1523290Y630080D03*
X1523290Y650080D03*
X1523290Y670080D03*
X1523290Y690080D03*
X1523290Y710080D03*
X1373290Y590080D03*
X1373290Y610080D03*
X1373290Y630080D03*
X1373290Y650080D03*
X1373290Y670080D03*
X1373290Y690080D03*
X1373290Y710080D03*
D13*
X1464292Y420624D03*
X1459466Y420624D03*
X1454386Y420624D03*
X1449306Y420624D03*
X1444480Y420624D03*
X1439400Y420624D03*
X1434320Y420624D03*
X1429240Y420624D03*
X1424414Y420624D03*
X1419334Y420624D03*
X1414254Y420624D03*
X1409428Y420624D03*
D14*
X1394696Y405892D03*
X1394696Y401066D03*
X1394696Y395986D03*
X1394696Y390906D03*
X1394696Y386080D03*
X1394696Y381000D03*
X1394696Y375920D03*
X1394696Y370840D03*
X1394696Y366014D03*
X1394696Y360934D03*
X1394696Y355854D03*
X1394696Y351028D03*
D13*
X1409428Y336296D03*
X1414254Y336296D03*
X1419334Y336296D03*
X1424414Y336296D03*
X1429240Y336296D03*
X1434320Y336296D03*
X1439400Y336296D03*
X1444480Y336296D03*
X1449306Y336296D03*
X1454386Y336296D03*
X1459466Y336296D03*
X1464292Y336296D03*
D14*
X1479024Y351028D03*
X1479024Y355854D03*
X1479024Y360934D03*
X1479024Y366014D03*
X1479024Y370840D03*
X1479024Y375920D03*
X1479024Y381000D03*
X1479024Y386080D03*
X1479024Y390906D03*
X1479024Y395986D03*
X1479024Y401066D03*
X1479024Y405892D03*
D10*
X1441210Y88424D02*
X1441210Y81756D01*
X1434542Y81756D01*
X1434542Y88424D01*
X1441210Y88424D01*
X1441210Y83978D02*
X1434542Y83978D01*
X1434542Y86200D02*
X1441210Y86200D01*
X1441210Y88422D02*
X1434542Y88422D01*
X1441210Y96996D02*
X1441210Y103664D01*
X1441210Y96996D02*
X1434542Y96996D01*
X1434542Y103664D01*
X1441210Y103664D01*
X1441210Y99218D02*
X1434542Y99218D01*
X1434542Y101440D02*
X1441210Y101440D01*
X1441210Y103662D02*
X1434542Y103662D01*
X1427240Y88424D02*
X1427240Y81756D01*
X1420572Y81756D01*
X1420572Y88424D01*
X1427240Y88424D01*
X1427240Y83978D02*
X1420572Y83978D01*
X1420572Y86200D02*
X1427240Y86200D01*
X1427240Y88422D02*
X1420572Y88422D01*
X1427240Y96996D02*
X1427240Y103664D01*
X1427240Y96996D02*
X1420572Y96996D01*
X1420572Y103664D01*
X1427240Y103664D01*
X1427240Y99218D02*
X1420572Y99218D01*
X1420572Y101440D02*
X1427240Y101440D01*
X1427240Y103662D02*
X1420572Y103662D01*
X1437336Y304006D02*
X1444004Y304006D01*
X1437336Y304006D02*
X1437336Y310674D01*
X1444004Y310674D01*
X1444004Y304006D01*
X1444004Y306228D02*
X1437336Y306228D01*
X1437336Y308450D02*
X1444004Y308450D01*
X1444004Y310672D02*
X1437336Y310672D01*
X1452576Y304006D02*
X1459244Y304006D01*
X1452576Y304006D02*
X1452576Y310674D01*
X1459244Y310674D01*
X1459244Y304006D01*
X1459244Y306228D02*
X1452576Y306228D01*
X1452576Y308450D02*
X1459244Y308450D01*
X1459244Y310672D02*
X1452576Y310672D01*
D15*
X1476738Y219710D03*
X1467848Y240030D03*
X1485628Y240030D03*
D16*
X1262870Y300990D03*
X1283190Y309880D03*
X1283190Y292100D03*
D17*
X1368890Y801671D03*
X1359390Y801671D03*
X1349890Y801671D03*
X1349890Y775669D03*
X1368890Y775669D03*
D10*
X1395680Y780574D02*
X1402348Y780574D01*
X1402348Y773906D01*
X1395680Y773906D01*
X1395680Y780574D01*
X1395680Y776128D02*
X1402348Y776128D01*
X1402348Y778350D02*
X1395680Y778350D01*
X1395680Y780572D02*
X1402348Y780572D01*
X1387108Y780574D02*
X1380440Y780574D01*
X1387108Y780574D02*
X1387108Y773906D01*
X1380440Y773906D01*
X1380440Y780574D01*
X1380440Y776128D02*
X1387108Y776128D01*
X1387108Y778350D02*
X1380440Y778350D01*
X1380440Y780572D02*
X1387108Y780572D01*
D15*
X1320020Y805180D03*
X1328910Y784860D03*
X1311130Y784860D03*
D10*
X1375106Y758984D02*
X1381774Y758984D01*
X1381774Y752316D01*
X1375106Y752316D01*
X1375106Y758984D01*
X1375106Y754538D02*
X1381774Y754538D01*
X1381774Y756760D02*
X1375106Y756760D01*
X1375106Y758982D02*
X1381774Y758982D01*
X1366534Y758984D02*
X1359866Y758984D01*
X1366534Y758984D02*
X1366534Y752316D01*
X1359866Y752316D01*
X1359866Y758984D01*
X1359866Y754538D02*
X1366534Y754538D01*
X1366534Y756760D02*
X1359866Y756760D01*
X1359866Y758982D02*
X1366534Y758982D01*
X1292620Y757460D02*
X1285952Y757460D01*
X1292620Y757460D02*
X1292620Y750792D01*
X1285952Y750792D01*
X1285952Y757460D01*
X1285952Y753014D02*
X1292620Y753014D01*
X1292620Y755236D02*
X1285952Y755236D01*
X1285952Y757458D02*
X1292620Y757458D01*
X1277380Y757460D02*
X1270712Y757460D01*
X1277380Y757460D02*
X1277380Y750792D01*
X1270712Y750792D01*
X1270712Y757460D01*
X1270712Y753014D02*
X1277380Y753014D01*
X1277380Y755236D02*
X1270712Y755236D01*
X1270712Y757458D02*
X1277380Y757458D01*
X1292556Y805974D02*
X1299224Y805974D01*
X1299224Y799306D01*
X1292556Y799306D01*
X1292556Y805974D01*
X1292556Y801528D02*
X1299224Y801528D01*
X1299224Y803750D02*
X1292556Y803750D01*
X1292556Y805972D02*
X1299224Y805972D01*
X1283984Y805974D02*
X1277316Y805974D01*
X1283984Y805974D02*
X1283984Y799306D01*
X1277316Y799306D01*
X1277316Y805974D01*
X1277316Y801528D02*
X1283984Y801528D01*
X1283984Y803750D02*
X1277316Y803750D01*
X1277316Y805972D02*
X1283984Y805972D01*
X1273506Y792004D02*
X1273506Y785336D01*
X1273506Y792004D02*
X1280174Y792004D01*
X1280174Y785336D01*
X1273506Y785336D01*
X1273506Y787558D02*
X1280174Y787558D01*
X1280174Y789780D02*
X1273506Y789780D01*
X1273506Y792002D02*
X1280174Y792002D01*
X1273506Y776764D02*
X1273506Y770096D01*
X1273506Y776764D02*
X1280174Y776764D01*
X1280174Y770096D01*
X1273506Y770096D01*
X1273506Y772318D02*
X1280174Y772318D01*
X1280174Y774540D02*
X1273506Y774540D01*
X1273506Y776762D02*
X1280174Y776762D01*
X1253186Y785336D02*
X1253186Y792004D01*
X1259854Y792004D01*
X1259854Y785336D01*
X1253186Y785336D01*
X1253186Y787558D02*
X1259854Y787558D01*
X1259854Y789780D02*
X1253186Y789780D01*
X1253186Y792002D02*
X1259854Y792002D01*
X1253186Y776764D02*
X1253186Y770096D01*
X1253186Y776764D02*
X1259854Y776764D01*
X1259854Y770096D01*
X1253186Y770096D01*
X1253186Y772318D02*
X1259854Y772318D01*
X1259854Y774540D02*
X1253186Y774540D01*
X1253186Y776762D02*
X1259854Y776762D01*
X1243344Y804704D02*
X1236676Y804704D01*
X1243344Y804704D02*
X1243344Y798036D01*
X1236676Y798036D01*
X1236676Y804704D01*
X1236676Y800258D02*
X1243344Y800258D01*
X1243344Y802480D02*
X1236676Y802480D01*
X1236676Y804702D02*
X1243344Y804702D01*
X1228104Y804704D02*
X1221436Y804704D01*
X1228104Y804704D02*
X1228104Y798036D01*
X1221436Y798036D01*
X1221436Y804704D01*
X1221436Y800258D02*
X1228104Y800258D01*
X1228104Y802480D02*
X1221436Y802480D01*
X1221436Y804702D02*
X1228104Y804702D01*
X1330656Y890746D02*
X1337324Y890746D01*
X1330656Y890746D02*
X1330656Y897414D01*
X1337324Y897414D01*
X1337324Y890746D01*
X1337324Y892968D02*
X1330656Y892968D01*
X1330656Y895190D02*
X1337324Y895190D01*
X1337324Y897412D02*
X1330656Y897412D01*
X1345896Y890746D02*
X1352564Y890746D01*
X1345896Y890746D02*
X1345896Y897414D01*
X1352564Y897414D01*
X1352564Y890746D01*
X1352564Y892968D02*
X1345896Y892968D01*
X1345896Y895190D02*
X1352564Y895190D01*
X1352564Y897412D02*
X1345896Y897412D01*
X1432574Y739934D02*
X1432574Y733266D01*
X1425906Y733266D01*
X1425906Y739934D01*
X1432574Y739934D01*
X1432574Y735488D02*
X1425906Y735488D01*
X1425906Y737710D02*
X1432574Y737710D01*
X1432574Y739932D02*
X1425906Y739932D01*
X1432574Y748506D02*
X1432574Y755174D01*
X1432574Y748506D02*
X1425906Y748506D01*
X1425906Y755174D01*
X1432574Y755174D01*
X1432574Y750728D02*
X1425906Y750728D01*
X1425906Y752950D02*
X1432574Y752950D01*
X1432574Y755172D02*
X1425906Y755172D01*
X1417334Y739934D02*
X1417334Y733266D01*
X1410666Y733266D01*
X1410666Y739934D01*
X1417334Y739934D01*
X1417334Y735488D02*
X1410666Y735488D01*
X1410666Y737710D02*
X1417334Y737710D01*
X1417334Y739932D02*
X1410666Y739932D01*
X1417334Y748506D02*
X1417334Y755174D01*
X1417334Y748506D02*
X1410666Y748506D01*
X1410666Y755174D01*
X1417334Y755174D01*
X1417334Y750728D02*
X1410666Y750728D01*
X1410666Y752950D02*
X1417334Y752950D01*
X1417334Y755172D02*
X1410666Y755172D01*
X1479754Y442024D02*
X1479754Y435356D01*
X1473086Y435356D01*
X1473086Y442024D01*
X1479754Y442024D01*
X1479754Y437578D02*
X1473086Y437578D01*
X1473086Y439800D02*
X1479754Y439800D01*
X1479754Y442022D02*
X1473086Y442022D01*
X1479754Y450596D02*
X1479754Y457264D01*
X1479754Y450596D02*
X1473086Y450596D01*
X1473086Y457264D01*
X1479754Y457264D01*
X1479754Y452818D02*
X1473086Y452818D01*
X1473086Y455040D02*
X1479754Y455040D01*
X1479754Y457262D02*
X1473086Y457262D01*
X1379234Y350044D02*
X1372566Y350044D01*
X1379234Y350044D02*
X1379234Y343376D01*
X1372566Y343376D01*
X1372566Y350044D01*
X1372566Y345598D02*
X1379234Y345598D01*
X1379234Y347820D02*
X1372566Y347820D01*
X1372566Y350042D02*
X1379234Y350042D01*
X1363994Y350044D02*
X1357326Y350044D01*
X1363994Y350044D02*
X1363994Y343376D01*
X1357326Y343376D01*
X1357326Y350044D01*
X1357326Y345598D02*
X1363994Y345598D01*
X1363994Y347820D02*
X1357326Y347820D01*
X1357326Y350042D02*
X1363994Y350042D01*
D18*
X1408943Y969194D02*
X1412493Y969194D01*
X1408943Y969194D02*
X1408943Y970994D01*
X1412493Y970994D01*
X1412493Y969194D01*
X1412493Y970393D02*
X1408943Y970393D01*
X1408943Y964194D02*
X1412493Y964194D01*
X1408943Y964194D02*
X1408943Y965994D01*
X1412493Y965994D01*
X1412493Y964194D01*
X1412493Y965393D02*
X1408943Y965393D01*
X1408943Y959194D02*
X1412493Y959194D01*
X1408943Y959194D02*
X1408943Y960994D01*
X1412493Y960994D01*
X1412493Y959194D01*
X1412493Y960393D02*
X1408943Y960393D01*
X1408943Y954194D02*
X1412493Y954194D01*
X1408943Y954194D02*
X1408943Y955994D01*
X1412493Y955994D01*
X1412493Y954194D01*
X1412493Y955393D02*
X1408943Y955393D01*
X1408943Y949194D02*
X1412493Y949194D01*
X1408943Y949194D02*
X1408943Y950994D01*
X1412493Y950994D01*
X1412493Y949194D01*
X1412493Y950393D02*
X1408943Y950393D01*
X1408943Y944194D02*
X1412493Y944194D01*
X1408943Y944194D02*
X1408943Y945994D01*
X1412493Y945994D01*
X1412493Y944194D01*
X1412493Y945393D02*
X1408943Y945393D01*
X1408943Y939194D02*
X1412493Y939194D01*
X1408943Y939194D02*
X1408943Y940994D01*
X1412493Y940994D01*
X1412493Y939194D01*
X1412493Y940393D02*
X1408943Y940393D01*
X1408943Y934194D02*
X1412493Y934194D01*
X1408943Y934194D02*
X1408943Y935994D01*
X1412493Y935994D01*
X1412493Y934194D01*
X1412493Y935393D02*
X1408943Y935393D01*
X1408943Y929194D02*
X1412493Y929194D01*
X1408943Y929194D02*
X1408943Y930994D01*
X1412493Y930994D01*
X1412493Y929194D01*
X1412493Y930393D02*
X1408943Y930393D01*
X1408943Y924194D02*
X1412493Y924194D01*
X1408943Y924194D02*
X1408943Y925994D01*
X1412493Y925994D01*
X1412493Y924194D01*
X1412493Y925393D02*
X1408943Y925393D01*
X1408943Y919194D02*
X1412493Y919194D01*
X1408943Y919194D02*
X1408943Y920994D01*
X1412493Y920994D01*
X1412493Y919194D01*
X1412493Y920393D02*
X1408943Y920393D01*
X1408943Y914194D02*
X1412493Y914194D01*
X1408943Y914194D02*
X1408943Y915994D01*
X1412493Y915994D01*
X1412493Y914194D01*
X1412493Y915393D02*
X1408943Y915393D01*
X1417118Y911369D02*
X1417118Y907819D01*
X1415318Y907819D01*
X1415318Y911369D01*
X1417118Y911369D01*
X1417118Y909018D02*
X1415318Y909018D01*
X1415318Y910217D02*
X1417118Y910217D01*
X1422118Y911369D02*
X1422118Y907819D01*
X1420318Y907819D01*
X1420318Y911369D01*
X1422118Y911369D01*
X1422118Y909018D02*
X1420318Y909018D01*
X1420318Y910217D02*
X1422118Y910217D01*
X1427118Y911369D02*
X1427118Y907819D01*
X1425318Y907819D01*
X1425318Y911369D01*
X1427118Y911369D01*
X1427118Y909018D02*
X1425318Y909018D01*
X1425318Y910217D02*
X1427118Y910217D01*
X1432118Y911369D02*
X1432118Y907819D01*
X1430318Y907819D01*
X1430318Y911369D01*
X1432118Y911369D01*
X1432118Y909018D02*
X1430318Y909018D01*
X1430318Y910217D02*
X1432118Y910217D01*
X1437118Y911369D02*
X1437118Y907819D01*
X1435318Y907819D01*
X1435318Y911369D01*
X1437118Y911369D01*
X1437118Y909018D02*
X1435318Y909018D01*
X1435318Y910217D02*
X1437118Y910217D01*
X1442118Y911369D02*
X1442118Y907819D01*
X1440318Y907819D01*
X1440318Y911369D01*
X1442118Y911369D01*
X1442118Y909018D02*
X1440318Y909018D01*
X1440318Y910217D02*
X1442118Y910217D01*
X1447118Y911369D02*
X1447118Y907819D01*
X1445318Y907819D01*
X1445318Y911369D01*
X1447118Y911369D01*
X1447118Y909018D02*
X1445318Y909018D01*
X1445318Y910217D02*
X1447118Y910217D01*
X1452118Y911369D02*
X1452118Y907819D01*
X1450318Y907819D01*
X1450318Y911369D01*
X1452118Y911369D01*
X1452118Y909018D02*
X1450318Y909018D01*
X1450318Y910217D02*
X1452118Y910217D01*
X1457118Y911369D02*
X1457118Y907819D01*
X1455318Y907819D01*
X1455318Y911369D01*
X1457118Y911369D01*
X1457118Y909018D02*
X1455318Y909018D01*
X1455318Y910217D02*
X1457118Y910217D01*
X1462118Y911369D02*
X1462118Y907819D01*
X1460318Y907819D01*
X1460318Y911369D01*
X1462118Y911369D01*
X1462118Y909018D02*
X1460318Y909018D01*
X1460318Y910217D02*
X1462118Y910217D01*
X1467118Y911369D02*
X1467118Y907819D01*
X1465318Y907819D01*
X1465318Y911369D01*
X1467118Y911369D01*
X1467118Y909018D02*
X1465318Y909018D01*
X1465318Y910217D02*
X1467118Y910217D01*
X1472118Y911369D02*
X1472118Y907819D01*
X1470318Y907819D01*
X1470318Y911369D01*
X1472118Y911369D01*
X1472118Y909018D02*
X1470318Y909018D01*
X1470318Y910217D02*
X1472118Y910217D01*
X1474943Y914194D02*
X1478493Y914194D01*
X1474943Y914194D02*
X1474943Y915994D01*
X1478493Y915994D01*
X1478493Y914194D01*
X1478493Y915393D02*
X1474943Y915393D01*
X1474943Y919194D02*
X1478493Y919194D01*
X1474943Y919194D02*
X1474943Y920994D01*
X1478493Y920994D01*
X1478493Y919194D01*
X1478493Y920393D02*
X1474943Y920393D01*
X1474943Y924194D02*
X1478493Y924194D01*
X1474943Y924194D02*
X1474943Y925994D01*
X1478493Y925994D01*
X1478493Y924194D01*
X1478493Y925393D02*
X1474943Y925393D01*
X1474943Y929194D02*
X1478493Y929194D01*
X1474943Y929194D02*
X1474943Y930994D01*
X1478493Y930994D01*
X1478493Y929194D01*
X1478493Y930393D02*
X1474943Y930393D01*
X1474943Y934194D02*
X1478493Y934194D01*
X1474943Y934194D02*
X1474943Y935994D01*
X1478493Y935994D01*
X1478493Y934194D01*
X1478493Y935393D02*
X1474943Y935393D01*
X1474943Y939194D02*
X1478493Y939194D01*
X1474943Y939194D02*
X1474943Y940994D01*
X1478493Y940994D01*
X1478493Y939194D01*
X1478493Y940393D02*
X1474943Y940393D01*
X1474943Y944194D02*
X1478493Y944194D01*
X1474943Y944194D02*
X1474943Y945994D01*
X1478493Y945994D01*
X1478493Y944194D01*
X1478493Y945393D02*
X1474943Y945393D01*
X1474943Y949194D02*
X1478493Y949194D01*
X1474943Y949194D02*
X1474943Y950994D01*
X1478493Y950994D01*
X1478493Y949194D01*
X1478493Y950393D02*
X1474943Y950393D01*
X1474943Y954194D02*
X1478493Y954194D01*
X1474943Y954194D02*
X1474943Y955994D01*
X1478493Y955994D01*
X1478493Y954194D01*
X1478493Y955393D02*
X1474943Y955393D01*
X1474943Y959194D02*
X1478493Y959194D01*
X1474943Y959194D02*
X1474943Y960994D01*
X1478493Y960994D01*
X1478493Y959194D01*
X1478493Y960393D02*
X1474943Y960393D01*
X1474943Y964194D02*
X1478493Y964194D01*
X1474943Y964194D02*
X1474943Y965994D01*
X1478493Y965994D01*
X1478493Y964194D01*
X1478493Y965393D02*
X1474943Y965393D01*
X1474943Y969194D02*
X1478493Y969194D01*
X1474943Y969194D02*
X1474943Y970994D01*
X1478493Y970994D01*
X1478493Y969194D01*
X1478493Y970393D02*
X1474943Y970393D01*
X1472118Y973819D02*
X1472118Y977369D01*
X1472118Y973819D02*
X1470318Y973819D01*
X1470318Y977369D01*
X1472118Y977369D01*
X1472118Y975018D02*
X1470318Y975018D01*
X1470318Y976217D02*
X1472118Y976217D01*
X1467118Y977369D02*
X1467118Y973819D01*
X1465318Y973819D01*
X1465318Y977369D01*
X1467118Y977369D01*
X1467118Y975018D02*
X1465318Y975018D01*
X1465318Y976217D02*
X1467118Y976217D01*
X1462118Y977369D02*
X1462118Y973819D01*
X1460318Y973819D01*
X1460318Y977369D01*
X1462118Y977369D01*
X1462118Y975018D02*
X1460318Y975018D01*
X1460318Y976217D02*
X1462118Y976217D01*
X1457118Y977369D02*
X1457118Y973819D01*
X1455318Y973819D01*
X1455318Y977369D01*
X1457118Y977369D01*
X1457118Y975018D02*
X1455318Y975018D01*
X1455318Y976217D02*
X1457118Y976217D01*
X1452118Y977369D02*
X1452118Y973819D01*
X1450318Y973819D01*
X1450318Y977369D01*
X1452118Y977369D01*
X1452118Y975018D02*
X1450318Y975018D01*
X1450318Y976217D02*
X1452118Y976217D01*
X1447118Y977369D02*
X1447118Y973819D01*
X1445318Y973819D01*
X1445318Y977369D01*
X1447118Y977369D01*
X1447118Y975018D02*
X1445318Y975018D01*
X1445318Y976217D02*
X1447118Y976217D01*
X1442118Y977369D02*
X1442118Y973819D01*
X1440318Y973819D01*
X1440318Y977369D01*
X1442118Y977369D01*
X1442118Y975018D02*
X1440318Y975018D01*
X1440318Y976217D02*
X1442118Y976217D01*
X1437118Y977369D02*
X1437118Y973819D01*
X1435318Y973819D01*
X1435318Y977369D01*
X1437118Y977369D01*
X1437118Y975018D02*
X1435318Y975018D01*
X1435318Y976217D02*
X1437118Y976217D01*
X1432118Y977369D02*
X1432118Y973819D01*
X1430318Y973819D01*
X1430318Y977369D01*
X1432118Y977369D01*
X1432118Y975018D02*
X1430318Y975018D01*
X1430318Y976217D02*
X1432118Y976217D01*
X1427118Y977369D02*
X1427118Y973819D01*
X1425318Y973819D01*
X1425318Y977369D01*
X1427118Y977369D01*
X1427118Y975018D02*
X1425318Y975018D01*
X1425318Y976217D02*
X1427118Y976217D01*
X1422118Y977369D02*
X1422118Y973819D01*
X1420318Y973819D01*
X1420318Y977369D01*
X1422118Y977369D01*
X1422118Y975018D02*
X1420318Y975018D01*
X1420318Y976217D02*
X1422118Y976217D01*
X1417118Y977369D02*
X1417118Y973819D01*
X1415318Y973819D01*
X1415318Y977369D01*
X1417118Y977369D01*
X1417118Y975018D02*
X1415318Y975018D01*
X1415318Y976217D02*
X1417118Y976217D01*
D19*
X1430718Y955594D03*
X1430718Y929594D03*
X1456718Y929594D03*
X1456718Y955594D03*
D10*
X1391934Y944404D02*
X1385266Y944404D01*
X1391934Y944404D02*
X1391934Y937736D01*
X1385266Y937736D01*
X1385266Y944404D01*
X1385266Y939958D02*
X1391934Y939958D01*
X1391934Y942180D02*
X1385266Y942180D01*
X1385266Y944402D02*
X1391934Y944402D01*
X1376694Y944404D02*
X1370026Y944404D01*
X1376694Y944404D02*
X1376694Y937736D01*
X1370026Y937736D01*
X1370026Y944404D01*
X1370026Y939958D02*
X1376694Y939958D01*
X1376694Y942180D02*
X1370026Y942180D01*
X1370026Y944402D02*
X1376694Y944402D01*
X1385266Y930434D02*
X1391934Y930434D01*
X1391934Y923766D01*
X1385266Y923766D01*
X1385266Y930434D01*
X1385266Y925988D02*
X1391934Y925988D01*
X1391934Y928210D02*
X1385266Y928210D01*
X1385266Y930432D02*
X1391934Y930432D01*
X1376694Y930434D02*
X1370026Y930434D01*
X1376694Y930434D02*
X1376694Y923766D01*
X1370026Y923766D01*
X1370026Y930434D01*
X1370026Y925988D02*
X1376694Y925988D01*
X1376694Y928210D02*
X1370026Y928210D01*
X1370026Y930432D02*
X1376694Y930432D01*
D20*
X1397862Y994664D03*
X1380862Y994664D03*
D10*
X1394664Y984536D02*
X1394664Y977868D01*
X1394664Y984536D02*
X1401332Y984536D01*
X1401332Y977868D01*
X1394664Y977868D01*
X1394664Y980090D02*
X1401332Y980090D01*
X1401332Y982312D02*
X1394664Y982312D01*
X1394664Y984534D02*
X1401332Y984534D01*
X1394664Y969296D02*
X1394664Y962628D01*
X1394664Y969296D02*
X1401332Y969296D01*
X1401332Y962628D01*
X1394664Y962628D01*
X1394664Y964850D02*
X1401332Y964850D01*
X1401332Y967072D02*
X1394664Y967072D01*
X1394664Y969294D02*
X1401332Y969294D01*
D21*
X1380980Y965340D03*
X1380980Y982840D03*
D10*
X1528776Y878046D02*
X1535444Y878046D01*
X1528776Y878046D02*
X1528776Y884714D01*
X1535444Y884714D01*
X1535444Y878046D01*
X1535444Y880268D02*
X1528776Y880268D01*
X1528776Y882490D02*
X1535444Y882490D01*
X1535444Y884712D02*
X1528776Y884712D01*
X1544016Y878046D02*
X1550684Y878046D01*
X1544016Y878046D02*
X1544016Y884714D01*
X1550684Y884714D01*
X1550684Y878046D01*
X1550684Y880268D02*
X1544016Y880268D01*
X1544016Y882490D02*
X1550684Y882490D01*
X1550684Y884712D02*
X1544016Y884712D01*
D22*
X1193900Y518830D03*
X1227900Y518830D03*
X1339860Y518830D03*
X1305860Y518830D03*
X1426890Y518930D03*
X1392890Y518930D03*
X1504450Y518830D03*
X1538450Y518830D03*
D15*
X1535920Y481330D03*
X1544810Y461010D03*
X1527030Y461010D03*
D10*
X1346214Y498316D02*
X1339546Y498316D01*
X1339546Y504984D01*
X1346214Y504984D01*
X1346214Y498316D01*
X1346214Y500538D02*
X1339546Y500538D01*
X1339546Y502760D02*
X1346214Y502760D01*
X1346214Y504982D02*
X1339546Y504982D01*
X1354786Y498316D02*
X1361454Y498316D01*
X1354786Y498316D02*
X1354786Y504984D01*
X1361454Y504984D01*
X1361454Y498316D01*
X1361454Y500538D02*
X1354786Y500538D01*
X1354786Y502760D02*
X1361454Y502760D01*
X1361454Y504982D02*
X1354786Y504982D01*
D23*
X1353990Y49020D03*
X1343990Y49020D03*
X1333990Y49020D03*
X1323990Y49020D03*
X1313990Y49020D03*
X1303990Y49020D03*
D24*
X1366990Y10270D03*
X1260990Y10270D03*
D23*
X1293990Y49020D03*
X1283990Y49020D03*
X1273990Y49020D03*
D10*
X1358914Y420846D02*
X1358914Y427514D01*
X1358914Y420846D02*
X1352246Y420846D01*
X1352246Y427514D01*
X1358914Y427514D01*
X1358914Y423068D02*
X1352246Y423068D01*
X1352246Y425290D02*
X1358914Y425290D01*
X1358914Y427512D02*
X1352246Y427512D01*
X1358914Y436086D02*
X1358914Y442754D01*
X1358914Y436086D02*
X1352246Y436086D01*
X1352246Y442754D01*
X1358914Y442754D01*
X1358914Y438308D02*
X1352246Y438308D01*
X1352246Y440530D02*
X1358914Y440530D01*
X1358914Y442752D02*
X1352246Y442752D01*
X1502106Y424974D02*
X1502106Y418306D01*
X1502106Y424974D02*
X1508774Y424974D01*
X1508774Y418306D01*
X1502106Y418306D01*
X1502106Y420528D02*
X1508774Y420528D01*
X1508774Y422750D02*
X1502106Y422750D01*
X1502106Y424972D02*
X1508774Y424972D01*
X1502106Y409734D02*
X1502106Y403066D01*
X1502106Y409734D02*
X1508774Y409734D01*
X1508774Y403066D01*
X1502106Y403066D01*
X1502106Y405288D02*
X1508774Y405288D01*
X1508774Y407510D02*
X1502106Y407510D01*
X1502106Y409732D02*
X1508774Y409732D01*
D25*
X1281040Y709930D03*
X1298040Y709930D03*
D10*
X1453576Y887206D02*
X1460244Y887206D01*
X1453576Y887206D02*
X1453576Y893874D01*
X1460244Y893874D01*
X1460244Y887206D01*
X1460244Y889428D02*
X1453576Y889428D01*
X1453576Y891650D02*
X1460244Y891650D01*
X1460244Y893872D02*
X1453576Y893872D01*
X1468816Y887206D02*
X1475484Y887206D01*
X1468816Y887206D02*
X1468816Y893874D01*
X1475484Y893874D01*
X1475484Y887206D01*
X1475484Y889428D02*
X1468816Y889428D01*
X1468816Y891650D02*
X1475484Y891650D01*
X1475484Y893872D02*
X1468816Y893872D01*
X1436892Y995204D02*
X1430224Y995204D01*
X1436892Y995204D02*
X1436892Y988536D01*
X1430224Y988536D01*
X1430224Y995204D01*
X1430224Y990758D02*
X1436892Y990758D01*
X1436892Y992980D02*
X1430224Y992980D01*
X1430224Y995202D02*
X1436892Y995202D01*
X1421652Y995204D02*
X1414984Y995204D01*
X1421652Y995204D02*
X1421652Y988536D01*
X1414984Y988536D01*
X1414984Y995204D01*
X1414984Y990758D02*
X1421652Y990758D01*
X1421652Y992980D02*
X1414984Y992980D01*
X1414984Y995202D02*
X1421652Y995202D01*
X1503376Y972026D02*
X1510044Y972026D01*
X1503376Y972026D02*
X1503376Y978694D01*
X1510044Y978694D01*
X1510044Y972026D01*
X1510044Y974248D02*
X1503376Y974248D01*
X1503376Y976470D02*
X1510044Y976470D01*
X1510044Y978692D02*
X1503376Y978692D01*
X1518616Y972026D02*
X1525284Y972026D01*
X1518616Y972026D02*
X1518616Y978694D01*
X1525284Y978694D01*
X1525284Y972026D01*
X1525284Y974248D02*
X1518616Y974248D01*
X1518616Y976470D02*
X1525284Y976470D01*
X1525284Y978692D02*
X1518616Y978692D01*
X1528776Y895191D02*
X1535444Y895191D01*
X1528776Y895191D02*
X1528776Y901859D01*
X1535444Y901859D01*
X1535444Y895191D01*
X1535444Y897413D02*
X1528776Y897413D01*
X1528776Y899635D02*
X1535444Y899635D01*
X1535444Y901857D02*
X1528776Y901857D01*
X1544016Y895191D02*
X1550684Y895191D01*
X1544016Y895191D02*
X1544016Y901859D01*
X1550684Y901859D01*
X1550684Y895191D01*
X1550684Y897413D02*
X1544016Y897413D01*
X1544016Y899635D02*
X1550684Y899635D01*
X1550684Y901857D02*
X1544016Y901857D01*
X1432574Y809784D02*
X1425906Y809784D01*
X1432574Y809784D02*
X1432574Y803116D01*
X1425906Y803116D01*
X1425906Y809784D01*
X1425906Y805338D02*
X1432574Y805338D01*
X1432574Y807560D02*
X1425906Y807560D01*
X1425906Y809782D02*
X1432574Y809782D01*
X1417334Y809784D02*
X1410666Y809784D01*
X1417334Y809784D02*
X1417334Y803116D01*
X1410666Y803116D01*
X1410666Y809784D01*
X1410666Y805338D02*
X1417334Y805338D01*
X1417334Y807560D02*
X1410666Y807560D01*
X1410666Y809782D02*
X1417334Y809782D01*
X1455116Y809784D02*
X1461784Y809784D01*
X1461784Y803116D01*
X1455116Y803116D01*
X1455116Y809784D01*
X1455116Y805338D02*
X1461784Y805338D01*
X1461784Y807560D02*
X1455116Y807560D01*
X1455116Y809782D02*
X1461784Y809782D01*
X1446544Y809784D02*
X1439876Y809784D01*
X1446544Y809784D02*
X1446544Y803116D01*
X1439876Y803116D01*
X1439876Y809784D01*
X1439876Y805338D02*
X1446544Y805338D01*
X1446544Y807560D02*
X1439876Y807560D01*
X1439876Y809782D02*
X1446544Y809782D01*
X1446544Y789146D02*
X1439876Y789146D01*
X1439876Y795814D01*
X1446544Y795814D01*
X1446544Y789146D01*
X1446544Y791368D02*
X1439876Y791368D01*
X1439876Y793590D02*
X1446544Y793590D01*
X1446544Y795812D02*
X1439876Y795812D01*
X1455116Y789146D02*
X1461784Y789146D01*
X1455116Y789146D02*
X1455116Y795814D01*
X1461784Y795814D01*
X1461784Y789146D01*
X1461784Y791368D02*
X1455116Y791368D01*
X1455116Y793590D02*
X1461784Y793590D01*
X1461784Y795812D02*
X1455116Y795812D01*
X1509726Y353536D02*
X1516394Y353536D01*
X1509726Y353536D02*
X1509726Y360204D01*
X1516394Y360204D01*
X1516394Y353536D01*
X1516394Y355758D02*
X1509726Y355758D01*
X1509726Y357980D02*
X1516394Y357980D01*
X1516394Y360202D02*
X1509726Y360202D01*
X1524966Y353536D02*
X1531634Y353536D01*
X1524966Y353536D02*
X1524966Y360204D01*
X1531634Y360204D01*
X1531634Y353536D01*
X1531634Y355758D02*
X1524966Y355758D01*
X1524966Y357980D02*
X1531634Y357980D01*
X1531634Y360202D02*
X1524966Y360202D01*
X1501154Y344964D02*
X1501154Y338296D01*
X1494486Y338296D01*
X1494486Y344964D01*
X1501154Y344964D01*
X1501154Y340518D02*
X1494486Y340518D01*
X1494486Y342740D02*
X1501154Y342740D01*
X1501154Y344962D02*
X1494486Y344962D01*
X1501154Y353536D02*
X1501154Y360204D01*
X1501154Y353536D02*
X1494486Y353536D01*
X1494486Y360204D01*
X1501154Y360204D01*
X1501154Y355758D02*
X1494486Y355758D01*
X1494486Y357980D02*
X1501154Y357980D01*
X1501154Y360202D02*
X1494486Y360202D01*
D26*
X1218420Y821690D03*
X1241280Y821690D03*
X1264140Y821690D03*
D27*
X1241280Y885190D03*
D28*
X1327005Y927100D03*
X1297795Y927100D03*
X1285095Y828040D03*
X1314305Y828040D03*
D29*
X1326370Y471805D03*
X1326370Y442595D03*
D10*
X1305256Y310674D02*
X1305256Y304006D01*
X1305256Y310674D02*
X1311924Y310674D01*
X1311924Y304006D01*
X1305256Y304006D01*
X1305256Y306228D02*
X1311924Y306228D01*
X1311924Y308450D02*
X1305256Y308450D01*
X1305256Y310672D02*
X1311924Y310672D01*
X1305256Y295434D02*
X1305256Y288766D01*
X1305256Y295434D02*
X1311924Y295434D01*
X1311924Y288766D01*
X1305256Y288766D01*
X1305256Y290988D02*
X1311924Y290988D01*
X1311924Y293210D02*
X1305256Y293210D01*
X1305256Y295432D02*
X1311924Y295432D01*
X1528776Y864076D02*
X1535444Y864076D01*
X1528776Y864076D02*
X1528776Y870744D01*
X1535444Y870744D01*
X1535444Y864076D01*
X1535444Y866298D02*
X1528776Y866298D01*
X1528776Y868520D02*
X1535444Y868520D01*
X1535444Y870742D02*
X1528776Y870742D01*
X1544016Y864076D02*
X1550684Y864076D01*
X1544016Y864076D02*
X1544016Y870744D01*
X1550684Y870744D01*
X1550684Y864076D01*
X1550684Y866298D02*
X1544016Y866298D01*
X1544016Y868520D02*
X1550684Y868520D01*
X1550684Y870742D02*
X1544016Y870742D01*
X1518934Y879316D02*
X1518934Y885984D01*
X1518934Y879316D02*
X1512266Y879316D01*
X1512266Y885984D01*
X1518934Y885984D01*
X1518934Y881538D02*
X1512266Y881538D01*
X1512266Y883760D02*
X1518934Y883760D01*
X1518934Y885982D02*
X1512266Y885982D01*
X1518934Y894556D02*
X1518934Y901224D01*
X1518934Y894556D02*
X1512266Y894556D01*
X1512266Y901224D01*
X1518934Y901224D01*
X1518934Y896778D02*
X1512266Y896778D01*
X1512266Y899000D02*
X1518934Y899000D01*
X1518934Y901222D02*
X1512266Y901222D01*
D30*
X1437114Y171450D03*
X1437114Y204470D03*
X1199116Y300990D03*
X1232136Y300990D03*
X1333990Y767080D03*
X1300970Y767080D03*
D31*
X1343571Y700017D02*
X1343571Y683267D01*
X1343571Y700017D02*
X1348821Y700017D01*
X1348821Y683267D01*
X1343571Y683267D01*
X1343571Y688516D02*
X1348821Y688516D01*
X1348821Y693765D02*
X1343571Y693765D01*
X1343571Y699014D02*
X1348821Y699014D01*
X1313571Y700017D02*
X1313571Y683267D01*
X1313571Y700017D02*
X1318821Y700017D01*
X1318821Y683267D01*
X1313571Y683267D01*
X1313571Y688516D02*
X1318821Y688516D01*
X1318821Y693765D02*
X1313571Y693765D01*
X1313571Y699014D02*
X1318821Y699014D01*
D32*
X1333696Y704132D02*
X1333696Y709632D01*
X1333696Y704132D02*
X1328696Y704132D01*
X1328696Y709632D01*
X1333696Y709632D01*
X1333696Y709131D02*
X1328696Y709131D01*
D33*
X1434320Y486800D03*
X1457320Y449800D03*
X1457320Y486800D03*
X1434320Y449800D03*
D25*
X1420604Y455558D03*
X1420604Y472558D03*
X1472564Y494446D03*
X1472564Y477446D03*
D34*
X1422590Y42756D03*
X1448590Y42756D03*
X1429090Y42756D03*
X1435590Y42756D03*
X1442090Y42756D03*
D35*
X1395590Y16256D03*
X1475590Y16256D03*
D36*
X1422890Y16256D03*
X1448290Y16256D03*
D10*
X1515568Y271240D02*
X1515568Y277908D01*
X1522236Y277908D01*
X1522236Y271240D01*
X1515568Y271240D01*
X1515568Y273462D02*
X1522236Y273462D01*
X1522236Y275684D02*
X1515568Y275684D01*
X1515568Y277906D02*
X1522236Y277906D01*
X1515568Y262668D02*
X1515568Y256000D01*
X1515568Y262668D02*
X1522236Y262668D01*
X1522236Y256000D01*
X1515568Y256000D01*
X1515568Y258222D02*
X1522236Y258222D01*
X1522236Y260444D02*
X1515568Y260444D01*
X1515568Y262666D02*
X1522236Y262666D01*
X1545540Y277908D02*
X1552208Y277908D01*
X1552208Y271240D01*
X1545540Y271240D01*
X1545540Y277908D01*
X1545540Y273462D02*
X1552208Y273462D01*
X1552208Y275684D02*
X1545540Y275684D01*
X1545540Y277906D02*
X1552208Y277906D01*
X1536968Y277908D02*
X1530300Y277908D01*
X1536968Y277908D02*
X1536968Y271240D01*
X1530300Y271240D01*
X1530300Y277908D01*
X1530300Y273462D02*
X1536968Y273462D01*
X1536968Y275684D02*
X1530300Y275684D01*
X1530300Y277906D02*
X1536968Y277906D01*
X1309892Y348012D02*
X1303224Y348012D01*
X1309892Y348012D02*
X1309892Y341344D01*
X1303224Y341344D01*
X1303224Y348012D01*
X1303224Y343566D02*
X1309892Y343566D01*
X1309892Y345788D02*
X1303224Y345788D01*
X1303224Y348010D02*
X1309892Y348010D01*
X1294652Y348012D02*
X1287984Y348012D01*
X1294652Y348012D02*
X1294652Y341344D01*
X1287984Y341344D01*
X1287984Y348012D01*
X1287984Y343566D02*
X1294652Y343566D01*
X1294652Y345788D02*
X1287984Y345788D01*
X1287984Y348010D02*
X1294652Y348010D01*
X217964Y2130746D02*
X211296Y2130746D01*
X211296Y2137414D01*
X217964Y2137414D01*
X217964Y2130746D01*
X217964Y2132968D02*
X211296Y2132968D01*
X211296Y2135190D02*
X217964Y2135190D01*
X217964Y2137412D02*
X211296Y2137412D01*
X226536Y2130746D02*
X233204Y2130746D01*
X226536Y2130746D02*
X226536Y2137414D01*
X233204Y2137414D01*
X233204Y2130746D01*
X233204Y2132968D02*
X226536Y2132968D01*
X226536Y2135190D02*
X233204Y2135190D01*
X233204Y2137412D02*
X226536Y2137412D01*
D11*
X301200Y2300610D03*
X301200Y2286150D03*
X249200Y2300610D03*
X249200Y2286150D03*
D12*
X363290Y1810080D03*
X363290Y1830080D03*
X213290Y1810080D03*
X363290Y1850080D03*
X363290Y1870080D03*
X363290Y1890080D03*
X363290Y1910080D03*
X363290Y1930080D03*
X363290Y1950080D03*
X213290Y1830080D03*
X213290Y1850080D03*
X213290Y1870080D03*
X213290Y1890080D03*
X213290Y1910080D03*
X213290Y1930080D03*
X213290Y1950080D03*
D13*
X304292Y1660624D03*
X299466Y1660624D03*
X294386Y1660624D03*
X289306Y1660624D03*
X284480Y1660624D03*
X279400Y1660624D03*
X274320Y1660624D03*
X269240Y1660624D03*
X264414Y1660624D03*
X259334Y1660624D03*
X254254Y1660624D03*
X249428Y1660624D03*
D14*
X234696Y1645892D03*
X234696Y1641066D03*
X234696Y1635986D03*
X234696Y1630906D03*
X234696Y1626080D03*
X234696Y1621000D03*
X234696Y1615920D03*
X234696Y1610840D03*
X234696Y1606014D03*
X234696Y1600934D03*
X234696Y1595854D03*
X234696Y1591028D03*
D13*
X249428Y1576296D03*
X254254Y1576296D03*
X259334Y1576296D03*
X264414Y1576296D03*
X269240Y1576296D03*
X274320Y1576296D03*
X279400Y1576296D03*
X284480Y1576296D03*
X289306Y1576296D03*
X294386Y1576296D03*
X299466Y1576296D03*
X304292Y1576296D03*
D14*
X319024Y1591028D03*
X319024Y1595854D03*
X319024Y1600934D03*
X319024Y1606014D03*
X319024Y1610840D03*
X319024Y1615920D03*
X319024Y1621000D03*
X319024Y1626080D03*
X319024Y1630906D03*
X319024Y1635986D03*
X319024Y1641066D03*
X319024Y1645892D03*
D10*
X281210Y1328424D02*
X281210Y1321756D01*
X274542Y1321756D01*
X274542Y1328424D01*
X281210Y1328424D01*
X281210Y1323978D02*
X274542Y1323978D01*
X274542Y1326200D02*
X281210Y1326200D01*
X281210Y1328422D02*
X274542Y1328422D01*
X281210Y1336996D02*
X281210Y1343664D01*
X281210Y1336996D02*
X274542Y1336996D01*
X274542Y1343664D01*
X281210Y1343664D01*
X281210Y1339218D02*
X274542Y1339218D01*
X274542Y1341440D02*
X281210Y1341440D01*
X281210Y1343662D02*
X274542Y1343662D01*
X267240Y1328424D02*
X267240Y1321756D01*
X260572Y1321756D01*
X260572Y1328424D01*
X267240Y1328424D01*
X267240Y1323978D02*
X260572Y1323978D01*
X260572Y1326200D02*
X267240Y1326200D01*
X267240Y1328422D02*
X260572Y1328422D01*
X267240Y1336996D02*
X267240Y1343664D01*
X267240Y1336996D02*
X260572Y1336996D01*
X260572Y1343664D01*
X267240Y1343664D01*
X267240Y1339218D02*
X260572Y1339218D01*
X260572Y1341440D02*
X267240Y1341440D01*
X267240Y1343662D02*
X260572Y1343662D01*
X277336Y1544006D02*
X284004Y1544006D01*
X277336Y1544006D02*
X277336Y1550674D01*
X284004Y1550674D01*
X284004Y1544006D01*
X284004Y1546228D02*
X277336Y1546228D01*
X277336Y1548450D02*
X284004Y1548450D01*
X284004Y1550672D02*
X277336Y1550672D01*
X292576Y1544006D02*
X299244Y1544006D01*
X292576Y1544006D02*
X292576Y1550674D01*
X299244Y1550674D01*
X299244Y1544006D01*
X299244Y1546228D02*
X292576Y1546228D01*
X292576Y1548450D02*
X299244Y1548450D01*
X299244Y1550672D02*
X292576Y1550672D01*
D15*
X316738Y1459710D03*
X307848Y1480030D03*
X325628Y1480030D03*
D16*
X102870Y1540990D03*
X123190Y1549880D03*
X123190Y1532100D03*
D17*
X208890Y2041671D03*
X199390Y2041671D03*
X189890Y2041671D03*
X189890Y2015669D03*
X208890Y2015669D03*
D10*
X235680Y2020574D02*
X242348Y2020574D01*
X242348Y2013906D01*
X235680Y2013906D01*
X235680Y2020574D01*
X235680Y2016128D02*
X242348Y2016128D01*
X242348Y2018350D02*
X235680Y2018350D01*
X235680Y2020572D02*
X242348Y2020572D01*
X227108Y2020574D02*
X220440Y2020574D01*
X227108Y2020574D02*
X227108Y2013906D01*
X220440Y2013906D01*
X220440Y2020574D01*
X220440Y2016128D02*
X227108Y2016128D01*
X227108Y2018350D02*
X220440Y2018350D01*
X220440Y2020572D02*
X227108Y2020572D01*
D15*
X160020Y2045180D03*
X168910Y2024860D03*
X151130Y2024860D03*
D10*
X215106Y1998984D02*
X221774Y1998984D01*
X221774Y1992316D01*
X215106Y1992316D01*
X215106Y1998984D01*
X215106Y1994538D02*
X221774Y1994538D01*
X221774Y1996760D02*
X215106Y1996760D01*
X215106Y1998982D02*
X221774Y1998982D01*
X206534Y1998984D02*
X199866Y1998984D01*
X206534Y1998984D02*
X206534Y1992316D01*
X199866Y1992316D01*
X199866Y1998984D01*
X199866Y1994538D02*
X206534Y1994538D01*
X206534Y1996760D02*
X199866Y1996760D01*
X199866Y1998982D02*
X206534Y1998982D01*
X132620Y1997460D02*
X125952Y1997460D01*
X132620Y1997460D02*
X132620Y1990792D01*
X125952Y1990792D01*
X125952Y1997460D01*
X125952Y1993014D02*
X132620Y1993014D01*
X132620Y1995236D02*
X125952Y1995236D01*
X125952Y1997458D02*
X132620Y1997458D01*
X117380Y1997460D02*
X110712Y1997460D01*
X117380Y1997460D02*
X117380Y1990792D01*
X110712Y1990792D01*
X110712Y1997460D01*
X110712Y1993014D02*
X117380Y1993014D01*
X117380Y1995236D02*
X110712Y1995236D01*
X110712Y1997458D02*
X117380Y1997458D01*
X132556Y2045974D02*
X139224Y2045974D01*
X139224Y2039306D01*
X132556Y2039306D01*
X132556Y2045974D01*
X132556Y2041528D02*
X139224Y2041528D01*
X139224Y2043750D02*
X132556Y2043750D01*
X132556Y2045972D02*
X139224Y2045972D01*
X123984Y2045974D02*
X117316Y2045974D01*
X123984Y2045974D02*
X123984Y2039306D01*
X117316Y2039306D01*
X117316Y2045974D01*
X117316Y2041528D02*
X123984Y2041528D01*
X123984Y2043750D02*
X117316Y2043750D01*
X117316Y2045972D02*
X123984Y2045972D01*
X113506Y2032004D02*
X113506Y2025336D01*
X113506Y2032004D02*
X120174Y2032004D01*
X120174Y2025336D01*
X113506Y2025336D01*
X113506Y2027558D02*
X120174Y2027558D01*
X120174Y2029780D02*
X113506Y2029780D01*
X113506Y2032002D02*
X120174Y2032002D01*
X113506Y2016764D02*
X113506Y2010096D01*
X113506Y2016764D02*
X120174Y2016764D01*
X120174Y2010096D01*
X113506Y2010096D01*
X113506Y2012318D02*
X120174Y2012318D01*
X120174Y2014540D02*
X113506Y2014540D01*
X113506Y2016762D02*
X120174Y2016762D01*
X93186Y2025336D02*
X93186Y2032004D01*
X99854Y2032004D01*
X99854Y2025336D01*
X93186Y2025336D01*
X93186Y2027558D02*
X99854Y2027558D01*
X99854Y2029780D02*
X93186Y2029780D01*
X93186Y2032002D02*
X99854Y2032002D01*
X93186Y2016764D02*
X93186Y2010096D01*
X93186Y2016764D02*
X99854Y2016764D01*
X99854Y2010096D01*
X93186Y2010096D01*
X93186Y2012318D02*
X99854Y2012318D01*
X99854Y2014540D02*
X93186Y2014540D01*
X93186Y2016762D02*
X99854Y2016762D01*
X83344Y2044704D02*
X76676Y2044704D01*
X83344Y2044704D02*
X83344Y2038036D01*
X76676Y2038036D01*
X76676Y2044704D01*
X76676Y2040258D02*
X83344Y2040258D01*
X83344Y2042480D02*
X76676Y2042480D01*
X76676Y2044702D02*
X83344Y2044702D01*
X68104Y2044704D02*
X61436Y2044704D01*
X68104Y2044704D02*
X68104Y2038036D01*
X61436Y2038036D01*
X61436Y2044704D01*
X61436Y2040258D02*
X68104Y2040258D01*
X68104Y2042480D02*
X61436Y2042480D01*
X61436Y2044702D02*
X68104Y2044702D01*
X170656Y2130746D02*
X177324Y2130746D01*
X170656Y2130746D02*
X170656Y2137414D01*
X177324Y2137414D01*
X177324Y2130746D01*
X177324Y2132968D02*
X170656Y2132968D01*
X170656Y2135190D02*
X177324Y2135190D01*
X177324Y2137412D02*
X170656Y2137412D01*
X185896Y2130746D02*
X192564Y2130746D01*
X185896Y2130746D02*
X185896Y2137414D01*
X192564Y2137414D01*
X192564Y2130746D01*
X192564Y2132968D02*
X185896Y2132968D01*
X185896Y2135190D02*
X192564Y2135190D01*
X192564Y2137412D02*
X185896Y2137412D01*
X272574Y1979934D02*
X272574Y1973266D01*
X265906Y1973266D01*
X265906Y1979934D01*
X272574Y1979934D01*
X272574Y1975488D02*
X265906Y1975488D01*
X265906Y1977710D02*
X272574Y1977710D01*
X272574Y1979932D02*
X265906Y1979932D01*
X272574Y1988506D02*
X272574Y1995174D01*
X272574Y1988506D02*
X265906Y1988506D01*
X265906Y1995174D01*
X272574Y1995174D01*
X272574Y1990728D02*
X265906Y1990728D01*
X265906Y1992950D02*
X272574Y1992950D01*
X272574Y1995172D02*
X265906Y1995172D01*
X257334Y1979934D02*
X257334Y1973266D01*
X250666Y1973266D01*
X250666Y1979934D01*
X257334Y1979934D01*
X257334Y1975488D02*
X250666Y1975488D01*
X250666Y1977710D02*
X257334Y1977710D01*
X257334Y1979932D02*
X250666Y1979932D01*
X257334Y1988506D02*
X257334Y1995174D01*
X257334Y1988506D02*
X250666Y1988506D01*
X250666Y1995174D01*
X257334Y1995174D01*
X257334Y1990728D02*
X250666Y1990728D01*
X250666Y1992950D02*
X257334Y1992950D01*
X257334Y1995172D02*
X250666Y1995172D01*
X319754Y1682024D02*
X319754Y1675356D01*
X313086Y1675356D01*
X313086Y1682024D01*
X319754Y1682024D01*
X319754Y1677578D02*
X313086Y1677578D01*
X313086Y1679800D02*
X319754Y1679800D01*
X319754Y1682022D02*
X313086Y1682022D01*
X319754Y1690596D02*
X319754Y1697264D01*
X319754Y1690596D02*
X313086Y1690596D01*
X313086Y1697264D01*
X319754Y1697264D01*
X319754Y1692818D02*
X313086Y1692818D01*
X313086Y1695040D02*
X319754Y1695040D01*
X319754Y1697262D02*
X313086Y1697262D01*
X219234Y1590044D02*
X212566Y1590044D01*
X219234Y1590044D02*
X219234Y1583376D01*
X212566Y1583376D01*
X212566Y1590044D01*
X212566Y1585598D02*
X219234Y1585598D01*
X219234Y1587820D02*
X212566Y1587820D01*
X212566Y1590042D02*
X219234Y1590042D01*
X203994Y1590044D02*
X197326Y1590044D01*
X203994Y1590044D02*
X203994Y1583376D01*
X197326Y1583376D01*
X197326Y1590044D01*
X197326Y1585598D02*
X203994Y1585598D01*
X203994Y1587820D02*
X197326Y1587820D01*
X197326Y1590042D02*
X203994Y1590042D01*
D18*
X248943Y2209194D02*
X252493Y2209194D01*
X248943Y2209194D02*
X248943Y2210994D01*
X252493Y2210994D01*
X252493Y2209194D01*
X252493Y2210393D02*
X248943Y2210393D01*
X248943Y2204194D02*
X252493Y2204194D01*
X248943Y2204194D02*
X248943Y2205994D01*
X252493Y2205994D01*
X252493Y2204194D01*
X252493Y2205393D02*
X248943Y2205393D01*
X248943Y2199194D02*
X252493Y2199194D01*
X248943Y2199194D02*
X248943Y2200994D01*
X252493Y2200994D01*
X252493Y2199194D01*
X252493Y2200393D02*
X248943Y2200393D01*
X248943Y2194194D02*
X252493Y2194194D01*
X248943Y2194194D02*
X248943Y2195994D01*
X252493Y2195994D01*
X252493Y2194194D01*
X252493Y2195393D02*
X248943Y2195393D01*
X248943Y2189194D02*
X252493Y2189194D01*
X248943Y2189194D02*
X248943Y2190994D01*
X252493Y2190994D01*
X252493Y2189194D01*
X252493Y2190393D02*
X248943Y2190393D01*
X248943Y2184194D02*
X252493Y2184194D01*
X248943Y2184194D02*
X248943Y2185994D01*
X252493Y2185994D01*
X252493Y2184194D01*
X252493Y2185393D02*
X248943Y2185393D01*
X248943Y2179194D02*
X252493Y2179194D01*
X248943Y2179194D02*
X248943Y2180994D01*
X252493Y2180994D01*
X252493Y2179194D01*
X252493Y2180393D02*
X248943Y2180393D01*
X248943Y2174194D02*
X252493Y2174194D01*
X248943Y2174194D02*
X248943Y2175994D01*
X252493Y2175994D01*
X252493Y2174194D01*
X252493Y2175393D02*
X248943Y2175393D01*
X248943Y2169194D02*
X252493Y2169194D01*
X248943Y2169194D02*
X248943Y2170994D01*
X252493Y2170994D01*
X252493Y2169194D01*
X252493Y2170393D02*
X248943Y2170393D01*
X248943Y2164194D02*
X252493Y2164194D01*
X248943Y2164194D02*
X248943Y2165994D01*
X252493Y2165994D01*
X252493Y2164194D01*
X252493Y2165393D02*
X248943Y2165393D01*
X248943Y2159194D02*
X252493Y2159194D01*
X248943Y2159194D02*
X248943Y2160994D01*
X252493Y2160994D01*
X252493Y2159194D01*
X252493Y2160393D02*
X248943Y2160393D01*
X248943Y2154194D02*
X252493Y2154194D01*
X248943Y2154194D02*
X248943Y2155994D01*
X252493Y2155994D01*
X252493Y2154194D01*
X252493Y2155393D02*
X248943Y2155393D01*
X257118Y2151369D02*
X257118Y2147819D01*
X255318Y2147819D01*
X255318Y2151369D01*
X257118Y2151369D01*
X257118Y2149018D02*
X255318Y2149018D01*
X255318Y2150217D02*
X257118Y2150217D01*
X262118Y2151369D02*
X262118Y2147819D01*
X260318Y2147819D01*
X260318Y2151369D01*
X262118Y2151369D01*
X262118Y2149018D02*
X260318Y2149018D01*
X260318Y2150217D02*
X262118Y2150217D01*
X267118Y2151369D02*
X267118Y2147819D01*
X265318Y2147819D01*
X265318Y2151369D01*
X267118Y2151369D01*
X267118Y2149018D02*
X265318Y2149018D01*
X265318Y2150217D02*
X267118Y2150217D01*
X272118Y2151369D02*
X272118Y2147819D01*
X270318Y2147819D01*
X270318Y2151369D01*
X272118Y2151369D01*
X272118Y2149018D02*
X270318Y2149018D01*
X270318Y2150217D02*
X272118Y2150217D01*
X277118Y2151369D02*
X277118Y2147819D01*
X275318Y2147819D01*
X275318Y2151369D01*
X277118Y2151369D01*
X277118Y2149018D02*
X275318Y2149018D01*
X275318Y2150217D02*
X277118Y2150217D01*
X282118Y2151369D02*
X282118Y2147819D01*
X280318Y2147819D01*
X280318Y2151369D01*
X282118Y2151369D01*
X282118Y2149018D02*
X280318Y2149018D01*
X280318Y2150217D02*
X282118Y2150217D01*
X287118Y2151369D02*
X287118Y2147819D01*
X285318Y2147819D01*
X285318Y2151369D01*
X287118Y2151369D01*
X287118Y2149018D02*
X285318Y2149018D01*
X285318Y2150217D02*
X287118Y2150217D01*
X292118Y2151369D02*
X292118Y2147819D01*
X290318Y2147819D01*
X290318Y2151369D01*
X292118Y2151369D01*
X292118Y2149018D02*
X290318Y2149018D01*
X290318Y2150217D02*
X292118Y2150217D01*
X297118Y2151369D02*
X297118Y2147819D01*
X295318Y2147819D01*
X295318Y2151369D01*
X297118Y2151369D01*
X297118Y2149018D02*
X295318Y2149018D01*
X295318Y2150217D02*
X297118Y2150217D01*
X302118Y2151369D02*
X302118Y2147819D01*
X300318Y2147819D01*
X300318Y2151369D01*
X302118Y2151369D01*
X302118Y2149018D02*
X300318Y2149018D01*
X300318Y2150217D02*
X302118Y2150217D01*
X307118Y2151369D02*
X307118Y2147819D01*
X305318Y2147819D01*
X305318Y2151369D01*
X307118Y2151369D01*
X307118Y2149018D02*
X305318Y2149018D01*
X305318Y2150217D02*
X307118Y2150217D01*
X312118Y2151369D02*
X312118Y2147819D01*
X310318Y2147819D01*
X310318Y2151369D01*
X312118Y2151369D01*
X312118Y2149018D02*
X310318Y2149018D01*
X310318Y2150217D02*
X312118Y2150217D01*
X314943Y2154194D02*
X318493Y2154194D01*
X314943Y2154194D02*
X314943Y2155994D01*
X318493Y2155994D01*
X318493Y2154194D01*
X318493Y2155393D02*
X314943Y2155393D01*
X314943Y2159194D02*
X318493Y2159194D01*
X314943Y2159194D02*
X314943Y2160994D01*
X318493Y2160994D01*
X318493Y2159194D01*
X318493Y2160393D02*
X314943Y2160393D01*
X314943Y2164194D02*
X318493Y2164194D01*
X314943Y2164194D02*
X314943Y2165994D01*
X318493Y2165994D01*
X318493Y2164194D01*
X318493Y2165393D02*
X314943Y2165393D01*
X314943Y2169194D02*
X318493Y2169194D01*
X314943Y2169194D02*
X314943Y2170994D01*
X318493Y2170994D01*
X318493Y2169194D01*
X318493Y2170393D02*
X314943Y2170393D01*
X314943Y2174194D02*
X318493Y2174194D01*
X314943Y2174194D02*
X314943Y2175994D01*
X318493Y2175994D01*
X318493Y2174194D01*
X318493Y2175393D02*
X314943Y2175393D01*
X314943Y2179194D02*
X318493Y2179194D01*
X314943Y2179194D02*
X314943Y2180994D01*
X318493Y2180994D01*
X318493Y2179194D01*
X318493Y2180393D02*
X314943Y2180393D01*
X314943Y2184194D02*
X318493Y2184194D01*
X314943Y2184194D02*
X314943Y2185994D01*
X318493Y2185994D01*
X318493Y2184194D01*
X318493Y2185393D02*
X314943Y2185393D01*
X314943Y2189194D02*
X318493Y2189194D01*
X314943Y2189194D02*
X314943Y2190994D01*
X318493Y2190994D01*
X318493Y2189194D01*
X318493Y2190393D02*
X314943Y2190393D01*
X314943Y2194194D02*
X318493Y2194194D01*
X314943Y2194194D02*
X314943Y2195994D01*
X318493Y2195994D01*
X318493Y2194194D01*
X318493Y2195393D02*
X314943Y2195393D01*
X314943Y2199194D02*
X318493Y2199194D01*
X314943Y2199194D02*
X314943Y2200994D01*
X318493Y2200994D01*
X318493Y2199194D01*
X318493Y2200393D02*
X314943Y2200393D01*
X314943Y2204194D02*
X318493Y2204194D01*
X314943Y2204194D02*
X314943Y2205994D01*
X318493Y2205994D01*
X318493Y2204194D01*
X318493Y2205393D02*
X314943Y2205393D01*
X314943Y2209194D02*
X318493Y2209194D01*
X314943Y2209194D02*
X314943Y2210994D01*
X318493Y2210994D01*
X318493Y2209194D01*
X318493Y2210393D02*
X314943Y2210393D01*
X312118Y2213819D02*
X312118Y2217369D01*
X312118Y2213819D02*
X310318Y2213819D01*
X310318Y2217369D01*
X312118Y2217369D01*
X312118Y2215018D02*
X310318Y2215018D01*
X310318Y2216217D02*
X312118Y2216217D01*
X307118Y2217369D02*
X307118Y2213819D01*
X305318Y2213819D01*
X305318Y2217369D01*
X307118Y2217369D01*
X307118Y2215018D02*
X305318Y2215018D01*
X305318Y2216217D02*
X307118Y2216217D01*
X302118Y2217369D02*
X302118Y2213819D01*
X300318Y2213819D01*
X300318Y2217369D01*
X302118Y2217369D01*
X302118Y2215018D02*
X300318Y2215018D01*
X300318Y2216217D02*
X302118Y2216217D01*
X297118Y2217369D02*
X297118Y2213819D01*
X295318Y2213819D01*
X295318Y2217369D01*
X297118Y2217369D01*
X297118Y2215018D02*
X295318Y2215018D01*
X295318Y2216217D02*
X297118Y2216217D01*
X292118Y2217369D02*
X292118Y2213819D01*
X290318Y2213819D01*
X290318Y2217369D01*
X292118Y2217369D01*
X292118Y2215018D02*
X290318Y2215018D01*
X290318Y2216217D02*
X292118Y2216217D01*
X287118Y2217369D02*
X287118Y2213819D01*
X285318Y2213819D01*
X285318Y2217369D01*
X287118Y2217369D01*
X287118Y2215018D02*
X285318Y2215018D01*
X285318Y2216217D02*
X287118Y2216217D01*
X282118Y2217369D02*
X282118Y2213819D01*
X280318Y2213819D01*
X280318Y2217369D01*
X282118Y2217369D01*
X282118Y2215018D02*
X280318Y2215018D01*
X280318Y2216217D02*
X282118Y2216217D01*
X277118Y2217369D02*
X277118Y2213819D01*
X275318Y2213819D01*
X275318Y2217369D01*
X277118Y2217369D01*
X277118Y2215018D02*
X275318Y2215018D01*
X275318Y2216217D02*
X277118Y2216217D01*
X272118Y2217369D02*
X272118Y2213819D01*
X270318Y2213819D01*
X270318Y2217369D01*
X272118Y2217369D01*
X272118Y2215018D02*
X270318Y2215018D01*
X270318Y2216217D02*
X272118Y2216217D01*
X267118Y2217369D02*
X267118Y2213819D01*
X265318Y2213819D01*
X265318Y2217369D01*
X267118Y2217369D01*
X267118Y2215018D02*
X265318Y2215018D01*
X265318Y2216217D02*
X267118Y2216217D01*
X262118Y2217369D02*
X262118Y2213819D01*
X260318Y2213819D01*
X260318Y2217369D01*
X262118Y2217369D01*
X262118Y2215018D02*
X260318Y2215018D01*
X260318Y2216217D02*
X262118Y2216217D01*
X257118Y2217369D02*
X257118Y2213819D01*
X255318Y2213819D01*
X255318Y2217369D01*
X257118Y2217369D01*
X257118Y2215018D02*
X255318Y2215018D01*
X255318Y2216217D02*
X257118Y2216217D01*
D19*
X270718Y2195594D03*
X270718Y2169594D03*
X296718Y2169594D03*
X296718Y2195594D03*
D10*
X231934Y2184404D02*
X225266Y2184404D01*
X231934Y2184404D02*
X231934Y2177736D01*
X225266Y2177736D01*
X225266Y2184404D01*
X225266Y2179958D02*
X231934Y2179958D01*
X231934Y2182180D02*
X225266Y2182180D01*
X225266Y2184402D02*
X231934Y2184402D01*
X216694Y2184404D02*
X210026Y2184404D01*
X216694Y2184404D02*
X216694Y2177736D01*
X210026Y2177736D01*
X210026Y2184404D01*
X210026Y2179958D02*
X216694Y2179958D01*
X216694Y2182180D02*
X210026Y2182180D01*
X210026Y2184402D02*
X216694Y2184402D01*
X225266Y2170434D02*
X231934Y2170434D01*
X231934Y2163766D01*
X225266Y2163766D01*
X225266Y2170434D01*
X225266Y2165988D02*
X231934Y2165988D01*
X231934Y2168210D02*
X225266Y2168210D01*
X225266Y2170432D02*
X231934Y2170432D01*
X216694Y2170434D02*
X210026Y2170434D01*
X216694Y2170434D02*
X216694Y2163766D01*
X210026Y2163766D01*
X210026Y2170434D01*
X210026Y2165988D02*
X216694Y2165988D01*
X216694Y2168210D02*
X210026Y2168210D01*
X210026Y2170432D02*
X216694Y2170432D01*
D20*
X237862Y2234664D03*
X220862Y2234664D03*
D10*
X234664Y2224536D02*
X234664Y2217868D01*
X234664Y2224536D02*
X241332Y2224536D01*
X241332Y2217868D01*
X234664Y2217868D01*
X234664Y2220090D02*
X241332Y2220090D01*
X241332Y2222312D02*
X234664Y2222312D01*
X234664Y2224534D02*
X241332Y2224534D01*
X234664Y2209296D02*
X234664Y2202628D01*
X234664Y2209296D02*
X241332Y2209296D01*
X241332Y2202628D01*
X234664Y2202628D01*
X234664Y2204850D02*
X241332Y2204850D01*
X241332Y2207072D02*
X234664Y2207072D01*
X234664Y2209294D02*
X241332Y2209294D01*
D21*
X220980Y2205340D03*
X220980Y2222840D03*
D10*
X368776Y2118046D02*
X375444Y2118046D01*
X368776Y2118046D02*
X368776Y2124714D01*
X375444Y2124714D01*
X375444Y2118046D01*
X375444Y2120268D02*
X368776Y2120268D01*
X368776Y2122490D02*
X375444Y2122490D01*
X375444Y2124712D02*
X368776Y2124712D01*
X384016Y2118046D02*
X390684Y2118046D01*
X384016Y2118046D02*
X384016Y2124714D01*
X390684Y2124714D01*
X390684Y2118046D01*
X390684Y2120268D02*
X384016Y2120268D01*
X384016Y2122490D02*
X390684Y2122490D01*
X390684Y2124712D02*
X384016Y2124712D01*
D22*
X33900Y1758830D03*
X67900Y1758830D03*
X179860Y1758830D03*
X145860Y1758830D03*
X266890Y1758930D03*
X232890Y1758930D03*
X344450Y1758830D03*
X378450Y1758830D03*
D15*
X375920Y1721330D03*
X384810Y1701010D03*
X367030Y1701010D03*
D10*
X186214Y1738316D02*
X179546Y1738316D01*
X179546Y1744984D01*
X186214Y1744984D01*
X186214Y1738316D01*
X186214Y1740538D02*
X179546Y1740538D01*
X179546Y1742760D02*
X186214Y1742760D01*
X186214Y1744982D02*
X179546Y1744982D01*
X194786Y1738316D02*
X201454Y1738316D01*
X194786Y1738316D02*
X194786Y1744984D01*
X201454Y1744984D01*
X201454Y1738316D01*
X201454Y1740538D02*
X194786Y1740538D01*
X194786Y1742760D02*
X201454Y1742760D01*
X201454Y1744982D02*
X194786Y1744982D01*
D23*
X193990Y1289020D03*
X183990Y1289020D03*
X173990Y1289020D03*
X163990Y1289020D03*
X153990Y1289020D03*
X143990Y1289020D03*
D24*
X206990Y1250270D03*
X100990Y1250270D03*
D23*
X133990Y1289020D03*
X123990Y1289020D03*
X113990Y1289020D03*
D10*
X198914Y1660846D02*
X198914Y1667514D01*
X198914Y1660846D02*
X192246Y1660846D01*
X192246Y1667514D01*
X198914Y1667514D01*
X198914Y1663068D02*
X192246Y1663068D01*
X192246Y1665290D02*
X198914Y1665290D01*
X198914Y1667512D02*
X192246Y1667512D01*
X198914Y1676086D02*
X198914Y1682754D01*
X198914Y1676086D02*
X192246Y1676086D01*
X192246Y1682754D01*
X198914Y1682754D01*
X198914Y1678308D02*
X192246Y1678308D01*
X192246Y1680530D02*
X198914Y1680530D01*
X198914Y1682752D02*
X192246Y1682752D01*
X342106Y1664974D02*
X342106Y1658306D01*
X342106Y1664974D02*
X348774Y1664974D01*
X348774Y1658306D01*
X342106Y1658306D01*
X342106Y1660528D02*
X348774Y1660528D01*
X348774Y1662750D02*
X342106Y1662750D01*
X342106Y1664972D02*
X348774Y1664972D01*
X342106Y1649734D02*
X342106Y1643066D01*
X342106Y1649734D02*
X348774Y1649734D01*
X348774Y1643066D01*
X342106Y1643066D01*
X342106Y1645288D02*
X348774Y1645288D01*
X348774Y1647510D02*
X342106Y1647510D01*
X342106Y1649732D02*
X348774Y1649732D01*
D25*
X121040Y1949930D03*
X138040Y1949930D03*
D10*
X293576Y2127206D02*
X300244Y2127206D01*
X293576Y2127206D02*
X293576Y2133874D01*
X300244Y2133874D01*
X300244Y2127206D01*
X300244Y2129428D02*
X293576Y2129428D01*
X293576Y2131650D02*
X300244Y2131650D01*
X300244Y2133872D02*
X293576Y2133872D01*
X308816Y2127206D02*
X315484Y2127206D01*
X308816Y2127206D02*
X308816Y2133874D01*
X315484Y2133874D01*
X315484Y2127206D01*
X315484Y2129428D02*
X308816Y2129428D01*
X308816Y2131650D02*
X315484Y2131650D01*
X315484Y2133872D02*
X308816Y2133872D01*
X276892Y2235204D02*
X270224Y2235204D01*
X276892Y2235204D02*
X276892Y2228536D01*
X270224Y2228536D01*
X270224Y2235204D01*
X270224Y2230758D02*
X276892Y2230758D01*
X276892Y2232980D02*
X270224Y2232980D01*
X270224Y2235202D02*
X276892Y2235202D01*
X261652Y2235204D02*
X254984Y2235204D01*
X261652Y2235204D02*
X261652Y2228536D01*
X254984Y2228536D01*
X254984Y2235204D01*
X254984Y2230758D02*
X261652Y2230758D01*
X261652Y2232980D02*
X254984Y2232980D01*
X254984Y2235202D02*
X261652Y2235202D01*
X343376Y2212026D02*
X350044Y2212026D01*
X343376Y2212026D02*
X343376Y2218694D01*
X350044Y2218694D01*
X350044Y2212026D01*
X350044Y2214248D02*
X343376Y2214248D01*
X343376Y2216470D02*
X350044Y2216470D01*
X350044Y2218692D02*
X343376Y2218692D01*
X358616Y2212026D02*
X365284Y2212026D01*
X358616Y2212026D02*
X358616Y2218694D01*
X365284Y2218694D01*
X365284Y2212026D01*
X365284Y2214248D02*
X358616Y2214248D01*
X358616Y2216470D02*
X365284Y2216470D01*
X365284Y2218692D02*
X358616Y2218692D01*
X368776Y2135191D02*
X375444Y2135191D01*
X368776Y2135191D02*
X368776Y2141859D01*
X375444Y2141859D01*
X375444Y2135191D01*
X375444Y2137413D02*
X368776Y2137413D01*
X368776Y2139635D02*
X375444Y2139635D01*
X375444Y2141857D02*
X368776Y2141857D01*
X384016Y2135191D02*
X390684Y2135191D01*
X384016Y2135191D02*
X384016Y2141859D01*
X390684Y2141859D01*
X390684Y2135191D01*
X390684Y2137413D02*
X384016Y2137413D01*
X384016Y2139635D02*
X390684Y2139635D01*
X390684Y2141857D02*
X384016Y2141857D01*
X272574Y2049784D02*
X265906Y2049784D01*
X272574Y2049784D02*
X272574Y2043116D01*
X265906Y2043116D01*
X265906Y2049784D01*
X265906Y2045338D02*
X272574Y2045338D01*
X272574Y2047560D02*
X265906Y2047560D01*
X265906Y2049782D02*
X272574Y2049782D01*
X257334Y2049784D02*
X250666Y2049784D01*
X257334Y2049784D02*
X257334Y2043116D01*
X250666Y2043116D01*
X250666Y2049784D01*
X250666Y2045338D02*
X257334Y2045338D01*
X257334Y2047560D02*
X250666Y2047560D01*
X250666Y2049782D02*
X257334Y2049782D01*
X295116Y2049784D02*
X301784Y2049784D01*
X301784Y2043116D01*
X295116Y2043116D01*
X295116Y2049784D01*
X295116Y2045338D02*
X301784Y2045338D01*
X301784Y2047560D02*
X295116Y2047560D01*
X295116Y2049782D02*
X301784Y2049782D01*
X286544Y2049784D02*
X279876Y2049784D01*
X286544Y2049784D02*
X286544Y2043116D01*
X279876Y2043116D01*
X279876Y2049784D01*
X279876Y2045338D02*
X286544Y2045338D01*
X286544Y2047560D02*
X279876Y2047560D01*
X279876Y2049782D02*
X286544Y2049782D01*
X286544Y2029146D02*
X279876Y2029146D01*
X279876Y2035814D01*
X286544Y2035814D01*
X286544Y2029146D01*
X286544Y2031368D02*
X279876Y2031368D01*
X279876Y2033590D02*
X286544Y2033590D01*
X286544Y2035812D02*
X279876Y2035812D01*
X295116Y2029146D02*
X301784Y2029146D01*
X295116Y2029146D02*
X295116Y2035814D01*
X301784Y2035814D01*
X301784Y2029146D01*
X301784Y2031368D02*
X295116Y2031368D01*
X295116Y2033590D02*
X301784Y2033590D01*
X301784Y2035812D02*
X295116Y2035812D01*
X349726Y1593536D02*
X356394Y1593536D01*
X349726Y1593536D02*
X349726Y1600204D01*
X356394Y1600204D01*
X356394Y1593536D01*
X356394Y1595758D02*
X349726Y1595758D01*
X349726Y1597980D02*
X356394Y1597980D01*
X356394Y1600202D02*
X349726Y1600202D01*
X364966Y1593536D02*
X371634Y1593536D01*
X364966Y1593536D02*
X364966Y1600204D01*
X371634Y1600204D01*
X371634Y1593536D01*
X371634Y1595758D02*
X364966Y1595758D01*
X364966Y1597980D02*
X371634Y1597980D01*
X371634Y1600202D02*
X364966Y1600202D01*
X341154Y1584964D02*
X341154Y1578296D01*
X334486Y1578296D01*
X334486Y1584964D01*
X341154Y1584964D01*
X341154Y1580518D02*
X334486Y1580518D01*
X334486Y1582740D02*
X341154Y1582740D01*
X341154Y1584962D02*
X334486Y1584962D01*
X341154Y1593536D02*
X341154Y1600204D01*
X341154Y1593536D02*
X334486Y1593536D01*
X334486Y1600204D01*
X341154Y1600204D01*
X341154Y1595758D02*
X334486Y1595758D01*
X334486Y1597980D02*
X341154Y1597980D01*
X341154Y1600202D02*
X334486Y1600202D01*
D26*
X58420Y2061690D03*
X81280Y2061690D03*
X104140Y2061690D03*
D27*
X81280Y2125190D03*
D28*
X167005Y2167100D03*
X137795Y2167100D03*
X125095Y2068040D03*
X154305Y2068040D03*
D29*
X166370Y1711805D03*
X166370Y1682595D03*
D10*
X145256Y1550674D02*
X145256Y1544006D01*
X145256Y1550674D02*
X151924Y1550674D01*
X151924Y1544006D01*
X145256Y1544006D01*
X145256Y1546228D02*
X151924Y1546228D01*
X151924Y1548450D02*
X145256Y1548450D01*
X145256Y1550672D02*
X151924Y1550672D01*
X145256Y1535434D02*
X145256Y1528766D01*
X145256Y1535434D02*
X151924Y1535434D01*
X151924Y1528766D01*
X145256Y1528766D01*
X145256Y1530988D02*
X151924Y1530988D01*
X151924Y1533210D02*
X145256Y1533210D01*
X145256Y1535432D02*
X151924Y1535432D01*
X368776Y2104076D02*
X375444Y2104076D01*
X368776Y2104076D02*
X368776Y2110744D01*
X375444Y2110744D01*
X375444Y2104076D01*
X375444Y2106298D02*
X368776Y2106298D01*
X368776Y2108520D02*
X375444Y2108520D01*
X375444Y2110742D02*
X368776Y2110742D01*
X384016Y2104076D02*
X390684Y2104076D01*
X384016Y2104076D02*
X384016Y2110744D01*
X390684Y2110744D01*
X390684Y2104076D01*
X390684Y2106298D02*
X384016Y2106298D01*
X384016Y2108520D02*
X390684Y2108520D01*
X390684Y2110742D02*
X384016Y2110742D01*
X358934Y2119316D02*
X358934Y2125984D01*
X358934Y2119316D02*
X352266Y2119316D01*
X352266Y2125984D01*
X358934Y2125984D01*
X358934Y2121538D02*
X352266Y2121538D01*
X352266Y2123760D02*
X358934Y2123760D01*
X358934Y2125982D02*
X352266Y2125982D01*
X358934Y2134556D02*
X358934Y2141224D01*
X358934Y2134556D02*
X352266Y2134556D01*
X352266Y2141224D01*
X358934Y2141224D01*
X358934Y2136778D02*
X352266Y2136778D01*
X352266Y2139000D02*
X358934Y2139000D01*
X358934Y2141222D02*
X352266Y2141222D01*
D30*
X277114Y1411450D03*
X277114Y1444470D03*
X39116Y1540990D03*
X72136Y1540990D03*
X173990Y2007080D03*
X140970Y2007080D03*
D31*
X183571Y1940017D02*
X183571Y1923267D01*
X183571Y1940017D02*
X188821Y1940017D01*
X188821Y1923267D01*
X183571Y1923267D01*
X183571Y1928516D02*
X188821Y1928516D01*
X188821Y1933765D02*
X183571Y1933765D01*
X183571Y1939014D02*
X188821Y1939014D01*
X153571Y1940017D02*
X153571Y1923267D01*
X153571Y1940017D02*
X158821Y1940017D01*
X158821Y1923267D01*
X153571Y1923267D01*
X153571Y1928516D02*
X158821Y1928516D01*
X158821Y1933765D02*
X153571Y1933765D01*
X153571Y1939014D02*
X158821Y1939014D01*
D32*
X173696Y1944132D02*
X173696Y1949632D01*
X173696Y1944132D02*
X168696Y1944132D01*
X168696Y1949632D01*
X173696Y1949632D01*
X173696Y1949131D02*
X168696Y1949131D01*
D33*
X274320Y1726800D03*
X297320Y1689800D03*
X297320Y1726800D03*
X274320Y1689800D03*
D25*
X260604Y1695558D03*
X260604Y1712558D03*
X312564Y1734446D03*
X312564Y1717446D03*
D34*
X262590Y1282756D03*
X288590Y1282756D03*
X269090Y1282756D03*
X275590Y1282756D03*
X282090Y1282756D03*
D35*
X235590Y1256256D03*
X315590Y1256256D03*
D36*
X262890Y1256256D03*
X288290Y1256256D03*
D10*
X355568Y1511240D02*
X355568Y1517908D01*
X362236Y1517908D01*
X362236Y1511240D01*
X355568Y1511240D01*
X355568Y1513462D02*
X362236Y1513462D01*
X362236Y1515684D02*
X355568Y1515684D01*
X355568Y1517906D02*
X362236Y1517906D01*
X355568Y1502668D02*
X355568Y1496000D01*
X355568Y1502668D02*
X362236Y1502668D01*
X362236Y1496000D01*
X355568Y1496000D01*
X355568Y1498222D02*
X362236Y1498222D01*
X362236Y1500444D02*
X355568Y1500444D01*
X355568Y1502666D02*
X362236Y1502666D01*
X385540Y1517908D02*
X392208Y1517908D01*
X392208Y1511240D01*
X385540Y1511240D01*
X385540Y1517908D01*
X385540Y1513462D02*
X392208Y1513462D01*
X392208Y1515684D02*
X385540Y1515684D01*
X385540Y1517906D02*
X392208Y1517906D01*
X376968Y1517908D02*
X370300Y1517908D01*
X376968Y1517908D02*
X376968Y1511240D01*
X370300Y1511240D01*
X370300Y1517908D01*
X370300Y1513462D02*
X376968Y1513462D01*
X376968Y1515684D02*
X370300Y1515684D01*
X370300Y1517906D02*
X376968Y1517906D01*
X149892Y1588012D02*
X143224Y1588012D01*
X149892Y1588012D02*
X149892Y1581344D01*
X143224Y1581344D01*
X143224Y1588012D01*
X143224Y1583566D02*
X149892Y1583566D01*
X149892Y1585788D02*
X143224Y1585788D01*
X143224Y1588010D02*
X149892Y1588010D01*
X134652Y1588012D02*
X127984Y1588012D01*
X134652Y1588012D02*
X134652Y1581344D01*
X127984Y1581344D01*
X127984Y1588012D01*
X127984Y1583566D02*
X134652Y1583566D01*
X134652Y1585788D02*
X127984Y1585788D01*
X127984Y1588010D02*
X134652Y1588010D01*
X791296Y2130746D02*
X797964Y2130746D01*
X791296Y2130746D02*
X791296Y2137414D01*
X797964Y2137414D01*
X797964Y2130746D01*
X797964Y2132968D02*
X791296Y2132968D01*
X791296Y2135190D02*
X797964Y2135190D01*
X797964Y2137412D02*
X791296Y2137412D01*
X806536Y2130746D02*
X813204Y2130746D01*
X806536Y2130746D02*
X806536Y2137414D01*
X813204Y2137414D01*
X813204Y2130746D01*
X813204Y2132968D02*
X806536Y2132968D01*
X806536Y2135190D02*
X813204Y2135190D01*
X813204Y2137412D02*
X806536Y2137412D01*
D11*
X881200Y2300610D03*
X881200Y2286150D03*
X829200Y2300610D03*
X829200Y2286150D03*
D12*
X943290Y1810080D03*
X943290Y1830080D03*
X793290Y1810080D03*
X943290Y1850080D03*
X943290Y1870080D03*
X943290Y1890080D03*
X943290Y1910080D03*
X943290Y1930080D03*
X943290Y1950080D03*
X793290Y1830080D03*
X793290Y1850080D03*
X793290Y1870080D03*
X793290Y1890080D03*
X793290Y1910080D03*
X793290Y1930080D03*
X793290Y1950080D03*
D13*
X884292Y1660624D03*
X879466Y1660624D03*
X874386Y1660624D03*
X869306Y1660624D03*
X864480Y1660624D03*
X859400Y1660624D03*
X854320Y1660624D03*
X849240Y1660624D03*
X844414Y1660624D03*
X839334Y1660624D03*
X834254Y1660624D03*
X829428Y1660624D03*
D14*
X814696Y1645892D03*
X814696Y1641066D03*
X814696Y1635986D03*
X814696Y1630906D03*
X814696Y1626080D03*
X814696Y1621000D03*
X814696Y1615920D03*
X814696Y1610840D03*
X814696Y1606014D03*
X814696Y1600934D03*
X814696Y1595854D03*
X814696Y1591028D03*
D13*
X829428Y1576296D03*
X834254Y1576296D03*
X839334Y1576296D03*
X844414Y1576296D03*
X849240Y1576296D03*
X854320Y1576296D03*
X859400Y1576296D03*
X864480Y1576296D03*
X869306Y1576296D03*
X874386Y1576296D03*
X879466Y1576296D03*
X884292Y1576296D03*
D14*
X899024Y1591028D03*
X899024Y1595854D03*
X899024Y1600934D03*
X899024Y1606014D03*
X899024Y1610840D03*
X899024Y1615920D03*
X899024Y1621000D03*
X899024Y1626080D03*
X899024Y1630906D03*
X899024Y1635986D03*
X899024Y1641066D03*
X899024Y1645892D03*
D10*
X861210Y1328424D02*
X861210Y1321756D01*
X854542Y1321756D01*
X854542Y1328424D01*
X861210Y1328424D01*
X861210Y1323978D02*
X854542Y1323978D01*
X854542Y1326200D02*
X861210Y1326200D01*
X861210Y1328422D02*
X854542Y1328422D01*
X861210Y1336996D02*
X861210Y1343664D01*
X861210Y1336996D02*
X854542Y1336996D01*
X854542Y1343664D01*
X861210Y1343664D01*
X861210Y1339218D02*
X854542Y1339218D01*
X854542Y1341440D02*
X861210Y1341440D01*
X861210Y1343662D02*
X854542Y1343662D01*
X847240Y1328424D02*
X847240Y1321756D01*
X840572Y1321756D01*
X840572Y1328424D01*
X847240Y1328424D01*
X847240Y1323978D02*
X840572Y1323978D01*
X840572Y1326200D02*
X847240Y1326200D01*
X847240Y1328422D02*
X840572Y1328422D01*
X847240Y1336996D02*
X847240Y1343664D01*
X847240Y1336996D02*
X840572Y1336996D01*
X840572Y1343664D01*
X847240Y1343664D01*
X847240Y1339218D02*
X840572Y1339218D01*
X840572Y1341440D02*
X847240Y1341440D01*
X847240Y1343662D02*
X840572Y1343662D01*
X857336Y1544006D02*
X864004Y1544006D01*
X857336Y1544006D02*
X857336Y1550674D01*
X864004Y1550674D01*
X864004Y1544006D01*
X864004Y1546228D02*
X857336Y1546228D01*
X857336Y1548450D02*
X864004Y1548450D01*
X864004Y1550672D02*
X857336Y1550672D01*
X872576Y1544006D02*
X879244Y1544006D01*
X872576Y1544006D02*
X872576Y1550674D01*
X879244Y1550674D01*
X879244Y1544006D01*
X879244Y1546228D02*
X872576Y1546228D01*
X872576Y1548450D02*
X879244Y1548450D01*
X879244Y1550672D02*
X872576Y1550672D01*
D15*
X896738Y1459710D03*
X887848Y1480030D03*
X905628Y1480030D03*
D16*
X682870Y1540990D03*
X703190Y1549880D03*
X703190Y1532100D03*
D17*
X788890Y2041671D03*
X779390Y2041671D03*
X769890Y2041671D03*
X769890Y2015669D03*
X788890Y2015669D03*
D10*
X815680Y2020574D02*
X822348Y2020574D01*
X822348Y2013906D01*
X815680Y2013906D01*
X815680Y2020574D01*
X815680Y2016128D02*
X822348Y2016128D01*
X822348Y2018350D02*
X815680Y2018350D01*
X815680Y2020572D02*
X822348Y2020572D01*
X807108Y2020574D02*
X800440Y2020574D01*
X807108Y2020574D02*
X807108Y2013906D01*
X800440Y2013906D01*
X800440Y2020574D01*
X800440Y2016128D02*
X807108Y2016128D01*
X807108Y2018350D02*
X800440Y2018350D01*
X800440Y2020572D02*
X807108Y2020572D01*
D15*
X740020Y2045180D03*
X748910Y2024860D03*
X731130Y2024860D03*
D10*
X795106Y1998984D02*
X801774Y1998984D01*
X801774Y1992316D01*
X795106Y1992316D01*
X795106Y1998984D01*
X795106Y1994538D02*
X801774Y1994538D01*
X801774Y1996760D02*
X795106Y1996760D01*
X795106Y1998982D02*
X801774Y1998982D01*
X786534Y1998984D02*
X779866Y1998984D01*
X786534Y1998984D02*
X786534Y1992316D01*
X779866Y1992316D01*
X779866Y1998984D01*
X779866Y1994538D02*
X786534Y1994538D01*
X786534Y1996760D02*
X779866Y1996760D01*
X779866Y1998982D02*
X786534Y1998982D01*
X712620Y1997460D02*
X705952Y1997460D01*
X712620Y1997460D02*
X712620Y1990792D01*
X705952Y1990792D01*
X705952Y1997460D01*
X705952Y1993014D02*
X712620Y1993014D01*
X712620Y1995236D02*
X705952Y1995236D01*
X705952Y1997458D02*
X712620Y1997458D01*
X697380Y1997460D02*
X690712Y1997460D01*
X697380Y1997460D02*
X697380Y1990792D01*
X690712Y1990792D01*
X690712Y1997460D01*
X690712Y1993014D02*
X697380Y1993014D01*
X697380Y1995236D02*
X690712Y1995236D01*
X690712Y1997458D02*
X697380Y1997458D01*
X712556Y2045974D02*
X719224Y2045974D01*
X719224Y2039306D01*
X712556Y2039306D01*
X712556Y2045974D01*
X712556Y2041528D02*
X719224Y2041528D01*
X719224Y2043750D02*
X712556Y2043750D01*
X712556Y2045972D02*
X719224Y2045972D01*
X703984Y2045974D02*
X697316Y2045974D01*
X703984Y2045974D02*
X703984Y2039306D01*
X697316Y2039306D01*
X697316Y2045974D01*
X697316Y2041528D02*
X703984Y2041528D01*
X703984Y2043750D02*
X697316Y2043750D01*
X697316Y2045972D02*
X703984Y2045972D01*
X693506Y2032004D02*
X693506Y2025336D01*
X693506Y2032004D02*
X700174Y2032004D01*
X700174Y2025336D01*
X693506Y2025336D01*
X693506Y2027558D02*
X700174Y2027558D01*
X700174Y2029780D02*
X693506Y2029780D01*
X693506Y2032002D02*
X700174Y2032002D01*
X693506Y2016764D02*
X693506Y2010096D01*
X693506Y2016764D02*
X700174Y2016764D01*
X700174Y2010096D01*
X693506Y2010096D01*
X693506Y2012318D02*
X700174Y2012318D01*
X700174Y2014540D02*
X693506Y2014540D01*
X693506Y2016762D02*
X700174Y2016762D01*
X673186Y2025336D02*
X673186Y2032004D01*
X679854Y2032004D01*
X679854Y2025336D01*
X673186Y2025336D01*
X673186Y2027558D02*
X679854Y2027558D01*
X679854Y2029780D02*
X673186Y2029780D01*
X673186Y2032002D02*
X679854Y2032002D01*
X673186Y2016764D02*
X673186Y2010096D01*
X673186Y2016764D02*
X679854Y2016764D01*
X679854Y2010096D01*
X673186Y2010096D01*
X673186Y2012318D02*
X679854Y2012318D01*
X679854Y2014540D02*
X673186Y2014540D01*
X673186Y2016762D02*
X679854Y2016762D01*
X663344Y2044704D02*
X656676Y2044704D01*
X663344Y2044704D02*
X663344Y2038036D01*
X656676Y2038036D01*
X656676Y2044704D01*
X656676Y2040258D02*
X663344Y2040258D01*
X663344Y2042480D02*
X656676Y2042480D01*
X656676Y2044702D02*
X663344Y2044702D01*
X648104Y2044704D02*
X641436Y2044704D01*
X648104Y2044704D02*
X648104Y2038036D01*
X641436Y2038036D01*
X641436Y2044704D01*
X641436Y2040258D02*
X648104Y2040258D01*
X648104Y2042480D02*
X641436Y2042480D01*
X641436Y2044702D02*
X648104Y2044702D01*
X750656Y2130746D02*
X757324Y2130746D01*
X750656Y2130746D02*
X750656Y2137414D01*
X757324Y2137414D01*
X757324Y2130746D01*
X757324Y2132968D02*
X750656Y2132968D01*
X750656Y2135190D02*
X757324Y2135190D01*
X757324Y2137412D02*
X750656Y2137412D01*
X765896Y2130746D02*
X772564Y2130746D01*
X765896Y2130746D02*
X765896Y2137414D01*
X772564Y2137414D01*
X772564Y2130746D01*
X772564Y2132968D02*
X765896Y2132968D01*
X765896Y2135190D02*
X772564Y2135190D01*
X772564Y2137412D02*
X765896Y2137412D01*
X852574Y1979934D02*
X852574Y1973266D01*
X845906Y1973266D01*
X845906Y1979934D01*
X852574Y1979934D01*
X852574Y1975488D02*
X845906Y1975488D01*
X845906Y1977710D02*
X852574Y1977710D01*
X852574Y1979932D02*
X845906Y1979932D01*
X852574Y1988506D02*
X852574Y1995174D01*
X852574Y1988506D02*
X845906Y1988506D01*
X845906Y1995174D01*
X852574Y1995174D01*
X852574Y1990728D02*
X845906Y1990728D01*
X845906Y1992950D02*
X852574Y1992950D01*
X852574Y1995172D02*
X845906Y1995172D01*
X837334Y1979934D02*
X837334Y1973266D01*
X830666Y1973266D01*
X830666Y1979934D01*
X837334Y1979934D01*
X837334Y1975488D02*
X830666Y1975488D01*
X830666Y1977710D02*
X837334Y1977710D01*
X837334Y1979932D02*
X830666Y1979932D01*
X837334Y1988506D02*
X837334Y1995174D01*
X837334Y1988506D02*
X830666Y1988506D01*
X830666Y1995174D01*
X837334Y1995174D01*
X837334Y1990728D02*
X830666Y1990728D01*
X830666Y1992950D02*
X837334Y1992950D01*
X837334Y1995172D02*
X830666Y1995172D01*
X899754Y1682024D02*
X899754Y1675356D01*
X893086Y1675356D01*
X893086Y1682024D01*
X899754Y1682024D01*
X899754Y1677578D02*
X893086Y1677578D01*
X893086Y1679800D02*
X899754Y1679800D01*
X899754Y1682022D02*
X893086Y1682022D01*
X899754Y1690596D02*
X899754Y1697264D01*
X899754Y1690596D02*
X893086Y1690596D01*
X893086Y1697264D01*
X899754Y1697264D01*
X899754Y1692818D02*
X893086Y1692818D01*
X893086Y1695040D02*
X899754Y1695040D01*
X899754Y1697262D02*
X893086Y1697262D01*
X799234Y1590044D02*
X792566Y1590044D01*
X799234Y1590044D02*
X799234Y1583376D01*
X792566Y1583376D01*
X792566Y1590044D01*
X792566Y1585598D02*
X799234Y1585598D01*
X799234Y1587820D02*
X792566Y1587820D01*
X792566Y1590042D02*
X799234Y1590042D01*
X783994Y1590044D02*
X777326Y1590044D01*
X783994Y1590044D02*
X783994Y1583376D01*
X777326Y1583376D01*
X777326Y1590044D01*
X777326Y1585598D02*
X783994Y1585598D01*
X783994Y1587820D02*
X777326Y1587820D01*
X777326Y1590042D02*
X783994Y1590042D01*
D18*
X828943Y2209194D02*
X832493Y2209194D01*
X828943Y2209194D02*
X828943Y2210994D01*
X832493Y2210994D01*
X832493Y2209194D01*
X832493Y2210393D02*
X828943Y2210393D01*
X828943Y2204194D02*
X832493Y2204194D01*
X828943Y2204194D02*
X828943Y2205994D01*
X832493Y2205994D01*
X832493Y2204194D01*
X832493Y2205393D02*
X828943Y2205393D01*
X828943Y2199194D02*
X832493Y2199194D01*
X828943Y2199194D02*
X828943Y2200994D01*
X832493Y2200994D01*
X832493Y2199194D01*
X832493Y2200393D02*
X828943Y2200393D01*
X828943Y2194194D02*
X832493Y2194194D01*
X828943Y2194194D02*
X828943Y2195994D01*
X832493Y2195994D01*
X832493Y2194194D01*
X832493Y2195393D02*
X828943Y2195393D01*
X828943Y2189194D02*
X832493Y2189194D01*
X828943Y2189194D02*
X828943Y2190994D01*
X832493Y2190994D01*
X832493Y2189194D01*
X832493Y2190393D02*
X828943Y2190393D01*
X828943Y2184194D02*
X832493Y2184194D01*
X828943Y2184194D02*
X828943Y2185994D01*
X832493Y2185994D01*
X832493Y2184194D01*
X832493Y2185393D02*
X828943Y2185393D01*
X828943Y2179194D02*
X832493Y2179194D01*
X828943Y2179194D02*
X828943Y2180994D01*
X832493Y2180994D01*
X832493Y2179194D01*
X832493Y2180393D02*
X828943Y2180393D01*
X828943Y2174194D02*
X832493Y2174194D01*
X828943Y2174194D02*
X828943Y2175994D01*
X832493Y2175994D01*
X832493Y2174194D01*
X832493Y2175393D02*
X828943Y2175393D01*
X828943Y2169194D02*
X832493Y2169194D01*
X828943Y2169194D02*
X828943Y2170994D01*
X832493Y2170994D01*
X832493Y2169194D01*
X832493Y2170393D02*
X828943Y2170393D01*
X828943Y2164194D02*
X832493Y2164194D01*
X828943Y2164194D02*
X828943Y2165994D01*
X832493Y2165994D01*
X832493Y2164194D01*
X832493Y2165393D02*
X828943Y2165393D01*
X828943Y2159194D02*
X832493Y2159194D01*
X828943Y2159194D02*
X828943Y2160994D01*
X832493Y2160994D01*
X832493Y2159194D01*
X832493Y2160393D02*
X828943Y2160393D01*
X828943Y2154194D02*
X832493Y2154194D01*
X828943Y2154194D02*
X828943Y2155994D01*
X832493Y2155994D01*
X832493Y2154194D01*
X832493Y2155393D02*
X828943Y2155393D01*
X837118Y2151369D02*
X837118Y2147819D01*
X835318Y2147819D01*
X835318Y2151369D01*
X837118Y2151369D01*
X837118Y2149018D02*
X835318Y2149018D01*
X835318Y2150217D02*
X837118Y2150217D01*
X842118Y2151369D02*
X842118Y2147819D01*
X840318Y2147819D01*
X840318Y2151369D01*
X842118Y2151369D01*
X842118Y2149018D02*
X840318Y2149018D01*
X840318Y2150217D02*
X842118Y2150217D01*
X847118Y2151369D02*
X847118Y2147819D01*
X845318Y2147819D01*
X845318Y2151369D01*
X847118Y2151369D01*
X847118Y2149018D02*
X845318Y2149018D01*
X845318Y2150217D02*
X847118Y2150217D01*
X852118Y2151369D02*
X852118Y2147819D01*
X850318Y2147819D01*
X850318Y2151369D01*
X852118Y2151369D01*
X852118Y2149018D02*
X850318Y2149018D01*
X850318Y2150217D02*
X852118Y2150217D01*
X857118Y2151369D02*
X857118Y2147819D01*
X855318Y2147819D01*
X855318Y2151369D01*
X857118Y2151369D01*
X857118Y2149018D02*
X855318Y2149018D01*
X855318Y2150217D02*
X857118Y2150217D01*
X862118Y2151369D02*
X862118Y2147819D01*
X860318Y2147819D01*
X860318Y2151369D01*
X862118Y2151369D01*
X862118Y2149018D02*
X860318Y2149018D01*
X860318Y2150217D02*
X862118Y2150217D01*
X867118Y2151369D02*
X867118Y2147819D01*
X865318Y2147819D01*
X865318Y2151369D01*
X867118Y2151369D01*
X867118Y2149018D02*
X865318Y2149018D01*
X865318Y2150217D02*
X867118Y2150217D01*
X872118Y2151369D02*
X872118Y2147819D01*
X870318Y2147819D01*
X870318Y2151369D01*
X872118Y2151369D01*
X872118Y2149018D02*
X870318Y2149018D01*
X870318Y2150217D02*
X872118Y2150217D01*
X877118Y2151369D02*
X877118Y2147819D01*
X875318Y2147819D01*
X875318Y2151369D01*
X877118Y2151369D01*
X877118Y2149018D02*
X875318Y2149018D01*
X875318Y2150217D02*
X877118Y2150217D01*
X882118Y2151369D02*
X882118Y2147819D01*
X880318Y2147819D01*
X880318Y2151369D01*
X882118Y2151369D01*
X882118Y2149018D02*
X880318Y2149018D01*
X880318Y2150217D02*
X882118Y2150217D01*
X887118Y2151369D02*
X887118Y2147819D01*
X885318Y2147819D01*
X885318Y2151369D01*
X887118Y2151369D01*
X887118Y2149018D02*
X885318Y2149018D01*
X885318Y2150217D02*
X887118Y2150217D01*
X892118Y2151369D02*
X892118Y2147819D01*
X890318Y2147819D01*
X890318Y2151369D01*
X892118Y2151369D01*
X892118Y2149018D02*
X890318Y2149018D01*
X890318Y2150217D02*
X892118Y2150217D01*
X894943Y2154194D02*
X898493Y2154194D01*
X894943Y2154194D02*
X894943Y2155994D01*
X898493Y2155994D01*
X898493Y2154194D01*
X898493Y2155393D02*
X894943Y2155393D01*
X894943Y2159194D02*
X898493Y2159194D01*
X894943Y2159194D02*
X894943Y2160994D01*
X898493Y2160994D01*
X898493Y2159194D01*
X898493Y2160393D02*
X894943Y2160393D01*
X894943Y2164194D02*
X898493Y2164194D01*
X894943Y2164194D02*
X894943Y2165994D01*
X898493Y2165994D01*
X898493Y2164194D01*
X898493Y2165393D02*
X894943Y2165393D01*
X894943Y2169194D02*
X898493Y2169194D01*
X894943Y2169194D02*
X894943Y2170994D01*
X898493Y2170994D01*
X898493Y2169194D01*
X898493Y2170393D02*
X894943Y2170393D01*
X894943Y2174194D02*
X898493Y2174194D01*
X894943Y2174194D02*
X894943Y2175994D01*
X898493Y2175994D01*
X898493Y2174194D01*
X898493Y2175393D02*
X894943Y2175393D01*
X894943Y2179194D02*
X898493Y2179194D01*
X894943Y2179194D02*
X894943Y2180994D01*
X898493Y2180994D01*
X898493Y2179194D01*
X898493Y2180393D02*
X894943Y2180393D01*
X894943Y2184194D02*
X898493Y2184194D01*
X894943Y2184194D02*
X894943Y2185994D01*
X898493Y2185994D01*
X898493Y2184194D01*
X898493Y2185393D02*
X894943Y2185393D01*
X894943Y2189194D02*
X898493Y2189194D01*
X894943Y2189194D02*
X894943Y2190994D01*
X898493Y2190994D01*
X898493Y2189194D01*
X898493Y2190393D02*
X894943Y2190393D01*
X894943Y2194194D02*
X898493Y2194194D01*
X894943Y2194194D02*
X894943Y2195994D01*
X898493Y2195994D01*
X898493Y2194194D01*
X898493Y2195393D02*
X894943Y2195393D01*
X894943Y2199194D02*
X898493Y2199194D01*
X894943Y2199194D02*
X894943Y2200994D01*
X898493Y2200994D01*
X898493Y2199194D01*
X898493Y2200393D02*
X894943Y2200393D01*
X894943Y2204194D02*
X898493Y2204194D01*
X894943Y2204194D02*
X894943Y2205994D01*
X898493Y2205994D01*
X898493Y2204194D01*
X898493Y2205393D02*
X894943Y2205393D01*
X894943Y2209194D02*
X898493Y2209194D01*
X894943Y2209194D02*
X894943Y2210994D01*
X898493Y2210994D01*
X898493Y2209194D01*
X898493Y2210393D02*
X894943Y2210393D01*
X892118Y2213819D02*
X892118Y2217369D01*
X892118Y2213819D02*
X890318Y2213819D01*
X890318Y2217369D01*
X892118Y2217369D01*
X892118Y2215018D02*
X890318Y2215018D01*
X890318Y2216217D02*
X892118Y2216217D01*
X887118Y2217369D02*
X887118Y2213819D01*
X885318Y2213819D01*
X885318Y2217369D01*
X887118Y2217369D01*
X887118Y2215018D02*
X885318Y2215018D01*
X885318Y2216217D02*
X887118Y2216217D01*
X882118Y2217369D02*
X882118Y2213819D01*
X880318Y2213819D01*
X880318Y2217369D01*
X882118Y2217369D01*
X882118Y2215018D02*
X880318Y2215018D01*
X880318Y2216217D02*
X882118Y2216217D01*
X877118Y2217369D02*
X877118Y2213819D01*
X875318Y2213819D01*
X875318Y2217369D01*
X877118Y2217369D01*
X877118Y2215018D02*
X875318Y2215018D01*
X875318Y2216217D02*
X877118Y2216217D01*
X872118Y2217369D02*
X872118Y2213819D01*
X870318Y2213819D01*
X870318Y2217369D01*
X872118Y2217369D01*
X872118Y2215018D02*
X870318Y2215018D01*
X870318Y2216217D02*
X872118Y2216217D01*
X867118Y2217369D02*
X867118Y2213819D01*
X865318Y2213819D01*
X865318Y2217369D01*
X867118Y2217369D01*
X867118Y2215018D02*
X865318Y2215018D01*
X865318Y2216217D02*
X867118Y2216217D01*
X862118Y2217369D02*
X862118Y2213819D01*
X860318Y2213819D01*
X860318Y2217369D01*
X862118Y2217369D01*
X862118Y2215018D02*
X860318Y2215018D01*
X860318Y2216217D02*
X862118Y2216217D01*
X857118Y2217369D02*
X857118Y2213819D01*
X855318Y2213819D01*
X855318Y2217369D01*
X857118Y2217369D01*
X857118Y2215018D02*
X855318Y2215018D01*
X855318Y2216217D02*
X857118Y2216217D01*
X852118Y2217369D02*
X852118Y2213819D01*
X850318Y2213819D01*
X850318Y2217369D01*
X852118Y2217369D01*
X852118Y2215018D02*
X850318Y2215018D01*
X850318Y2216217D02*
X852118Y2216217D01*
X847118Y2217369D02*
X847118Y2213819D01*
X845318Y2213819D01*
X845318Y2217369D01*
X847118Y2217369D01*
X847118Y2215018D02*
X845318Y2215018D01*
X845318Y2216217D02*
X847118Y2216217D01*
X842118Y2217369D02*
X842118Y2213819D01*
X840318Y2213819D01*
X840318Y2217369D01*
X842118Y2217369D01*
X842118Y2215018D02*
X840318Y2215018D01*
X840318Y2216217D02*
X842118Y2216217D01*
X837118Y2217369D02*
X837118Y2213819D01*
X835318Y2213819D01*
X835318Y2217369D01*
X837118Y2217369D01*
X837118Y2215018D02*
X835318Y2215018D01*
X835318Y2216217D02*
X837118Y2216217D01*
D19*
X850718Y2195594D03*
X850718Y2169594D03*
X876718Y2169594D03*
X876718Y2195594D03*
D10*
X811934Y2184404D02*
X805266Y2184404D01*
X811934Y2184404D02*
X811934Y2177736D01*
X805266Y2177736D01*
X805266Y2184404D01*
X805266Y2179958D02*
X811934Y2179958D01*
X811934Y2182180D02*
X805266Y2182180D01*
X805266Y2184402D02*
X811934Y2184402D01*
X796694Y2184404D02*
X790026Y2184404D01*
X796694Y2184404D02*
X796694Y2177736D01*
X790026Y2177736D01*
X790026Y2184404D01*
X790026Y2179958D02*
X796694Y2179958D01*
X796694Y2182180D02*
X790026Y2182180D01*
X790026Y2184402D02*
X796694Y2184402D01*
X805266Y2170434D02*
X811934Y2170434D01*
X811934Y2163766D01*
X805266Y2163766D01*
X805266Y2170434D01*
X805266Y2165988D02*
X811934Y2165988D01*
X811934Y2168210D02*
X805266Y2168210D01*
X805266Y2170432D02*
X811934Y2170432D01*
X796694Y2170434D02*
X790026Y2170434D01*
X796694Y2170434D02*
X796694Y2163766D01*
X790026Y2163766D01*
X790026Y2170434D01*
X790026Y2165988D02*
X796694Y2165988D01*
X796694Y2168210D02*
X790026Y2168210D01*
X790026Y2170432D02*
X796694Y2170432D01*
D20*
X817862Y2234664D03*
X800862Y2234664D03*
D10*
X814664Y2224536D02*
X814664Y2217868D01*
X814664Y2224536D02*
X821332Y2224536D01*
X821332Y2217868D01*
X814664Y2217868D01*
X814664Y2220090D02*
X821332Y2220090D01*
X821332Y2222312D02*
X814664Y2222312D01*
X814664Y2224534D02*
X821332Y2224534D01*
X814664Y2209296D02*
X814664Y2202628D01*
X814664Y2209296D02*
X821332Y2209296D01*
X821332Y2202628D01*
X814664Y2202628D01*
X814664Y2204850D02*
X821332Y2204850D01*
X821332Y2207072D02*
X814664Y2207072D01*
X814664Y2209294D02*
X821332Y2209294D01*
D21*
X800980Y2205340D03*
X800980Y2222840D03*
D10*
X948776Y2118046D02*
X955444Y2118046D01*
X948776Y2118046D02*
X948776Y2124714D01*
X955444Y2124714D01*
X955444Y2118046D01*
X955444Y2120268D02*
X948776Y2120268D01*
X948776Y2122490D02*
X955444Y2122490D01*
X955444Y2124712D02*
X948776Y2124712D01*
X964016Y2118046D02*
X970684Y2118046D01*
X964016Y2118046D02*
X964016Y2124714D01*
X970684Y2124714D01*
X970684Y2118046D01*
X970684Y2120268D02*
X964016Y2120268D01*
X964016Y2122490D02*
X970684Y2122490D01*
X970684Y2124712D02*
X964016Y2124712D01*
D22*
X613900Y1758830D03*
X647900Y1758830D03*
X759860Y1758830D03*
X725860Y1758830D03*
X846890Y1758930D03*
X812890Y1758930D03*
X924450Y1758830D03*
X958450Y1758830D03*
D15*
X955920Y1721330D03*
X964810Y1701010D03*
X947030Y1701010D03*
D10*
X766214Y1738316D02*
X759546Y1738316D01*
X759546Y1744984D01*
X766214Y1744984D01*
X766214Y1738316D01*
X766214Y1740538D02*
X759546Y1740538D01*
X759546Y1742760D02*
X766214Y1742760D01*
X766214Y1744982D02*
X759546Y1744982D01*
X774786Y1738316D02*
X781454Y1738316D01*
X774786Y1738316D02*
X774786Y1744984D01*
X781454Y1744984D01*
X781454Y1738316D01*
X781454Y1740538D02*
X774786Y1740538D01*
X774786Y1742760D02*
X781454Y1742760D01*
X781454Y1744982D02*
X774786Y1744982D01*
D23*
X773990Y1289020D03*
X763990Y1289020D03*
X753990Y1289020D03*
X743990Y1289020D03*
X733990Y1289020D03*
X723990Y1289020D03*
D24*
X786990Y1250270D03*
X680990Y1250270D03*
D23*
X713990Y1289020D03*
X703990Y1289020D03*
X693990Y1289020D03*
D10*
X778914Y1660846D02*
X778914Y1667514D01*
X778914Y1660846D02*
X772246Y1660846D01*
X772246Y1667514D01*
X778914Y1667514D01*
X778914Y1663068D02*
X772246Y1663068D01*
X772246Y1665290D02*
X778914Y1665290D01*
X778914Y1667512D02*
X772246Y1667512D01*
X778914Y1676086D02*
X778914Y1682754D01*
X778914Y1676086D02*
X772246Y1676086D01*
X772246Y1682754D01*
X778914Y1682754D01*
X778914Y1678308D02*
X772246Y1678308D01*
X772246Y1680530D02*
X778914Y1680530D01*
X778914Y1682752D02*
X772246Y1682752D01*
X922106Y1664974D02*
X922106Y1658306D01*
X922106Y1664974D02*
X928774Y1664974D01*
X928774Y1658306D01*
X922106Y1658306D01*
X922106Y1660528D02*
X928774Y1660528D01*
X928774Y1662750D02*
X922106Y1662750D01*
X922106Y1664972D02*
X928774Y1664972D01*
X922106Y1649734D02*
X922106Y1643066D01*
X922106Y1649734D02*
X928774Y1649734D01*
X928774Y1643066D01*
X922106Y1643066D01*
X922106Y1645288D02*
X928774Y1645288D01*
X928774Y1647510D02*
X922106Y1647510D01*
X922106Y1649732D02*
X928774Y1649732D01*
D25*
X701040Y1949930D03*
X718040Y1949930D03*
D10*
X873576Y2127206D02*
X880244Y2127206D01*
X873576Y2127206D02*
X873576Y2133874D01*
X880244Y2133874D01*
X880244Y2127206D01*
X880244Y2129428D02*
X873576Y2129428D01*
X873576Y2131650D02*
X880244Y2131650D01*
X880244Y2133872D02*
X873576Y2133872D01*
X888816Y2127206D02*
X895484Y2127206D01*
X888816Y2127206D02*
X888816Y2133874D01*
X895484Y2133874D01*
X895484Y2127206D01*
X895484Y2129428D02*
X888816Y2129428D01*
X888816Y2131650D02*
X895484Y2131650D01*
X895484Y2133872D02*
X888816Y2133872D01*
X856892Y2235204D02*
X850224Y2235204D01*
X856892Y2235204D02*
X856892Y2228536D01*
X850224Y2228536D01*
X850224Y2235204D01*
X850224Y2230758D02*
X856892Y2230758D01*
X856892Y2232980D02*
X850224Y2232980D01*
X850224Y2235202D02*
X856892Y2235202D01*
X841652Y2235204D02*
X834984Y2235204D01*
X841652Y2235204D02*
X841652Y2228536D01*
X834984Y2228536D01*
X834984Y2235204D01*
X834984Y2230758D02*
X841652Y2230758D01*
X841652Y2232980D02*
X834984Y2232980D01*
X834984Y2235202D02*
X841652Y2235202D01*
X923376Y2212026D02*
X930044Y2212026D01*
X923376Y2212026D02*
X923376Y2218694D01*
X930044Y2218694D01*
X930044Y2212026D01*
X930044Y2214248D02*
X923376Y2214248D01*
X923376Y2216470D02*
X930044Y2216470D01*
X930044Y2218692D02*
X923376Y2218692D01*
X938616Y2212026D02*
X945284Y2212026D01*
X938616Y2212026D02*
X938616Y2218694D01*
X945284Y2218694D01*
X945284Y2212026D01*
X945284Y2214248D02*
X938616Y2214248D01*
X938616Y2216470D02*
X945284Y2216470D01*
X945284Y2218692D02*
X938616Y2218692D01*
X948776Y2135191D02*
X955444Y2135191D01*
X948776Y2135191D02*
X948776Y2141859D01*
X955444Y2141859D01*
X955444Y2135191D01*
X955444Y2137413D02*
X948776Y2137413D01*
X948776Y2139635D02*
X955444Y2139635D01*
X955444Y2141857D02*
X948776Y2141857D01*
X964016Y2135191D02*
X970684Y2135191D01*
X964016Y2135191D02*
X964016Y2141859D01*
X970684Y2141859D01*
X970684Y2135191D01*
X970684Y2137413D02*
X964016Y2137413D01*
X964016Y2139635D02*
X970684Y2139635D01*
X970684Y2141857D02*
X964016Y2141857D01*
X852574Y2049784D02*
X845906Y2049784D01*
X852574Y2049784D02*
X852574Y2043116D01*
X845906Y2043116D01*
X845906Y2049784D01*
X845906Y2045338D02*
X852574Y2045338D01*
X852574Y2047560D02*
X845906Y2047560D01*
X845906Y2049782D02*
X852574Y2049782D01*
X837334Y2049784D02*
X830666Y2049784D01*
X837334Y2049784D02*
X837334Y2043116D01*
X830666Y2043116D01*
X830666Y2049784D01*
X830666Y2045338D02*
X837334Y2045338D01*
X837334Y2047560D02*
X830666Y2047560D01*
X830666Y2049782D02*
X837334Y2049782D01*
X875116Y2049784D02*
X881784Y2049784D01*
X881784Y2043116D01*
X875116Y2043116D01*
X875116Y2049784D01*
X875116Y2045338D02*
X881784Y2045338D01*
X881784Y2047560D02*
X875116Y2047560D01*
X875116Y2049782D02*
X881784Y2049782D01*
X866544Y2049784D02*
X859876Y2049784D01*
X866544Y2049784D02*
X866544Y2043116D01*
X859876Y2043116D01*
X859876Y2049784D01*
X859876Y2045338D02*
X866544Y2045338D01*
X866544Y2047560D02*
X859876Y2047560D01*
X859876Y2049782D02*
X866544Y2049782D01*
X866544Y2029146D02*
X859876Y2029146D01*
X859876Y2035814D01*
X866544Y2035814D01*
X866544Y2029146D01*
X866544Y2031368D02*
X859876Y2031368D01*
X859876Y2033590D02*
X866544Y2033590D01*
X866544Y2035812D02*
X859876Y2035812D01*
X875116Y2029146D02*
X881784Y2029146D01*
X875116Y2029146D02*
X875116Y2035814D01*
X881784Y2035814D01*
X881784Y2029146D01*
X881784Y2031368D02*
X875116Y2031368D01*
X875116Y2033590D02*
X881784Y2033590D01*
X881784Y2035812D02*
X875116Y2035812D01*
X929726Y1593536D02*
X936394Y1593536D01*
X929726Y1593536D02*
X929726Y1600204D01*
X936394Y1600204D01*
X936394Y1593536D01*
X936394Y1595758D02*
X929726Y1595758D01*
X929726Y1597980D02*
X936394Y1597980D01*
X936394Y1600202D02*
X929726Y1600202D01*
X944966Y1593536D02*
X951634Y1593536D01*
X944966Y1593536D02*
X944966Y1600204D01*
X951634Y1600204D01*
X951634Y1593536D01*
X951634Y1595758D02*
X944966Y1595758D01*
X944966Y1597980D02*
X951634Y1597980D01*
X951634Y1600202D02*
X944966Y1600202D01*
X921154Y1584964D02*
X921154Y1578296D01*
X914486Y1578296D01*
X914486Y1584964D01*
X921154Y1584964D01*
X921154Y1580518D02*
X914486Y1580518D01*
X914486Y1582740D02*
X921154Y1582740D01*
X921154Y1584962D02*
X914486Y1584962D01*
X921154Y1593536D02*
X921154Y1600204D01*
X921154Y1593536D02*
X914486Y1593536D01*
X914486Y1600204D01*
X921154Y1600204D01*
X921154Y1595758D02*
X914486Y1595758D01*
X914486Y1597980D02*
X921154Y1597980D01*
X921154Y1600202D02*
X914486Y1600202D01*
D26*
X638420Y2061690D03*
X661280Y2061690D03*
X684140Y2061690D03*
D27*
X661280Y2125190D03*
D28*
X747005Y2167100D03*
X717795Y2167100D03*
X705095Y2068040D03*
X734305Y2068040D03*
D29*
X746370Y1711805D03*
X746370Y1682595D03*
D10*
X725256Y1550674D02*
X725256Y1544006D01*
X725256Y1550674D02*
X731924Y1550674D01*
X731924Y1544006D01*
X725256Y1544006D01*
X725256Y1546228D02*
X731924Y1546228D01*
X731924Y1548450D02*
X725256Y1548450D01*
X725256Y1550672D02*
X731924Y1550672D01*
X725256Y1535434D02*
X725256Y1528766D01*
X725256Y1535434D02*
X731924Y1535434D01*
X731924Y1528766D01*
X725256Y1528766D01*
X725256Y1530988D02*
X731924Y1530988D01*
X731924Y1533210D02*
X725256Y1533210D01*
X725256Y1535432D02*
X731924Y1535432D01*
X948776Y2104076D02*
X955444Y2104076D01*
X948776Y2104076D02*
X948776Y2110744D01*
X955444Y2110744D01*
X955444Y2104076D01*
X955444Y2106298D02*
X948776Y2106298D01*
X948776Y2108520D02*
X955444Y2108520D01*
X955444Y2110742D02*
X948776Y2110742D01*
X964016Y2104076D02*
X970684Y2104076D01*
X964016Y2104076D02*
X964016Y2110744D01*
X970684Y2110744D01*
X970684Y2104076D01*
X970684Y2106298D02*
X964016Y2106298D01*
X964016Y2108520D02*
X970684Y2108520D01*
X970684Y2110742D02*
X964016Y2110742D01*
X938934Y2119316D02*
X938934Y2125984D01*
X938934Y2119316D02*
X932266Y2119316D01*
X932266Y2125984D01*
X938934Y2125984D01*
X938934Y2121538D02*
X932266Y2121538D01*
X932266Y2123760D02*
X938934Y2123760D01*
X938934Y2125982D02*
X932266Y2125982D01*
X938934Y2134556D02*
X938934Y2141224D01*
X938934Y2134556D02*
X932266Y2134556D01*
X932266Y2141224D01*
X938934Y2141224D01*
X938934Y2136778D02*
X932266Y2136778D01*
X932266Y2139000D02*
X938934Y2139000D01*
X938934Y2141222D02*
X932266Y2141222D01*
D30*
X857114Y1411450D03*
X857114Y1444470D03*
X619116Y1540990D03*
X652136Y1540990D03*
X753990Y2007080D03*
X720970Y2007080D03*
D31*
X763571Y1940017D02*
X763571Y1923267D01*
X763571Y1940017D02*
X768821Y1940017D01*
X768821Y1923267D01*
X763571Y1923267D01*
X763571Y1928516D02*
X768821Y1928516D01*
X768821Y1933765D02*
X763571Y1933765D01*
X763571Y1939014D02*
X768821Y1939014D01*
X733571Y1940017D02*
X733571Y1923267D01*
X733571Y1940017D02*
X738821Y1940017D01*
X738821Y1923267D01*
X733571Y1923267D01*
X733571Y1928516D02*
X738821Y1928516D01*
X738821Y1933765D02*
X733571Y1933765D01*
X733571Y1939014D02*
X738821Y1939014D01*
D32*
X753696Y1944132D02*
X753696Y1949632D01*
X753696Y1944132D02*
X748696Y1944132D01*
X748696Y1949632D01*
X753696Y1949632D01*
X753696Y1949131D02*
X748696Y1949131D01*
D33*
X854320Y1726800D03*
X877320Y1689800D03*
X877320Y1726800D03*
X854320Y1689800D03*
D25*
X840604Y1695558D03*
X840604Y1712558D03*
X892564Y1734446D03*
X892564Y1717446D03*
D34*
X842590Y1282756D03*
X868590Y1282756D03*
X849090Y1282756D03*
X855590Y1282756D03*
X862090Y1282756D03*
D35*
X815590Y1256256D03*
X895590Y1256256D03*
D36*
X842890Y1256256D03*
X868290Y1256256D03*
D10*
X935568Y1511240D02*
X935568Y1517908D01*
X942236Y1517908D01*
X942236Y1511240D01*
X935568Y1511240D01*
X935568Y1513462D02*
X942236Y1513462D01*
X942236Y1515684D02*
X935568Y1515684D01*
X935568Y1517906D02*
X942236Y1517906D01*
X935568Y1502668D02*
X935568Y1496000D01*
X935568Y1502668D02*
X942236Y1502668D01*
X942236Y1496000D01*
X935568Y1496000D01*
X935568Y1498222D02*
X942236Y1498222D01*
X942236Y1500444D02*
X935568Y1500444D01*
X935568Y1502666D02*
X942236Y1502666D01*
X965540Y1517908D02*
X972208Y1517908D01*
X972208Y1511240D01*
X965540Y1511240D01*
X965540Y1517908D01*
X965540Y1513462D02*
X972208Y1513462D01*
X972208Y1515684D02*
X965540Y1515684D01*
X965540Y1517906D02*
X972208Y1517906D01*
X956968Y1517908D02*
X950300Y1517908D01*
X956968Y1517908D02*
X956968Y1511240D01*
X950300Y1511240D01*
X950300Y1517908D01*
X950300Y1513462D02*
X956968Y1513462D01*
X956968Y1515684D02*
X950300Y1515684D01*
X950300Y1517906D02*
X956968Y1517906D01*
X729892Y1588012D02*
X723224Y1588012D01*
X729892Y1588012D02*
X729892Y1581344D01*
X723224Y1581344D01*
X723224Y1588012D01*
X723224Y1583566D02*
X729892Y1583566D01*
X729892Y1585788D02*
X723224Y1585788D01*
X723224Y1588010D02*
X729892Y1588010D01*
X714652Y1588012D02*
X707984Y1588012D01*
X714652Y1588012D02*
X714652Y1581344D01*
X707984Y1581344D01*
X707984Y1588012D01*
X707984Y1583566D02*
X714652Y1583566D01*
X714652Y1585788D02*
X707984Y1585788D01*
X707984Y1588010D02*
X714652Y1588010D01*
X1371296Y2130746D02*
X1377964Y2130746D01*
X1371296Y2130746D02*
X1371296Y2137414D01*
X1377964Y2137414D01*
X1377964Y2130746D01*
X1377964Y2132968D02*
X1371296Y2132968D01*
X1371296Y2135190D02*
X1377964Y2135190D01*
X1377964Y2137412D02*
X1371296Y2137412D01*
X1386536Y2130746D02*
X1393204Y2130746D01*
X1386536Y2130746D02*
X1386536Y2137414D01*
X1393204Y2137414D01*
X1393204Y2130746D01*
X1393204Y2132968D02*
X1386536Y2132968D01*
X1386536Y2135190D02*
X1393204Y2135190D01*
X1393204Y2137412D02*
X1386536Y2137412D01*
D11*
X1461200Y2300610D03*
X1461200Y2286150D03*
X1409200Y2300610D03*
X1409200Y2286150D03*
D12*
X1523290Y1810080D03*
X1523290Y1830080D03*
X1373290Y1810080D03*
X1523290Y1850080D03*
X1523290Y1870080D03*
X1523290Y1890080D03*
X1523290Y1910080D03*
X1523290Y1930080D03*
X1523290Y1950080D03*
X1373290Y1830080D03*
X1373290Y1850080D03*
X1373290Y1870080D03*
X1373290Y1890080D03*
X1373290Y1910080D03*
X1373290Y1930080D03*
X1373290Y1950080D03*
D13*
X1464292Y1660624D03*
X1459466Y1660624D03*
X1454386Y1660624D03*
X1449306Y1660624D03*
X1444480Y1660624D03*
X1439400Y1660624D03*
X1434320Y1660624D03*
X1429240Y1660624D03*
X1424414Y1660624D03*
X1419334Y1660624D03*
X1414254Y1660624D03*
X1409428Y1660624D03*
D14*
X1394696Y1645892D03*
X1394696Y1641066D03*
X1394696Y1635986D03*
X1394696Y1630906D03*
X1394696Y1626080D03*
X1394696Y1621000D03*
X1394696Y1615920D03*
X1394696Y1610840D03*
X1394696Y1606014D03*
X1394696Y1600934D03*
X1394696Y1595854D03*
X1394696Y1591028D03*
D13*
X1409428Y1576296D03*
X1414254Y1576296D03*
X1419334Y1576296D03*
X1424414Y1576296D03*
X1429240Y1576296D03*
X1434320Y1576296D03*
X1439400Y1576296D03*
X1444480Y1576296D03*
X1449306Y1576296D03*
X1454386Y1576296D03*
X1459466Y1576296D03*
X1464292Y1576296D03*
D14*
X1479024Y1591028D03*
X1479024Y1595854D03*
X1479024Y1600934D03*
X1479024Y1606014D03*
X1479024Y1610840D03*
X1479024Y1615920D03*
X1479024Y1621000D03*
X1479024Y1626080D03*
X1479024Y1630906D03*
X1479024Y1635986D03*
X1479024Y1641066D03*
X1479024Y1645892D03*
D10*
X1441210Y1328424D02*
X1441210Y1321756D01*
X1434542Y1321756D01*
X1434542Y1328424D01*
X1441210Y1328424D01*
X1441210Y1323978D02*
X1434542Y1323978D01*
X1434542Y1326200D02*
X1441210Y1326200D01*
X1441210Y1328422D02*
X1434542Y1328422D01*
X1441210Y1336996D02*
X1441210Y1343664D01*
X1441210Y1336996D02*
X1434542Y1336996D01*
X1434542Y1343664D01*
X1441210Y1343664D01*
X1441210Y1339218D02*
X1434542Y1339218D01*
X1434542Y1341440D02*
X1441210Y1341440D01*
X1441210Y1343662D02*
X1434542Y1343662D01*
X1427240Y1328424D02*
X1427240Y1321756D01*
X1420572Y1321756D01*
X1420572Y1328424D01*
X1427240Y1328424D01*
X1427240Y1323978D02*
X1420572Y1323978D01*
X1420572Y1326200D02*
X1427240Y1326200D01*
X1427240Y1328422D02*
X1420572Y1328422D01*
X1427240Y1336996D02*
X1427240Y1343664D01*
X1427240Y1336996D02*
X1420572Y1336996D01*
X1420572Y1343664D01*
X1427240Y1343664D01*
X1427240Y1339218D02*
X1420572Y1339218D01*
X1420572Y1341440D02*
X1427240Y1341440D01*
X1427240Y1343662D02*
X1420572Y1343662D01*
X1437336Y1544006D02*
X1444004Y1544006D01*
X1437336Y1544006D02*
X1437336Y1550674D01*
X1444004Y1550674D01*
X1444004Y1544006D01*
X1444004Y1546228D02*
X1437336Y1546228D01*
X1437336Y1548450D02*
X1444004Y1548450D01*
X1444004Y1550672D02*
X1437336Y1550672D01*
X1452576Y1544006D02*
X1459244Y1544006D01*
X1452576Y1544006D02*
X1452576Y1550674D01*
X1459244Y1550674D01*
X1459244Y1544006D01*
X1459244Y1546228D02*
X1452576Y1546228D01*
X1452576Y1548450D02*
X1459244Y1548450D01*
X1459244Y1550672D02*
X1452576Y1550672D01*
D15*
X1476738Y1459710D03*
X1467848Y1480030D03*
X1485628Y1480030D03*
D16*
X1262870Y1540990D03*
X1283190Y1549880D03*
X1283190Y1532100D03*
D17*
X1368890Y2041671D03*
X1359390Y2041671D03*
X1349890Y2041671D03*
X1349890Y2015669D03*
X1368890Y2015669D03*
D10*
X1395680Y2020574D02*
X1402348Y2020574D01*
X1402348Y2013906D01*
X1395680Y2013906D01*
X1395680Y2020574D01*
X1395680Y2016128D02*
X1402348Y2016128D01*
X1402348Y2018350D02*
X1395680Y2018350D01*
X1395680Y2020572D02*
X1402348Y2020572D01*
X1387108Y2020574D02*
X1380440Y2020574D01*
X1387108Y2020574D02*
X1387108Y2013906D01*
X1380440Y2013906D01*
X1380440Y2020574D01*
X1380440Y2016128D02*
X1387108Y2016128D01*
X1387108Y2018350D02*
X1380440Y2018350D01*
X1380440Y2020572D02*
X1387108Y2020572D01*
D15*
X1320020Y2045180D03*
X1328910Y2024860D03*
X1311130Y2024860D03*
D10*
X1375106Y1998984D02*
X1381774Y1998984D01*
X1381774Y1992316D01*
X1375106Y1992316D01*
X1375106Y1998984D01*
X1375106Y1994538D02*
X1381774Y1994538D01*
X1381774Y1996760D02*
X1375106Y1996760D01*
X1375106Y1998982D02*
X1381774Y1998982D01*
X1366534Y1998984D02*
X1359866Y1998984D01*
X1366534Y1998984D02*
X1366534Y1992316D01*
X1359866Y1992316D01*
X1359866Y1998984D01*
X1359866Y1994538D02*
X1366534Y1994538D01*
X1366534Y1996760D02*
X1359866Y1996760D01*
X1359866Y1998982D02*
X1366534Y1998982D01*
X1292620Y1997460D02*
X1285952Y1997460D01*
X1292620Y1997460D02*
X1292620Y1990792D01*
X1285952Y1990792D01*
X1285952Y1997460D01*
X1285952Y1993014D02*
X1292620Y1993014D01*
X1292620Y1995236D02*
X1285952Y1995236D01*
X1285952Y1997458D02*
X1292620Y1997458D01*
X1277380Y1997460D02*
X1270712Y1997460D01*
X1277380Y1997460D02*
X1277380Y1990792D01*
X1270712Y1990792D01*
X1270712Y1997460D01*
X1270712Y1993014D02*
X1277380Y1993014D01*
X1277380Y1995236D02*
X1270712Y1995236D01*
X1270712Y1997458D02*
X1277380Y1997458D01*
X1292556Y2045974D02*
X1299224Y2045974D01*
X1299224Y2039306D01*
X1292556Y2039306D01*
X1292556Y2045974D01*
X1292556Y2041528D02*
X1299224Y2041528D01*
X1299224Y2043750D02*
X1292556Y2043750D01*
X1292556Y2045972D02*
X1299224Y2045972D01*
X1283984Y2045974D02*
X1277316Y2045974D01*
X1283984Y2045974D02*
X1283984Y2039306D01*
X1277316Y2039306D01*
X1277316Y2045974D01*
X1277316Y2041528D02*
X1283984Y2041528D01*
X1283984Y2043750D02*
X1277316Y2043750D01*
X1277316Y2045972D02*
X1283984Y2045972D01*
X1273506Y2032004D02*
X1273506Y2025336D01*
X1273506Y2032004D02*
X1280174Y2032004D01*
X1280174Y2025336D01*
X1273506Y2025336D01*
X1273506Y2027558D02*
X1280174Y2027558D01*
X1280174Y2029780D02*
X1273506Y2029780D01*
X1273506Y2032002D02*
X1280174Y2032002D01*
X1273506Y2016764D02*
X1273506Y2010096D01*
X1273506Y2016764D02*
X1280174Y2016764D01*
X1280174Y2010096D01*
X1273506Y2010096D01*
X1273506Y2012318D02*
X1280174Y2012318D01*
X1280174Y2014540D02*
X1273506Y2014540D01*
X1273506Y2016762D02*
X1280174Y2016762D01*
X1253186Y2025336D02*
X1253186Y2032004D01*
X1259854Y2032004D01*
X1259854Y2025336D01*
X1253186Y2025336D01*
X1253186Y2027558D02*
X1259854Y2027558D01*
X1259854Y2029780D02*
X1253186Y2029780D01*
X1253186Y2032002D02*
X1259854Y2032002D01*
X1253186Y2016764D02*
X1253186Y2010096D01*
X1253186Y2016764D02*
X1259854Y2016764D01*
X1259854Y2010096D01*
X1253186Y2010096D01*
X1253186Y2012318D02*
X1259854Y2012318D01*
X1259854Y2014540D02*
X1253186Y2014540D01*
X1253186Y2016762D02*
X1259854Y2016762D01*
X1243344Y2044704D02*
X1236676Y2044704D01*
X1243344Y2044704D02*
X1243344Y2038036D01*
X1236676Y2038036D01*
X1236676Y2044704D01*
X1236676Y2040258D02*
X1243344Y2040258D01*
X1243344Y2042480D02*
X1236676Y2042480D01*
X1236676Y2044702D02*
X1243344Y2044702D01*
X1228104Y2044704D02*
X1221436Y2044704D01*
X1228104Y2044704D02*
X1228104Y2038036D01*
X1221436Y2038036D01*
X1221436Y2044704D01*
X1221436Y2040258D02*
X1228104Y2040258D01*
X1228104Y2042480D02*
X1221436Y2042480D01*
X1221436Y2044702D02*
X1228104Y2044702D01*
X1330656Y2130746D02*
X1337324Y2130746D01*
X1330656Y2130746D02*
X1330656Y2137414D01*
X1337324Y2137414D01*
X1337324Y2130746D01*
X1337324Y2132968D02*
X1330656Y2132968D01*
X1330656Y2135190D02*
X1337324Y2135190D01*
X1337324Y2137412D02*
X1330656Y2137412D01*
X1345896Y2130746D02*
X1352564Y2130746D01*
X1345896Y2130746D02*
X1345896Y2137414D01*
X1352564Y2137414D01*
X1352564Y2130746D01*
X1352564Y2132968D02*
X1345896Y2132968D01*
X1345896Y2135190D02*
X1352564Y2135190D01*
X1352564Y2137412D02*
X1345896Y2137412D01*
X1432574Y1979934D02*
X1432574Y1973266D01*
X1425906Y1973266D01*
X1425906Y1979934D01*
X1432574Y1979934D01*
X1432574Y1975488D02*
X1425906Y1975488D01*
X1425906Y1977710D02*
X1432574Y1977710D01*
X1432574Y1979932D02*
X1425906Y1979932D01*
X1432574Y1988506D02*
X1432574Y1995174D01*
X1432574Y1988506D02*
X1425906Y1988506D01*
X1425906Y1995174D01*
X1432574Y1995174D01*
X1432574Y1990728D02*
X1425906Y1990728D01*
X1425906Y1992950D02*
X1432574Y1992950D01*
X1432574Y1995172D02*
X1425906Y1995172D01*
X1417334Y1979934D02*
X1417334Y1973266D01*
X1410666Y1973266D01*
X1410666Y1979934D01*
X1417334Y1979934D01*
X1417334Y1975488D02*
X1410666Y1975488D01*
X1410666Y1977710D02*
X1417334Y1977710D01*
X1417334Y1979932D02*
X1410666Y1979932D01*
X1417334Y1988506D02*
X1417334Y1995174D01*
X1417334Y1988506D02*
X1410666Y1988506D01*
X1410666Y1995174D01*
X1417334Y1995174D01*
X1417334Y1990728D02*
X1410666Y1990728D01*
X1410666Y1992950D02*
X1417334Y1992950D01*
X1417334Y1995172D02*
X1410666Y1995172D01*
X1479754Y1682024D02*
X1479754Y1675356D01*
X1473086Y1675356D01*
X1473086Y1682024D01*
X1479754Y1682024D01*
X1479754Y1677578D02*
X1473086Y1677578D01*
X1473086Y1679800D02*
X1479754Y1679800D01*
X1479754Y1682022D02*
X1473086Y1682022D01*
X1479754Y1690596D02*
X1479754Y1697264D01*
X1479754Y1690596D02*
X1473086Y1690596D01*
X1473086Y1697264D01*
X1479754Y1697264D01*
X1479754Y1692818D02*
X1473086Y1692818D01*
X1473086Y1695040D02*
X1479754Y1695040D01*
X1479754Y1697262D02*
X1473086Y1697262D01*
X1379234Y1590044D02*
X1372566Y1590044D01*
X1379234Y1590044D02*
X1379234Y1583376D01*
X1372566Y1583376D01*
X1372566Y1590044D01*
X1372566Y1585598D02*
X1379234Y1585598D01*
X1379234Y1587820D02*
X1372566Y1587820D01*
X1372566Y1590042D02*
X1379234Y1590042D01*
X1363994Y1590044D02*
X1357326Y1590044D01*
X1363994Y1590044D02*
X1363994Y1583376D01*
X1357326Y1583376D01*
X1357326Y1590044D01*
X1357326Y1585598D02*
X1363994Y1585598D01*
X1363994Y1587820D02*
X1357326Y1587820D01*
X1357326Y1590042D02*
X1363994Y1590042D01*
D18*
X1408943Y2209194D02*
X1412493Y2209194D01*
X1408943Y2209194D02*
X1408943Y2210994D01*
X1412493Y2210994D01*
X1412493Y2209194D01*
X1412493Y2210393D02*
X1408943Y2210393D01*
X1408943Y2204194D02*
X1412493Y2204194D01*
X1408943Y2204194D02*
X1408943Y2205994D01*
X1412493Y2205994D01*
X1412493Y2204194D01*
X1412493Y2205393D02*
X1408943Y2205393D01*
X1408943Y2199194D02*
X1412493Y2199194D01*
X1408943Y2199194D02*
X1408943Y2200994D01*
X1412493Y2200994D01*
X1412493Y2199194D01*
X1412493Y2200393D02*
X1408943Y2200393D01*
X1408943Y2194194D02*
X1412493Y2194194D01*
X1408943Y2194194D02*
X1408943Y2195994D01*
X1412493Y2195994D01*
X1412493Y2194194D01*
X1412493Y2195393D02*
X1408943Y2195393D01*
X1408943Y2189194D02*
X1412493Y2189194D01*
X1408943Y2189194D02*
X1408943Y2190994D01*
X1412493Y2190994D01*
X1412493Y2189194D01*
X1412493Y2190393D02*
X1408943Y2190393D01*
X1408943Y2184194D02*
X1412493Y2184194D01*
X1408943Y2184194D02*
X1408943Y2185994D01*
X1412493Y2185994D01*
X1412493Y2184194D01*
X1412493Y2185393D02*
X1408943Y2185393D01*
X1408943Y2179194D02*
X1412493Y2179194D01*
X1408943Y2179194D02*
X1408943Y2180994D01*
X1412493Y2180994D01*
X1412493Y2179194D01*
X1412493Y2180393D02*
X1408943Y2180393D01*
X1408943Y2174194D02*
X1412493Y2174194D01*
X1408943Y2174194D02*
X1408943Y2175994D01*
X1412493Y2175994D01*
X1412493Y2174194D01*
X1412493Y2175393D02*
X1408943Y2175393D01*
X1408943Y2169194D02*
X1412493Y2169194D01*
X1408943Y2169194D02*
X1408943Y2170994D01*
X1412493Y2170994D01*
X1412493Y2169194D01*
X1412493Y2170393D02*
X1408943Y2170393D01*
X1408943Y2164194D02*
X1412493Y2164194D01*
X1408943Y2164194D02*
X1408943Y2165994D01*
X1412493Y2165994D01*
X1412493Y2164194D01*
X1412493Y2165393D02*
X1408943Y2165393D01*
X1408943Y2159194D02*
X1412493Y2159194D01*
X1408943Y2159194D02*
X1408943Y2160994D01*
X1412493Y2160994D01*
X1412493Y2159194D01*
X1412493Y2160393D02*
X1408943Y2160393D01*
X1408943Y2154194D02*
X1412493Y2154194D01*
X1408943Y2154194D02*
X1408943Y2155994D01*
X1412493Y2155994D01*
X1412493Y2154194D01*
X1412493Y2155393D02*
X1408943Y2155393D01*
X1417118Y2151369D02*
X1417118Y2147819D01*
X1415318Y2147819D01*
X1415318Y2151369D01*
X1417118Y2151369D01*
X1417118Y2149018D02*
X1415318Y2149018D01*
X1415318Y2150217D02*
X1417118Y2150217D01*
X1422118Y2151369D02*
X1422118Y2147819D01*
X1420318Y2147819D01*
X1420318Y2151369D01*
X1422118Y2151369D01*
X1422118Y2149018D02*
X1420318Y2149018D01*
X1420318Y2150217D02*
X1422118Y2150217D01*
X1427118Y2151369D02*
X1427118Y2147819D01*
X1425318Y2147819D01*
X1425318Y2151369D01*
X1427118Y2151369D01*
X1427118Y2149018D02*
X1425318Y2149018D01*
X1425318Y2150217D02*
X1427118Y2150217D01*
X1432118Y2151369D02*
X1432118Y2147819D01*
X1430318Y2147819D01*
X1430318Y2151369D01*
X1432118Y2151369D01*
X1432118Y2149018D02*
X1430318Y2149018D01*
X1430318Y2150217D02*
X1432118Y2150217D01*
X1437118Y2151369D02*
X1437118Y2147819D01*
X1435318Y2147819D01*
X1435318Y2151369D01*
X1437118Y2151369D01*
X1437118Y2149018D02*
X1435318Y2149018D01*
X1435318Y2150217D02*
X1437118Y2150217D01*
X1442118Y2151369D02*
X1442118Y2147819D01*
X1440318Y2147819D01*
X1440318Y2151369D01*
X1442118Y2151369D01*
X1442118Y2149018D02*
X1440318Y2149018D01*
X1440318Y2150217D02*
X1442118Y2150217D01*
X1447118Y2151369D02*
X1447118Y2147819D01*
X1445318Y2147819D01*
X1445318Y2151369D01*
X1447118Y2151369D01*
X1447118Y2149018D02*
X1445318Y2149018D01*
X1445318Y2150217D02*
X1447118Y2150217D01*
X1452118Y2151369D02*
X1452118Y2147819D01*
X1450318Y2147819D01*
X1450318Y2151369D01*
X1452118Y2151369D01*
X1452118Y2149018D02*
X1450318Y2149018D01*
X1450318Y2150217D02*
X1452118Y2150217D01*
X1457118Y2151369D02*
X1457118Y2147819D01*
X1455318Y2147819D01*
X1455318Y2151369D01*
X1457118Y2151369D01*
X1457118Y2149018D02*
X1455318Y2149018D01*
X1455318Y2150217D02*
X1457118Y2150217D01*
X1462118Y2151369D02*
X1462118Y2147819D01*
X1460318Y2147819D01*
X1460318Y2151369D01*
X1462118Y2151369D01*
X1462118Y2149018D02*
X1460318Y2149018D01*
X1460318Y2150217D02*
X1462118Y2150217D01*
X1467118Y2151369D02*
X1467118Y2147819D01*
X1465318Y2147819D01*
X1465318Y2151369D01*
X1467118Y2151369D01*
X1467118Y2149018D02*
X1465318Y2149018D01*
X1465318Y2150217D02*
X1467118Y2150217D01*
X1472118Y2151369D02*
X1472118Y2147819D01*
X1470318Y2147819D01*
X1470318Y2151369D01*
X1472118Y2151369D01*
X1472118Y2149018D02*
X1470318Y2149018D01*
X1470318Y2150217D02*
X1472118Y2150217D01*
X1474943Y2154194D02*
X1478493Y2154194D01*
X1474943Y2154194D02*
X1474943Y2155994D01*
X1478493Y2155994D01*
X1478493Y2154194D01*
X1478493Y2155393D02*
X1474943Y2155393D01*
X1474943Y2159194D02*
X1478493Y2159194D01*
X1474943Y2159194D02*
X1474943Y2160994D01*
X1478493Y2160994D01*
X1478493Y2159194D01*
X1478493Y2160393D02*
X1474943Y2160393D01*
X1474943Y2164194D02*
X1478493Y2164194D01*
X1474943Y2164194D02*
X1474943Y2165994D01*
X1478493Y2165994D01*
X1478493Y2164194D01*
X1478493Y2165393D02*
X1474943Y2165393D01*
X1474943Y2169194D02*
X1478493Y2169194D01*
X1474943Y2169194D02*
X1474943Y2170994D01*
X1478493Y2170994D01*
X1478493Y2169194D01*
X1478493Y2170393D02*
X1474943Y2170393D01*
X1474943Y2174194D02*
X1478493Y2174194D01*
X1474943Y2174194D02*
X1474943Y2175994D01*
X1478493Y2175994D01*
X1478493Y2174194D01*
X1478493Y2175393D02*
X1474943Y2175393D01*
X1474943Y2179194D02*
X1478493Y2179194D01*
X1474943Y2179194D02*
X1474943Y2180994D01*
X1478493Y2180994D01*
X1478493Y2179194D01*
X1478493Y2180393D02*
X1474943Y2180393D01*
X1474943Y2184194D02*
X1478493Y2184194D01*
X1474943Y2184194D02*
X1474943Y2185994D01*
X1478493Y2185994D01*
X1478493Y2184194D01*
X1478493Y2185393D02*
X1474943Y2185393D01*
X1474943Y2189194D02*
X1478493Y2189194D01*
X1474943Y2189194D02*
X1474943Y2190994D01*
X1478493Y2190994D01*
X1478493Y2189194D01*
X1478493Y2190393D02*
X1474943Y2190393D01*
X1474943Y2194194D02*
X1478493Y2194194D01*
X1474943Y2194194D02*
X1474943Y2195994D01*
X1478493Y2195994D01*
X1478493Y2194194D01*
X1478493Y2195393D02*
X1474943Y2195393D01*
X1474943Y2199194D02*
X1478493Y2199194D01*
X1474943Y2199194D02*
X1474943Y2200994D01*
X1478493Y2200994D01*
X1478493Y2199194D01*
X1478493Y2200393D02*
X1474943Y2200393D01*
X1474943Y2204194D02*
X1478493Y2204194D01*
X1474943Y2204194D02*
X1474943Y2205994D01*
X1478493Y2205994D01*
X1478493Y2204194D01*
X1478493Y2205393D02*
X1474943Y2205393D01*
X1474943Y2209194D02*
X1478493Y2209194D01*
X1474943Y2209194D02*
X1474943Y2210994D01*
X1478493Y2210994D01*
X1478493Y2209194D01*
X1478493Y2210393D02*
X1474943Y2210393D01*
X1472118Y2213819D02*
X1472118Y2217369D01*
X1472118Y2213819D02*
X1470318Y2213819D01*
X1470318Y2217369D01*
X1472118Y2217369D01*
X1472118Y2215018D02*
X1470318Y2215018D01*
X1470318Y2216217D02*
X1472118Y2216217D01*
X1467118Y2217369D02*
X1467118Y2213819D01*
X1465318Y2213819D01*
X1465318Y2217369D01*
X1467118Y2217369D01*
X1467118Y2215018D02*
X1465318Y2215018D01*
X1465318Y2216217D02*
X1467118Y2216217D01*
X1462118Y2217369D02*
X1462118Y2213819D01*
X1460318Y2213819D01*
X1460318Y2217369D01*
X1462118Y2217369D01*
X1462118Y2215018D02*
X1460318Y2215018D01*
X1460318Y2216217D02*
X1462118Y2216217D01*
X1457118Y2217369D02*
X1457118Y2213819D01*
X1455318Y2213819D01*
X1455318Y2217369D01*
X1457118Y2217369D01*
X1457118Y2215018D02*
X1455318Y2215018D01*
X1455318Y2216217D02*
X1457118Y2216217D01*
X1452118Y2217369D02*
X1452118Y2213819D01*
X1450318Y2213819D01*
X1450318Y2217369D01*
X1452118Y2217369D01*
X1452118Y2215018D02*
X1450318Y2215018D01*
X1450318Y2216217D02*
X1452118Y2216217D01*
X1447118Y2217369D02*
X1447118Y2213819D01*
X1445318Y2213819D01*
X1445318Y2217369D01*
X1447118Y2217369D01*
X1447118Y2215018D02*
X1445318Y2215018D01*
X1445318Y2216217D02*
X1447118Y2216217D01*
X1442118Y2217369D02*
X1442118Y2213819D01*
X1440318Y2213819D01*
X1440318Y2217369D01*
X1442118Y2217369D01*
X1442118Y2215018D02*
X1440318Y2215018D01*
X1440318Y2216217D02*
X1442118Y2216217D01*
X1437118Y2217369D02*
X1437118Y2213819D01*
X1435318Y2213819D01*
X1435318Y2217369D01*
X1437118Y2217369D01*
X1437118Y2215018D02*
X1435318Y2215018D01*
X1435318Y2216217D02*
X1437118Y2216217D01*
X1432118Y2217369D02*
X1432118Y2213819D01*
X1430318Y2213819D01*
X1430318Y2217369D01*
X1432118Y2217369D01*
X1432118Y2215018D02*
X1430318Y2215018D01*
X1430318Y2216217D02*
X1432118Y2216217D01*
X1427118Y2217369D02*
X1427118Y2213819D01*
X1425318Y2213819D01*
X1425318Y2217369D01*
X1427118Y2217369D01*
X1427118Y2215018D02*
X1425318Y2215018D01*
X1425318Y2216217D02*
X1427118Y2216217D01*
X1422118Y2217369D02*
X1422118Y2213819D01*
X1420318Y2213819D01*
X1420318Y2217369D01*
X1422118Y2217369D01*
X1422118Y2215018D02*
X1420318Y2215018D01*
X1420318Y2216217D02*
X1422118Y2216217D01*
X1417118Y2217369D02*
X1417118Y2213819D01*
X1415318Y2213819D01*
X1415318Y2217369D01*
X1417118Y2217369D01*
X1417118Y2215018D02*
X1415318Y2215018D01*
X1415318Y2216217D02*
X1417118Y2216217D01*
D19*
X1430718Y2195594D03*
X1430718Y2169594D03*
X1456718Y2169594D03*
X1456718Y2195594D03*
D10*
X1391934Y2184404D02*
X1385266Y2184404D01*
X1391934Y2184404D02*
X1391934Y2177736D01*
X1385266Y2177736D01*
X1385266Y2184404D01*
X1385266Y2179958D02*
X1391934Y2179958D01*
X1391934Y2182180D02*
X1385266Y2182180D01*
X1385266Y2184402D02*
X1391934Y2184402D01*
X1376694Y2184404D02*
X1370026Y2184404D01*
X1376694Y2184404D02*
X1376694Y2177736D01*
X1370026Y2177736D01*
X1370026Y2184404D01*
X1370026Y2179958D02*
X1376694Y2179958D01*
X1376694Y2182180D02*
X1370026Y2182180D01*
X1370026Y2184402D02*
X1376694Y2184402D01*
X1385266Y2170434D02*
X1391934Y2170434D01*
X1391934Y2163766D01*
X1385266Y2163766D01*
X1385266Y2170434D01*
X1385266Y2165988D02*
X1391934Y2165988D01*
X1391934Y2168210D02*
X1385266Y2168210D01*
X1385266Y2170432D02*
X1391934Y2170432D01*
X1376694Y2170434D02*
X1370026Y2170434D01*
X1376694Y2170434D02*
X1376694Y2163766D01*
X1370026Y2163766D01*
X1370026Y2170434D01*
X1370026Y2165988D02*
X1376694Y2165988D01*
X1376694Y2168210D02*
X1370026Y2168210D01*
X1370026Y2170432D02*
X1376694Y2170432D01*
D20*
X1397862Y2234664D03*
X1380862Y2234664D03*
D10*
X1394664Y2224536D02*
X1394664Y2217868D01*
X1394664Y2224536D02*
X1401332Y2224536D01*
X1401332Y2217868D01*
X1394664Y2217868D01*
X1394664Y2220090D02*
X1401332Y2220090D01*
X1401332Y2222312D02*
X1394664Y2222312D01*
X1394664Y2224534D02*
X1401332Y2224534D01*
X1394664Y2209296D02*
X1394664Y2202628D01*
X1394664Y2209296D02*
X1401332Y2209296D01*
X1401332Y2202628D01*
X1394664Y2202628D01*
X1394664Y2204850D02*
X1401332Y2204850D01*
X1401332Y2207072D02*
X1394664Y2207072D01*
X1394664Y2209294D02*
X1401332Y2209294D01*
D21*
X1380980Y2205340D03*
X1380980Y2222840D03*
D10*
X1528776Y2118046D02*
X1535444Y2118046D01*
X1528776Y2118046D02*
X1528776Y2124714D01*
X1535444Y2124714D01*
X1535444Y2118046D01*
X1535444Y2120268D02*
X1528776Y2120268D01*
X1528776Y2122490D02*
X1535444Y2122490D01*
X1535444Y2124712D02*
X1528776Y2124712D01*
X1544016Y2118046D02*
X1550684Y2118046D01*
X1544016Y2118046D02*
X1544016Y2124714D01*
X1550684Y2124714D01*
X1550684Y2118046D01*
X1550684Y2120268D02*
X1544016Y2120268D01*
X1544016Y2122490D02*
X1550684Y2122490D01*
X1550684Y2124712D02*
X1544016Y2124712D01*
D22*
X1193900Y1758830D03*
X1227900Y1758830D03*
X1339860Y1758830D03*
X1305860Y1758830D03*
X1426890Y1758930D03*
X1392890Y1758930D03*
X1504450Y1758830D03*
X1538450Y1758830D03*
D15*
X1535920Y1721330D03*
X1544810Y1701010D03*
X1527030Y1701010D03*
D10*
X1346214Y1738316D02*
X1339546Y1738316D01*
X1339546Y1744984D01*
X1346214Y1744984D01*
X1346214Y1738316D01*
X1346214Y1740538D02*
X1339546Y1740538D01*
X1339546Y1742760D02*
X1346214Y1742760D01*
X1346214Y1744982D02*
X1339546Y1744982D01*
X1354786Y1738316D02*
X1361454Y1738316D01*
X1354786Y1738316D02*
X1354786Y1744984D01*
X1361454Y1744984D01*
X1361454Y1738316D01*
X1361454Y1740538D02*
X1354786Y1740538D01*
X1354786Y1742760D02*
X1361454Y1742760D01*
X1361454Y1744982D02*
X1354786Y1744982D01*
D23*
X1353990Y1289020D03*
X1343990Y1289020D03*
X1333990Y1289020D03*
X1323990Y1289020D03*
X1313990Y1289020D03*
X1303990Y1289020D03*
D24*
X1366990Y1250270D03*
X1260990Y1250270D03*
D23*
X1293990Y1289020D03*
X1283990Y1289020D03*
X1273990Y1289020D03*
D10*
X1358914Y1660846D02*
X1358914Y1667514D01*
X1358914Y1660846D02*
X1352246Y1660846D01*
X1352246Y1667514D01*
X1358914Y1667514D01*
X1358914Y1663068D02*
X1352246Y1663068D01*
X1352246Y1665290D02*
X1358914Y1665290D01*
X1358914Y1667512D02*
X1352246Y1667512D01*
X1358914Y1676086D02*
X1358914Y1682754D01*
X1358914Y1676086D02*
X1352246Y1676086D01*
X1352246Y1682754D01*
X1358914Y1682754D01*
X1358914Y1678308D02*
X1352246Y1678308D01*
X1352246Y1680530D02*
X1358914Y1680530D01*
X1358914Y1682752D02*
X1352246Y1682752D01*
X1502106Y1664974D02*
X1502106Y1658306D01*
X1502106Y1664974D02*
X1508774Y1664974D01*
X1508774Y1658306D01*
X1502106Y1658306D01*
X1502106Y1660528D02*
X1508774Y1660528D01*
X1508774Y1662750D02*
X1502106Y1662750D01*
X1502106Y1664972D02*
X1508774Y1664972D01*
X1502106Y1649734D02*
X1502106Y1643066D01*
X1502106Y1649734D02*
X1508774Y1649734D01*
X1508774Y1643066D01*
X1502106Y1643066D01*
X1502106Y1645288D02*
X1508774Y1645288D01*
X1508774Y1647510D02*
X1502106Y1647510D01*
X1502106Y1649732D02*
X1508774Y1649732D01*
D25*
X1281040Y1949930D03*
X1298040Y1949930D03*
D10*
X1453576Y2127206D02*
X1460244Y2127206D01*
X1453576Y2127206D02*
X1453576Y2133874D01*
X1460244Y2133874D01*
X1460244Y2127206D01*
X1460244Y2129428D02*
X1453576Y2129428D01*
X1453576Y2131650D02*
X1460244Y2131650D01*
X1460244Y2133872D02*
X1453576Y2133872D01*
X1468816Y2127206D02*
X1475484Y2127206D01*
X1468816Y2127206D02*
X1468816Y2133874D01*
X1475484Y2133874D01*
X1475484Y2127206D01*
X1475484Y2129428D02*
X1468816Y2129428D01*
X1468816Y2131650D02*
X1475484Y2131650D01*
X1475484Y2133872D02*
X1468816Y2133872D01*
X1436892Y2235204D02*
X1430224Y2235204D01*
X1436892Y2235204D02*
X1436892Y2228536D01*
X1430224Y2228536D01*
X1430224Y2235204D01*
X1430224Y2230758D02*
X1436892Y2230758D01*
X1436892Y2232980D02*
X1430224Y2232980D01*
X1430224Y2235202D02*
X1436892Y2235202D01*
X1421652Y2235204D02*
X1414984Y2235204D01*
X1421652Y2235204D02*
X1421652Y2228536D01*
X1414984Y2228536D01*
X1414984Y2235204D01*
X1414984Y2230758D02*
X1421652Y2230758D01*
X1421652Y2232980D02*
X1414984Y2232980D01*
X1414984Y2235202D02*
X1421652Y2235202D01*
X1503376Y2212026D02*
X1510044Y2212026D01*
X1503376Y2212026D02*
X1503376Y2218694D01*
X1510044Y2218694D01*
X1510044Y2212026D01*
X1510044Y2214248D02*
X1503376Y2214248D01*
X1503376Y2216470D02*
X1510044Y2216470D01*
X1510044Y2218692D02*
X1503376Y2218692D01*
X1518616Y2212026D02*
X1525284Y2212026D01*
X1518616Y2212026D02*
X1518616Y2218694D01*
X1525284Y2218694D01*
X1525284Y2212026D01*
X1525284Y2214248D02*
X1518616Y2214248D01*
X1518616Y2216470D02*
X1525284Y2216470D01*
X1525284Y2218692D02*
X1518616Y2218692D01*
X1528776Y2135191D02*
X1535444Y2135191D01*
X1528776Y2135191D02*
X1528776Y2141859D01*
X1535444Y2141859D01*
X1535444Y2135191D01*
X1535444Y2137413D02*
X1528776Y2137413D01*
X1528776Y2139635D02*
X1535444Y2139635D01*
X1535444Y2141857D02*
X1528776Y2141857D01*
X1544016Y2135191D02*
X1550684Y2135191D01*
X1544016Y2135191D02*
X1544016Y2141859D01*
X1550684Y2141859D01*
X1550684Y2135191D01*
X1550684Y2137413D02*
X1544016Y2137413D01*
X1544016Y2139635D02*
X1550684Y2139635D01*
X1550684Y2141857D02*
X1544016Y2141857D01*
X1432574Y2049784D02*
X1425906Y2049784D01*
X1432574Y2049784D02*
X1432574Y2043116D01*
X1425906Y2043116D01*
X1425906Y2049784D01*
X1425906Y2045338D02*
X1432574Y2045338D01*
X1432574Y2047560D02*
X1425906Y2047560D01*
X1425906Y2049782D02*
X1432574Y2049782D01*
X1417334Y2049784D02*
X1410666Y2049784D01*
X1417334Y2049784D02*
X1417334Y2043116D01*
X1410666Y2043116D01*
X1410666Y2049784D01*
X1410666Y2045338D02*
X1417334Y2045338D01*
X1417334Y2047560D02*
X1410666Y2047560D01*
X1410666Y2049782D02*
X1417334Y2049782D01*
X1455116Y2049784D02*
X1461784Y2049784D01*
X1461784Y2043116D01*
X1455116Y2043116D01*
X1455116Y2049784D01*
X1455116Y2045338D02*
X1461784Y2045338D01*
X1461784Y2047560D02*
X1455116Y2047560D01*
X1455116Y2049782D02*
X1461784Y2049782D01*
X1446544Y2049784D02*
X1439876Y2049784D01*
X1446544Y2049784D02*
X1446544Y2043116D01*
X1439876Y2043116D01*
X1439876Y2049784D01*
X1439876Y2045338D02*
X1446544Y2045338D01*
X1446544Y2047560D02*
X1439876Y2047560D01*
X1439876Y2049782D02*
X1446544Y2049782D01*
X1446544Y2029146D02*
X1439876Y2029146D01*
X1439876Y2035814D01*
X1446544Y2035814D01*
X1446544Y2029146D01*
X1446544Y2031368D02*
X1439876Y2031368D01*
X1439876Y2033590D02*
X1446544Y2033590D01*
X1446544Y2035812D02*
X1439876Y2035812D01*
X1455116Y2029146D02*
X1461784Y2029146D01*
X1455116Y2029146D02*
X1455116Y2035814D01*
X1461784Y2035814D01*
X1461784Y2029146D01*
X1461784Y2031368D02*
X1455116Y2031368D01*
X1455116Y2033590D02*
X1461784Y2033590D01*
X1461784Y2035812D02*
X1455116Y2035812D01*
X1509726Y1593536D02*
X1516394Y1593536D01*
X1509726Y1593536D02*
X1509726Y1600204D01*
X1516394Y1600204D01*
X1516394Y1593536D01*
X1516394Y1595758D02*
X1509726Y1595758D01*
X1509726Y1597980D02*
X1516394Y1597980D01*
X1516394Y1600202D02*
X1509726Y1600202D01*
X1524966Y1593536D02*
X1531634Y1593536D01*
X1524966Y1593536D02*
X1524966Y1600204D01*
X1531634Y1600204D01*
X1531634Y1593536D01*
X1531634Y1595758D02*
X1524966Y1595758D01*
X1524966Y1597980D02*
X1531634Y1597980D01*
X1531634Y1600202D02*
X1524966Y1600202D01*
X1501154Y1584964D02*
X1501154Y1578296D01*
X1494486Y1578296D01*
X1494486Y1584964D01*
X1501154Y1584964D01*
X1501154Y1580518D02*
X1494486Y1580518D01*
X1494486Y1582740D02*
X1501154Y1582740D01*
X1501154Y1584962D02*
X1494486Y1584962D01*
X1501154Y1593536D02*
X1501154Y1600204D01*
X1501154Y1593536D02*
X1494486Y1593536D01*
X1494486Y1600204D01*
X1501154Y1600204D01*
X1501154Y1595758D02*
X1494486Y1595758D01*
X1494486Y1597980D02*
X1501154Y1597980D01*
X1501154Y1600202D02*
X1494486Y1600202D01*
D26*
X1218420Y2061690D03*
X1241280Y2061690D03*
X1264140Y2061690D03*
D27*
X1241280Y2125190D03*
D28*
X1327005Y2167100D03*
X1297795Y2167100D03*
X1285095Y2068040D03*
X1314305Y2068040D03*
D29*
X1326370Y1711805D03*
X1326370Y1682595D03*
D10*
X1305256Y1550674D02*
X1305256Y1544006D01*
X1305256Y1550674D02*
X1311924Y1550674D01*
X1311924Y1544006D01*
X1305256Y1544006D01*
X1305256Y1546228D02*
X1311924Y1546228D01*
X1311924Y1548450D02*
X1305256Y1548450D01*
X1305256Y1550672D02*
X1311924Y1550672D01*
X1305256Y1535434D02*
X1305256Y1528766D01*
X1305256Y1535434D02*
X1311924Y1535434D01*
X1311924Y1528766D01*
X1305256Y1528766D01*
X1305256Y1530988D02*
X1311924Y1530988D01*
X1311924Y1533210D02*
X1305256Y1533210D01*
X1305256Y1535432D02*
X1311924Y1535432D01*
X1528776Y2104076D02*
X1535444Y2104076D01*
X1528776Y2104076D02*
X1528776Y2110744D01*
X1535444Y2110744D01*
X1535444Y2104076D01*
X1535444Y2106298D02*
X1528776Y2106298D01*
X1528776Y2108520D02*
X1535444Y2108520D01*
X1535444Y2110742D02*
X1528776Y2110742D01*
X1544016Y2104076D02*
X1550684Y2104076D01*
X1544016Y2104076D02*
X1544016Y2110744D01*
X1550684Y2110744D01*
X1550684Y2104076D01*
X1550684Y2106298D02*
X1544016Y2106298D01*
X1544016Y2108520D02*
X1550684Y2108520D01*
X1550684Y2110742D02*
X1544016Y2110742D01*
X1518934Y2119316D02*
X1518934Y2125984D01*
X1518934Y2119316D02*
X1512266Y2119316D01*
X1512266Y2125984D01*
X1518934Y2125984D01*
X1518934Y2121538D02*
X1512266Y2121538D01*
X1512266Y2123760D02*
X1518934Y2123760D01*
X1518934Y2125982D02*
X1512266Y2125982D01*
X1518934Y2134556D02*
X1518934Y2141224D01*
X1518934Y2134556D02*
X1512266Y2134556D01*
X1512266Y2141224D01*
X1518934Y2141224D01*
X1518934Y2136778D02*
X1512266Y2136778D01*
X1512266Y2139000D02*
X1518934Y2139000D01*
X1518934Y2141222D02*
X1512266Y2141222D01*
D30*
X1437114Y1411450D03*
X1437114Y1444470D03*
X1199116Y1540990D03*
X1232136Y1540990D03*
X1333990Y2007080D03*
X1300970Y2007080D03*
D31*
X1343571Y1940017D02*
X1343571Y1923267D01*
X1343571Y1940017D02*
X1348821Y1940017D01*
X1348821Y1923267D01*
X1343571Y1923267D01*
X1343571Y1928516D02*
X1348821Y1928516D01*
X1348821Y1933765D02*
X1343571Y1933765D01*
X1343571Y1939014D02*
X1348821Y1939014D01*
X1313571Y1940017D02*
X1313571Y1923267D01*
X1313571Y1940017D02*
X1318821Y1940017D01*
X1318821Y1923267D01*
X1313571Y1923267D01*
X1313571Y1928516D02*
X1318821Y1928516D01*
X1318821Y1933765D02*
X1313571Y1933765D01*
X1313571Y1939014D02*
X1318821Y1939014D01*
D32*
X1333696Y1944132D02*
X1333696Y1949632D01*
X1333696Y1944132D02*
X1328696Y1944132D01*
X1328696Y1949632D01*
X1333696Y1949632D01*
X1333696Y1949131D02*
X1328696Y1949131D01*
D33*
X1434320Y1726800D03*
X1457320Y1689800D03*
X1457320Y1726800D03*
X1434320Y1689800D03*
D25*
X1420604Y1695558D03*
X1420604Y1712558D03*
X1472564Y1734446D03*
X1472564Y1717446D03*
D34*
X1422590Y1282756D03*
X1448590Y1282756D03*
X1429090Y1282756D03*
X1435590Y1282756D03*
X1442090Y1282756D03*
D35*
X1395590Y1256256D03*
X1475590Y1256256D03*
D36*
X1422890Y1256256D03*
X1448290Y1256256D03*
D10*
X1515568Y1511240D02*
X1515568Y1517908D01*
X1522236Y1517908D01*
X1522236Y1511240D01*
X1515568Y1511240D01*
X1515568Y1513462D02*
X1522236Y1513462D01*
X1522236Y1515684D02*
X1515568Y1515684D01*
X1515568Y1517906D02*
X1522236Y1517906D01*
X1515568Y1502668D02*
X1515568Y1496000D01*
X1515568Y1502668D02*
X1522236Y1502668D01*
X1522236Y1496000D01*
X1515568Y1496000D01*
X1515568Y1498222D02*
X1522236Y1498222D01*
X1522236Y1500444D02*
X1515568Y1500444D01*
X1515568Y1502666D02*
X1522236Y1502666D01*
X1545540Y1517908D02*
X1552208Y1517908D01*
X1552208Y1511240D01*
X1545540Y1511240D01*
X1545540Y1517908D01*
X1545540Y1513462D02*
X1552208Y1513462D01*
X1552208Y1515684D02*
X1545540Y1515684D01*
X1545540Y1517906D02*
X1552208Y1517906D01*
X1536968Y1517908D02*
X1530300Y1517908D01*
X1536968Y1517908D02*
X1536968Y1511240D01*
X1530300Y1511240D01*
X1530300Y1517908D01*
X1530300Y1513462D02*
X1536968Y1513462D01*
X1536968Y1515684D02*
X1530300Y1515684D01*
X1530300Y1517906D02*
X1536968Y1517906D01*
X1309892Y1588012D02*
X1303224Y1588012D01*
X1309892Y1588012D02*
X1309892Y1581344D01*
X1303224Y1581344D01*
X1303224Y1588012D01*
X1303224Y1583566D02*
X1309892Y1583566D01*
X1309892Y1585788D02*
X1303224Y1585788D01*
X1303224Y1588010D02*
X1309892Y1588010D01*
X1294652Y1588012D02*
X1287984Y1588012D01*
X1294652Y1588012D02*
X1294652Y1581344D01*
X1287984Y1581344D01*
X1287984Y1588012D01*
X1287984Y1583566D02*
X1294652Y1583566D01*
X1294652Y1585788D02*
X1287984Y1585788D01*
X1287984Y1588010D02*
X1294652Y1588010D01*
M02*
